<svg width="48" height="40" viewBox="0 0 48 40" fill="none" xmlns="http://www.w3.org/2000/svg">
<path d="M32.5 25H27.5C26.0938 25 25 26.1719 25 27.5V37.5C25 38.9062 26.0938 40 27.5 40H32.5C33.8281 40 35 38.9062 35 37.5V27.5C35 26.1719 33.8281 25 32.5 25ZM31.25 36.25H28.75V28.75H31.25V36.25ZM45 15H40C38.5938 15 37.5 16.1719 37.5 17.5V37.5C37.5 38.9062 38.5938 40 40 40H45C46.3281 40 47.5 38.9062 47.5 37.5V17.5C47.5 16.1719 46.3281 15 45 15ZM43.75 36.25H41.25V18.75H43.75V36.25ZM20 15H15C13.5938 15 12.5 16.1719 12.5 17.5V37.5C12.5 38.9062 13.5938 40 15 40H20C21.3281 40 22.5 38.9062 22.5 37.5V17.5C22.5 16.1719 21.3281 15 20 15ZM18.75 36.25H16.25V18.75H18.75V36.25ZM7.5 27.5H2.5C1.09375 27.5 0 28.6719 0 30V37.5C0 38.9062 1.09375 40 2.5 40H7.5C8.82812 40 10 38.9062 10 37.5V30C10 28.6719 8.82812 27.5 7.5 27.5ZM6.25 36.25H3.75V31.25H6.25V36.25ZM5 20C7.03125 20 8.75 18.3594 8.75 16.25C8.75 15.9375 8.67188 15.625 8.59375 15.3125L16.4844 7.42188C16.7969 7.5 17.1094 7.5 17.5 7.5C17.9688 7.5 18.3594 7.42188 18.8281 7.26562L26.25 13.2031C26.25 13.4375 26.25 13.5938 26.25 13.75C26.25 15.8594 27.8906 17.5 30 17.5C32.0312 17.5 33.75 15.8594 33.75 13.75C33.75 13.5938 33.6719 13.4375 33.6719 13.2031L41.0938 7.26562C41.5625 7.42188 41.9531 7.5 42.5 7.5C44.5312 7.5 46.25 5.85938 46.25 3.75C46.25 1.71875 44.5312 0 42.5 0C40.3906 0 38.75 1.71875 38.75 3.75C38.75 3.98438 38.75 4.14062 38.75 4.375L31.3281 10.3125C30.8594 10.1562 30.4688 10 29.9219 10C29.4531 10 29.0625 10.1562 28.5938 10.3125L21.1719 4.375C21.1719 4.14062 21.25 3.98438 21.25 3.75C21.25 1.71875 19.5312 0 17.5 0C15.3906 0 13.75 1.71875 13.75 3.75C13.75 4.14062 13.75 4.45312 13.8281 4.76562L5.9375 12.6562C5.625 12.5781 5.3125 12.5 5 12.5C2.89062 12.5 1.25 14.2188 1.25 16.25C1.25 18.3594 2.89062 20 5 20Z" fill="#F9FAFB"/>
</svg>
