<svg width="48" height="42" viewBox="0 0 48 42" fill="none" xmlns="http://www.w3.org/2000/svg">
<path d="M43.5 0H4.5C1.96875 0 0 2.0625 0 4.5V37.5C0 40.0312 1.96875 42 4.5 42H43.5C45.9375 42 48 40.0312 48 37.5V4.5C48 2.0625 45.9375 0 43.5 0ZM4.5 5.625C4.5 5.0625 4.96875 4.5 5.625 4.5H9.375C9.9375 4.5 10.5 5.0625 10.5 5.625V7.875C10.5 8.53125 9.9375 9 9.375 9H5.625C4.96875 9 4.5 8.53125 4.5 7.875V5.625ZM43.5 36.9375C43.5 37.3125 43.2188 37.5 42.9375 37.5H5.0625C4.6875 37.5 4.5 37.3125 4.5 36.9375V12.75H43.5V36.9375ZM43.5 7.875C43.5 8.53125 42.9375 9 42.375 9H16.125C15.4688 9 15 8.53125 15 7.875V5.625C15 5.0625 15.4688 4.5 16.125 4.5H42.375C42.9375 4.5 43.5 5.0625 43.5 5.625V7.875Z" fill="#F9FAFB"/>
</svg>
