<svg width="61" height="50" viewBox="0 0 61 50" fill="none" xmlns="http://www.w3.org/2000/svg">
<path d="M21.3438 45.9062C23.5 45.9062 25.1875 45.5312 26.6875 45.1562C27.7188 44.9688 28.375 44.0312 28.375 43V40C29.3125 39.625 30.1562 39.1562 30.9062 38.5938L33.4375 40C34.2812 40.5625 35.5 40.375 36.1562 39.625C38.7812 36.9062 40.75 34 41.5 30.1562C41.6875 29.3125 41.3125 28.375 40.4688 27.8125L38.0312 26.3125C38.125 25.2812 38.125 24.3438 38.0312 23.4062L40.4688 21.8125C41.3125 21.3438 41.6875 20.4062 41.5 19.4688C40.75 15.5312 38.5938 12.7188 36.1562 10.0938C35.5 9.34375 34.2812 9.15625 33.4375 9.625L30.9062 11.125C30.1562 10.5625 29.3125 10.0938 28.375 9.625V6.8125C28.375 5.78125 27.7188 4.84375 26.6875 4.65625C22.4688 3.625 20.125 3.625 15.9062 4.65625C14.9688 4.84375 14.2188 5.78125 14.2188 6.8125V9.625C13.375 10 12.5312 10.5625 11.6875 11.125L9.15625 9.625C8.3125 9.15625 7.1875 9.25 6.4375 10.0938C3.15625 13.5625 2.3125 15.5312 1.09375 19.2812C0.71875 20.3125 1.1875 21.4375 2.125 21.9062L4.65625 23.4062C4.5625 24.3438 4.5625 25.2812 4.65625 26.3125L2.125 27.7188C1.1875 28.1875 0.71875 29.3125 1.09375 30.3438C2.3125 34.0938 3.15625 36.0625 6.4375 39.625C7.1875 40.375 8.3125 40.4688 9.15625 40L11.6875 38.5C12.5312 39.0625 13.375 39.625 14.2188 40V43C14.2188 44.0312 14.9688 44.875 15.9062 45.1562C17.4062 45.5312 19.0938 45.9062 21.3438 45.9062ZM18.7188 41.125V36.9062L17.2188 36.3438C15.8125 35.875 14.5 35.125 13.375 34.1875L12.1562 33.1562L8.5 35.2188C7.375 33.9062 6.53125 32.3125 5.875 30.7188L9.53125 28.6562L9.25 27.0625C8.96875 25.5625 8.96875 24.0625 9.25 22.5625L9.53125 21.0625L5.875 18.9062C6.53125 17.3125 7.375 15.8125 8.5 14.4062L12.1562 16.5625L13.375 15.5312C14.5 14.5 15.8125 13.75 17.2188 13.2812L18.7188 12.7188V8.5C20.4062 8.3125 22.1875 8.3125 23.875 8.5V12.7188L25.375 13.2812C26.7812 13.75 28.0938 14.5 29.2188 15.5312L30.4375 16.5625L34.0938 14.4062C35.2188 15.8125 36.0625 17.3125 36.7188 18.9062L33.0625 20.9688L33.3438 22.5625C33.625 24.0625 33.625 25.5625 33.3438 27.0625L33.0625 28.6562L36.7188 30.7188C36.0625 32.3125 35.2188 33.8125 34.0938 35.2188L30.4375 33.0625L29.2188 34.0938C28.0938 35.125 26.7812 35.875 25.375 36.3438L23.875 36.9062V41.125C22.1875 41.4062 20.4062 41.4062 18.7188 41.125ZM21.25 33.1562C23.4062 33.1562 25.4688 32.3125 27.1562 30.7188C30.3438 27.5312 30.3438 22.2812 27.1562 19C23.875 15.8125 18.625 15.8125 15.4375 19C12.1562 22.2812 12.1562 27.5312 15.4375 30.7188C17.0312 32.3125 19.1875 33.1562 21.25 33.1562ZM21.25 21.0625C22.1875 21.0625 23.2188 21.4375 23.9688 22.1875C25.375 23.6875 25.375 26.0312 23.9688 27.5312C22.4688 29.0312 20.0312 29.0312 18.625 27.5312C17.125 26.0312 17.125 23.6875 18.625 22.1875C19.375 21.4375 20.3125 21.0625 21.25 21.0625ZM60.8125 8.96875C60.7188 8.5 60.25 8.03125 59.6875 8.03125H58.1875C57.9062 7.1875 57.3438 6.25 56.7812 5.59375L57.5312 4.28125C57.7188 3.8125 57.625 3.15625 57.25 2.78125C56.4062 2.125 55.375 1.5625 54.3438 1.09375C53.7812 0.90625 53.2188 1.09375 52.9375 1.65625L52.1875 2.875C51.25 2.78125 50.2188 2.78125 49.2812 2.875L48.5312 1.65625C48.25 1.09375 47.6875 0.90625 47.125 1.09375C46.0938 1.5625 45.0625 2.125 44.2188 2.78125C43.75 3.15625 43.6562 3.8125 43.9375 4.28125L44.6875 5.59375C44.0312 6.25 43.5625 7.1875 43.2812 8.03125H41.7812C41.2188 8.03125 40.75 8.5 40.6562 9.0625C40.4688 10.1875 40.4688 11.3125 40.6562 12.4375C40.75 13 41.2188 13.375 41.7812 13.375H43.2812C43.5625 14.3125 44.0312 15.1562 44.6875 15.9062L43.9375 17.2188C43.6562 17.6875 43.75 18.25 44.2188 18.625C45.0625 19.375 46.0938 19.9375 47.125 20.3125C47.6875 20.5 48.25 20.3125 48.5312 19.8438L49.2812 18.5312C50.2188 18.7188 51.25 18.7188 52.1875 18.5312L52.9375 19.8438C53.2188 20.3125 53.7812 20.5 54.3438 20.3125C55.375 19.9375 56.4062 19.375 57.25 18.625C57.625 18.25 57.8125 17.6875 57.5312 17.2188L56.7812 15.9062C57.3438 15.1562 57.9062 14.3125 58.1875 13.375H59.6875C60.25 13.375 60.7188 13 60.8125 12.4375C61 11.2188 61 10.0938 60.8125 8.96875ZM50.6875 13.75C49.0938 13.75 47.6875 12.3438 47.6875 10.75C47.6875 9.0625 49.0938 7.75 50.6875 7.75C52.375 7.75 53.6875 9.0625 53.6875 10.75C53.6875 12.3438 52.375 13.75 50.6875 13.75ZM60.8125 37.6562C60.7188 37.0938 60.25 36.7188 59.6875 36.7188H58.1875C57.9062 35.7812 57.3438 34.9375 56.7812 34.1875L57.5312 32.875C57.7188 32.4062 57.625 31.8438 57.25 31.4688C56.4062 30.7188 55.375 30.1562 54.25 29.7812C53.7812 29.5938 53.2188 29.7812 52.9375 30.25L52.1875 31.5625C51.25 31.375 50.2188 31.375 49.2812 31.5625L48.5312 30.25C48.25 29.7812 47.6875 29.5938 47.125 29.7812C46.0938 30.1562 45.0625 30.7188 44.2188 31.4688C43.75 31.8438 43.6562 32.4062 43.9375 32.875L44.6875 34.1875C44.0312 34.9375 43.5625 35.7812 43.2812 36.7188H41.6875C41.2188 36.7188 40.6562 37.0938 40.6562 37.6562C40.4688 38.7812 40.4688 40 40.6562 41.0312C40.75 41.5938 41.2188 41.9688 41.6875 41.9688H43.2812C43.5625 42.9062 44.0312 43.75 44.6875 44.5L43.9375 45.8125C43.6562 46.2812 43.75 46.9375 44.2188 47.2188C45.0625 47.9688 46.0938 48.5312 47.125 49C47.6875 49.1875 48.25 49 48.5312 48.4375L49.2812 47.125C50.2188 47.3125 51.25 47.3125 52.1875 47.125L52.9375 48.4375C53.2188 48.9062 53.7812 49.1875 54.25 49C55.375 48.5312 56.4062 47.9688 57.25 47.2188C57.625 46.9375 57.8125 46.2812 57.5312 45.8125L56.7812 44.5C57.3438 43.75 57.9062 42.9062 58.1875 41.9688H59.6875C60.25 41.9688 60.7188 41.5938 60.8125 41.0312C61 39.9062 61 38.7812 60.8125 37.6562ZM50.6875 42.3438C49.0938 42.3438 47.6875 41.0312 47.6875 39.3438C47.6875 37.75 49.0938 36.3438 50.6875 36.3438C52.375 36.3438 53.6875 37.75 53.6875 39.3438C53.6875 41.0312 52.375 42.3438 50.6875 42.3438Z" fill="#F9FAFB"/>
</svg>
