<svg width="1440" height="1418" viewBox="0 0 1440 1418" fill="none" xmlns="http://www.w3.org/2000/svg">
<g opacity="0.8">
<path d="M1482.83 1279.77C1509.16 1260.95 1520.66 1227.57 1519.93 1195.56C1519.2 1163.55 1507.85 1132.33 1495.67 1102.11C1479.58 1062.16 1461.15 1021.83 1430.4 990.39C1387.54 946.568 1325.87 925.103 1265.72 910.27C1158.92 883.935 1049.03 873.504 939.64 869.61C822.373 865.436 700.192 867.627 593.187 818.049C497.161 773.56 448.52 701.497 401.256 614.79C357.174 533.92 330.903 441.819 263.283 373.415C174.555 283.658 32.3523 254.768 -90.038 282.338C-212.428 309.908 -316.011 386.976 -394.775 479.373" stroke="#1C64EB" stroke-width="0.864782" stroke-miterlimit="10"/>
<path d="M1496.68 1272.33C1520.14 1256.38 1527.66 1225.47 1524.33 1194.39C1521.02 1163.39 1508.65 1132.45 1494.96 1103.13C1476.93 1064.52 1457.22 1024.95 1425.05 994.162C1379.34 950.404 1315.27 927.179 1253.37 910.457C1147.9 881.956 1039.28 870.033 931.533 864.331C816.919 858.266 697.454 859.626 592.585 810.158C496.925 765.033 446.378 693.957 397.157 610.015C351.008 531.72 321.84 443.933 253.697 378.884C164.584 293.818 24.6767 267.226 -96.9295 293.768C-218.989 320.292 -322.32 392.186 -402.124 480.993" stroke="#1C64EB" stroke-width="0.864782" stroke-miterlimit="10"/>
<path d="M1510.51 1264.9C1531.11 1251.81 1534.68 1223.47 1528.74 1193.21C1522.86 1163.32 1509.47 1132.59 1494.24 1104.15C1474.3 1066.89 1453.23 1028.08 1419.69 997.938C1371.08 954.253 1304.68 929.302 1241.02 910.645C1136.88 880.121 1029.55 866.571 923.426 859.051C811.475 851.119 694.712 851.604 591.984 802.262C496.694 756.491 444.422 686.304 393.052 605.239C345.018 529.434 312.808 446.069 244.11 384.354C154.656 303.996 17.0006 279.686 -103.823 305.204C-225.556 330.678 -328.633 397.394 -409.479 482.615" stroke="#1C64EB" stroke-width="0.864782" stroke-miterlimit="10"/>
<path d="M1524.35 1257.46C1542.08 1247.23 1541.75 1221.55 1533.13 1192.03C1524.75 1163.31 1510.29 1132.73 1493.52 1105.17C1471.69 1069.28 1449.22 1031.22 1414.34 1001.71C1362.79 958.1 1294.12 931.461 1228.67 910.825C1125.86 878.407 1019.84 863.115 915.326 853.765C806.059 843.989 691.983 843.564 591.389 794.365C496.467 747.94 442.37 678.704 388.96 600.46C338.94 527.181 303.825 448.213 234.532 389.82C144.779 314.179 9.33109 292.147 -110.706 316.632C-232.107 341.056 -334.931 402.597 -416.818 484.227" stroke="#1C64EB" stroke-width="0.864782" stroke-miterlimit="10"/>
<path d="M1538.2 1249.99C1553.06 1242.62 1548.89 1219.69 1537.54 1190.82C1526.73 1163.33 1511.14 1132.86 1492.8 1106.15C1469.1 1071.64 1445.18 1034.34 1408.99 1005.46C1354.46 961.941 1283.57 933.643 1216.32 910.988C1114.83 876.798 1010.16 859.66 907.228 848.457C800.668 836.86 689.267 835.481 590.8 786.443C496.247 739.356 440.314 671.073 384.875 595.665C332.86 524.912 294.883 450.366 224.963 395.274C134.963 324.363 1.67465 304.596 -117.577 328.052C-238.65 351.436 -341.218 407.796 -424.146 485.836" stroke="#1C64EB" stroke-width="0.864782" stroke-miterlimit="10"/>
<path d="M1552.04 1242.52C1564.03 1238.01 1556.11 1217.89 1541.94 1189.62C1528.8 1163.4 1512.01 1132.98 1492.09 1107.14C1466.55 1074.01 1441.12 1037.48 1403.64 1009.2C1346.11 965.796 1273.03 935.863 1203.97 911.146C1103.79 875.293 1000.5 856.216 899.129 843.148C795.288 829.763 686.552 827.379 590.21 778.524C496.023 730.765 438.25 663.448 380.787 590.875C326.767 522.647 285.98 452.529 215.394 400.738C125.198 334.559 -5.92161 317.308 -124.45 339.486C-245.131 362.065 -347.506 412.995 -431.474 487.44" stroke="#1C64EB" stroke-width="0.864782" stroke-miterlimit="10"/>
<path d="M1565.88 1235.05C1575 1233.4 1563.43 1216.13 1546.34 1188.41C1530.98 1163.49 1512.89 1133.11 1491.37 1108.13C1464.02 1076.38 1437.03 1040.64 1398.28 1012.95C1337.72 969.675 1262.49 938.127 1191.62 911.312C1092.73 873.895 990.86 852.803 891.027 837.848C789.923 822.702 683.845 819.27 589.615 770.613C495.801 722.17 436.169 655.826 376.698 586.088C320.664 520.383 277.123 454.707 205.819 406.206C115.484 344.757 -13.575 329.812 -131.326 350.919C-251.666 372.488 -353.793 418.194 -438.803 489.05" stroke="#1C64EB" stroke-width="0.864782" stroke-miterlimit="10"/>
<path d="M1579.72 1227.58C1585.97 1228.79 1570.85 1214.38 1550.74 1187.2C1533.26 1163.57 1513.79 1133.25 1490.65 1109.12C1461.51 1078.75 1432.93 1043.82 1392.92 1016.7C1329.31 973.574 1251.95 940.433 1179.26 911.473C1081.66 872.581 981.239 849.406 882.921 832.542C784.567 815.668 681.137 811.137 589.02 762.692C495.582 713.552 434.081 648.196 372.605 581.296C314.551 518.116 268.307 456.882 196.241 411.668C105.83 354.942 -21.2358 342.31 -138.207 362.351C-258.211 382.912 -360.093 423.399 -446.142 490.66" stroke="#1C64EB" stroke-width="0.864782" stroke-miterlimit="10"/>
<path d="M1593.56 1220.1C1596.94 1224.18 1578.37 1212.61 1555.14 1185.99C1535.64 1163.63 1514.72 1133.37 1489.93 1110.11C1459.03 1081.11 1428.82 1047 1387.57 1020.44C1320.87 977.483 1241.4 942.773 1166.92 911.628C1070.57 871.346 971.644 846.029 874.834 827.228C779.245 808.665 678.454 802.98 588.446 754.769C495.384 704.923 431.999 640.564 368.536 576.498C308.447 515.843 259.566 459.049 186.692 417.122C96.2636 365.099 -28.8703 354.794 -145.057 373.772C-264.74 393.324 -366.37 428.598 -453.459 492.265" stroke="#1C64EB" stroke-width="0.864782" stroke-miterlimit="10"/>
<path d="M1607.4 1212.63C1607.91 1219.57 1585.97 1210.8 1559.54 1184.78C1538.09 1163.65 1515.65 1133.49 1489.21 1111.1C1456.56 1083.46 1424.68 1050.21 1382.21 1024.19C1312.42 981.427 1230.85 945.165 1154.56 911.793C1059.45 870.187 962.059 842.691 866.726 821.925C773.918 801.709 675.755 794.812 587.848 746.852C495.168 696.287 429.887 632.943 364.442 571.71C302.314 513.577 250.85 461.217 177.113 422.589C86.7331 375.244 -36.5337 367.287 -151.944 385.208C-271.279 403.737 -372.662 433.798 -460.787 493.875" stroke="#1C64EB" stroke-width="0.864782" stroke-miterlimit="10"/>
<path d="M1621.24 1205.16C1618.89 1214.96 1593.64 1208.93 1563.95 1183.57C1540.6 1163.62 1516.61 1133.59 1488.5 1112.09C1454.13 1085.8 1420.54 1053.43 1376.86 1027.94C1303.95 985.386 1220.29 947.593 1142.21 911.953C1048.32 869.092 952.504 839.378 858.63 816.617C768.609 794.794 673.077 786.628 587.261 738.934C494.961 687.64 427.774 625.323 360.355 566.916C296.175 511.315 242.189 463.361 167.541 428.051C77.2736 385.351 -44.1895 379.775 -158.818 396.636C-277.82 414.141 -378.948 438.995 -468.117 495.476" stroke="#1C64EB" stroke-width="0.864782" stroke-miterlimit="10"/>
<path d="M1635.08 1197.68C1629.86 1210.35 1601.35 1206.99 1568.35 1182.36C1543.14 1163.55 1517.58 1133.69 1487.77 1113.08C1451.7 1088.12 1416.39 1056.66 1371.51 1031.69C1295.46 989.372 1209.71 950.068 1129.86 912.12C1037.16 868.061 942.952 836.106 850.526 811.317C763.303 787.923 670.399 778.43 586.666 731.023C494.752 678.983 425.642 617.714 356.263 562.134C290.024 509.067 233.577 465.495 157.968 433.527C67.874 395.436 -51.8491 392.272 -165.692 408.08C-284.362 424.56 -385.234 444.208 -475.445 497.097" stroke="#1C64EB" stroke-width="0.864782" stroke-miterlimit="10"/>
<path d="M1648.92 1190.21C1640.83 1205.74 1609.1 1204.98 1572.75 1181.15C1545.69 1163.42 1518.55 1133.77 1487.05 1114.06C1449.28 1090.42 1412.23 1059.91 1366.15 1035.43C1286.96 993.375 1199.11 952.579 1117.51 912.278C1025.99 867.077 933.417 832.864 842.429 806.009C758.006 781.089 667.735 770.21 586.079 723.101C494.559 670.3 423.51 610.101 352.182 557.338C283.872 506.81 225.02 467.582 148.403 438.984C58.5398 405.447 -59.5045 404.748 -172.559 419.508C-290.901 434.963 -391.52 449.408 -482.772 498.706" stroke="#1C64EB" stroke-width="0.864782" stroke-miterlimit="10"/>
<path d="M1662.76 1182.73C1651.8 1201.12 1616.86 1202.9 1577.15 1179.94C1548.26 1163.24 1519.53 1133.84 1486.33 1115.06C1446.88 1092.72 1408.06 1063.17 1360.79 1039.19C1278.45 997.41 1188.5 955.141 1105.15 912.447C1014.78 866.154 923.888 829.671 834.325 800.706C752.71 774.316 665.075 761.979 585.485 715.188C494.363 661.613 421.359 602.502 348.091 552.556C277.702 504.574 216.495 469.641 138.826 444.459C49.2486 415.417 -67.1682 417.234 -179.436 430.951C-297.451 445.369 -397.808 454.614 -490.1 500.317" stroke="#1C64EB" stroke-width="0.864782" stroke-miterlimit="10"/>
<path d="M1676.59 1175.26C1662.76 1196.52 1624.63 1200.76 1581.54 1178.73C1550.82 1163.02 1520.51 1133.9 1485.61 1116.04C1444.47 1095 1403.89 1066.44 1355.43 1042.93C1269.93 1001.45 1177.86 957.731 1092.8 912.606C1003.55 865.261 914.369 826.512 826.227 795.399C747.419 767.58 662.429 753.727 584.898 707.267C494.184 652.907 419.211 594.907 344.01 547.761C271.535 502.332 208.017 471.636 129.264 449.924C40.0121 425.317 -74.8211 429.71 -186.3 442.388C-303.981 455.768 -404.089 459.822 -497.416 501.93" stroke="#1C64EB" stroke-width="0.864782" stroke-miterlimit="10"/>
<path d="M1690.42 1167.78C1673.73 1191.9 1632.38 1198.56 1585.93 1177.52C1553.37 1162.77 1521.49 1133.95 1484.88 1117.04C1442.06 1097.26 1399.71 1069.72 1350.07 1046.68C1261.39 1005.53 1167.19 960.367 1080.44 912.772C992.296 864.413 904.838 823.409 818.116 790.098C742.109 760.902 659.775 745.465 584.297 699.356C493.995 644.189 417.042 587.326 339.912 542.983C265.348 500.114 199.555 473.594 119.682 455.405C30.791 435.156 -82.4927 442.196 -193.182 453.836C-310.538 466.174 -410.383 465.038 -504.756 503.553" stroke="#1C64EB" stroke-width="0.864782" stroke-miterlimit="10"/>
<path d="M1704.25 1160.31C1684.69 1187.29 1640.13 1196.32 1590.33 1176.31C1555.9 1162.49 1522.48 1133.98 1484.15 1118.03C1439.66 1099.51 1395.53 1073.02 1344.71 1050.44C1252.86 1009.63 1156.5 963.051 1068.08 912.946C981.013 863.608 895.302 820.365 810.005 784.806C736.795 754.284 657.13 737.196 583.697 691.455C493.822 635.469 414.869 579.768 335.816 538.215C259.16 497.916 191.113 475.503 110.103 460.892C21.5959 444.934 -90.1606 454.689 -200.062 465.295C-317.085 476.584 -416.673 470.261 -512.08 505.181" stroke="#1C64EB" stroke-width="0.864782" stroke-miterlimit="10"/>
<path d="M1718.08 1152.84C1695.65 1182.68 1647.86 1194.03 1594.71 1175.11C1558.42 1162.19 1523.46 1134 1483.42 1119.02C1437.25 1101.75 1391.34 1076.32 1339.34 1054.19C1244.31 1013.74 1145.77 965.766 1055.72 913.113C969.712 862.826 885.757 817.367 801.903 779.505C731.473 747.708 654.508 728.906 583.107 683.542C493.667 626.721 412.702 572.21 331.733 533.431C252.974 495.712 182.699 477.321 100.539 466.369C12.4326 454.622 -97.8143 467.161 -206.925 476.739C-323.628 486.985 -422.953 475.476 -519.401 506.804" stroke="#1C64EB" stroke-width="0.864782" stroke-miterlimit="10"/>
<path d="M1731.91 1145.37C1706.6 1178.08 1655.57 1191.7 1599.1 1173.9C1560.92 1161.87 1524.43 1134.01 1482.69 1120.01C1434.84 1103.97 1387.14 1079.64 1333.97 1057.95C1235.75 1017.88 1135.01 968.526 1043.35 913.284C958.381 862.077 876.184 814.426 793.788 774.211C726.125 741.185 651.882 720.601 582.507 675.641C493.511 617.959 410.523 564.669 327.633 528.662C246.774 493.533 174.266 479.086 90.9557 471.859C3.24386 464.25 -105.492 479.646 -213.808 488.197C-330.185 497.387 -429.249 480.707 -526.74 508.436" stroke="#1C64EB" stroke-width="0.864782" stroke-miterlimit="10"/>
<path d="M1745.74 1137.9C1717.56 1173.47 1663.27 1189.35 1603.49 1172.7C1563.4 1161.53 1525.41 1134.02 1481.96 1121.01C1432.42 1106.19 1382.96 1082.97 1328.6 1061.71C1227.2 1022.04 1124.23 971.326 1030.99 913.462C947.036 861.358 866.601 811.556 785.685 768.924C720.763 734.722 649.277 712.294 581.916 667.741C493.38 609.187 408.353 557.144 323.549 523.893C240.586 491.362 165.839 480.775 81.3873 477.349C-5.93662 473.808 -113.153 492.126 -220.677 499.659C-336.726 507.788 -435.533 485.935 -534.061 510.074" stroke="#1C64EB" stroke-width="0.864782" stroke-miterlimit="10"/>
<path d="M1759.56 1130.43C1728.52 1168.86 1670.94 1186.98 1607.88 1171.49C1565.87 1161.18 1526.38 1134.01 1481.22 1122.01C1430 1108.4 1378.76 1086.3 1323.23 1065.46C1218.64 1026.21 1113.41 974.16 1018.63 913.635C935.656 860.654 856.969 808.735 777.568 763.633C715.365 728.298 646.668 703.961 581.311 659.842C493.249 600.392 406.165 549.628 319.448 519.128C234.382 489.206 157.38 482.395 71.8091 482.841C-15.1488 483.296 -120.822 504.603 -227.558 511.116C-343.284 518.184 -441.825 491.161 -541.396 511.701" stroke="#1C64EB" stroke-width="0.864782" stroke-miterlimit="10"/>
<path d="M1773.38 1122.96C1739.47 1164.25 1678.59 1184.58 1612.26 1170.29C1568.31 1160.82 1527.35 1134 1480.49 1123C1427.58 1110.6 1374.57 1089.64 1317.86 1069.22C1210.08 1030.4 1102.56 977.029 1006.26 913.81C924.256 859.972 847.297 805.975 769.46 758.346C709.941 721.923 644.079 695.625 580.713 651.948C493.142 591.586 403.992 542.124 315.357 514.364C228.188 487.065 148.898 483.946 62.2345 488.336C-24.3888 492.728 -128.49 517.078 -234.433 522.583C-349.832 528.58 -448.11 496.396 -548.722 513.344" stroke="#1C64EB" stroke-width="0.864782" stroke-miterlimit="10"/>
<path d="M1787.2 1115.49C1750.42 1159.65 1686.23 1182.17 1616.64 1169.08C1570.74 1160.45 1528.31 1133.97 1479.75 1124C1425.15 1112.78 1370.38 1092.99 1312.49 1072.97C1201.53 1034.61 1091.67 979.937 993.897 913.983C912.836 859.303 837.576 803.273 761.35 753.051C704.479 715.582 641.501 687.265 580.116 644.041C493.052 582.739 401.815 534.62 311.265 509.591C221.997 484.916 140.376 485.419 52.6632 493.824C-33.6629 502.094 -136.153 529.541 -241.303 534.037C-356.378 538.958 -454.397 501.622 -556.044 514.976" stroke="#1C64EB" stroke-width="0.864782" stroke-miterlimit="10"/>
<path d="M1801.02 1108.02C1761.37 1155.04 1693.85 1179.76 1621.02 1167.88C1573.16 1160.07 1529.26 1133.94 1479.01 1125C1422.7 1114.97 1366.18 1096.34 1307.11 1076.73C1192.96 1038.83 1080.73 982.882 981.525 914.163C901.384 858.651 827.781 800.639 753.231 747.768C698.964 709.283 638.928 678.905 579.507 636.15C492.975 573.885 399.634 527.136 307.163 504.831C215.795 482.794 131.799 486.844 43.0778 499.322C-42.9994 511.426 -143.828 542.009 -248.188 545.506C-362.94 549.351 -460.693 506.86 -563.385 516.62" stroke="#1C64EB" stroke-width="0.864782" stroke-miterlimit="10"/>
<path d="M1814.84 1100.56C1772.33 1150.44 1701.45 1177.33 1625.4 1166.67C1575.56 1159.69 1530.21 1133.91 1478.28 1125.99C1420.26 1117.15 1361.99 1099.7 1301.75 1080.49C1184.41 1043.06 1069.78 985.854 969.166 914.333C889.924 858.005 817.93 798.044 745.125 742.475C693.414 703.009 636.38 670.521 578.914 628.247C492.934 564.993 397.47 519.648 303.075 500.061C209.612 480.665 123.189 488.211 33.5079 504.806C-52.3731 520.7 -151.49 554.459 -255.057 556.957C-369.481 559.718 -466.977 512.079 -570.703 518.244" stroke="#1C64EB" stroke-width="0.864782" stroke-miterlimit="10"/>
<path d="M1828.66 1093.09C1783.28 1145.83 1709.03 1174.9 1629.78 1165.47C1577.95 1159.31 1531.15 1133.87 1477.54 1126.99C1417.81 1119.33 1357.79 1103.07 1296.37 1084.25C1175.84 1047.32 1058.77 988.871 956.798 914.516C878.436 857.378 807.987 795.515 737.013 737.197C687.815 696.769 633.836 662.14 578.313 620.361C492.911 556.095 395.3 512.189 298.98 495.31C203.427 478.565 114.512 489.544 23.9338 510.314C-61.806 529.971 -159.155 566.927 -261.931 568.436C-376.03 570.106 -473.261 517.327 -578.032 519.899" stroke="#1C64EB" stroke-width="0.864782" stroke-miterlimit="10"/>
<path d="M1842.48 1085.63C1794.22 1141.23 1716.6 1172.46 1634.16 1164.27C1580.33 1158.93 1532.09 1133.83 1476.79 1127.99C1415.35 1121.5 1353.6 1106.44 1290.99 1088.01C1167.28 1051.58 1047.72 991.916 944.423 914.698C866.917 856.76 797.947 793.036 728.892 731.918C682.145 690.543 631.301 653.748 577.703 612.476C492.904 547.171 393.13 504.736 294.873 490.555C197.233 476.468 105.77 490.843 14.3444 515.817C-71.3107 539.213 -166.835 579.389 -268.818 579.904C-382.591 580.48 -479.56 522.569 -585.369 521.545" stroke="#1C64EB" stroke-width="0.864782" stroke-miterlimit="10"/>
<path d="M1856.29 1078.17C1805.16 1136.63 1724.16 1170.02 1638.53 1163.08C1582.69 1158.55 1533.02 1133.79 1476.05 1128.99C1412.88 1123.67 1349.41 1109.82 1285.62 1091.77C1158.72 1055.86 1036.64 994.99 932.059 914.879C855.391 856.149 787.823 790.591 720.782 726.635C676.43 684.324 628.787 645.342 577.105 604.584C492.947 538.211 390.976 497.276 290.782 485.798C191.064 474.371 96.9867 492.105 4.77092 521.316C-80.8596 548.437 -174.5 591.837 -275.689 591.368C-389.132 590.842 -485.846 527.802 -592.689 523.184" stroke="#1C64EB" stroke-width="0.864782" stroke-miterlimit="10"/>
<path d="M1870.1 1070.71C1816.11 1132.03 1731.71 1167.58 1642.91 1161.88C1585.06 1158.16 1533.95 1133.75 1475.31 1129.99C1410.41 1125.84 1345.22 1113.2 1280.24 1095.53C1150.16 1060.15 1025.51 998.102 919.688 915.063C843.832 855.544 777.587 788.182 712.664 721.358C670.652 678.114 626.282 636.93 576.503 596.703C493.014 529.232 388.824 489.839 286.688 481.048C184.894 472.288 88.1463 493.359 -4.79948 526.82C-90.4583 557.659 -182.164 604.107 -282.559 602.841C-395.681 601.008 -492.125 533.046 -600.014 524.835" stroke="#1C64EB" stroke-width="0.864782" stroke-miterlimit="10"/>
<path d="M1883.92 1063.25C1827.06 1127.43 1739.25 1165.14 1647.29 1160.68C1587.41 1157.78 1534.87 1133.7 1474.57 1131C1407.93 1128.01 1341.02 1116.6 1274.86 1099.3C1141.6 1064.45 1014.34 1001.24 907.318 915.246C832.259 854.937 767.238 785.79 704.547 716.081C664.806 671.894 623.794 628.51 575.898 588.816C493.12 520.215 386.666 482.578 282.59 476.296C178.717 470.387 79.2416 494.595 -14.3803 532.323C-100.12 566.874 -189.83 616.605 -289.437 614.309C-402.226 611.428 -498.418 538.284 -607.342 526.484" stroke="#1C64EB" stroke-width="0.864782" stroke-miterlimit="10"/>
<path d="M1897.73 1055.78C1838 1122.83 1746.78 1162.69 1651.66 1159.48C1589.75 1157.38 1535.79 1133.55 1473.82 1131.99C1405.45 1130.06 1336.81 1120.1 1269.49 1103.06C1133 1068.99 1003.14 1004.4 894.95 915.426C820.67 854.334 756.786 783.404 696.436 710.802C658.913 665.656 621.331 620.08 575.298 580.931C493.27 511.168 384.53 475.052 278.498 471.541C172.566 468.22 70.2945 495.824 -23.9548 537.824C-109.83 576.093 -197.49 629.104 -296.316 625.777C-408.769 621.843 -504.709 543.527 -614.671 528.132" stroke="#1C64EB" stroke-width="0.864782" stroke-miterlimit="10"/>
<path d="M1911.54 1048.32C1848.95 1118.23 1754.29 1160.25 1656.04 1158.28C1592.09 1157 1536.71 1133.6 1473.08 1133C1402.96 1132.33 1332.65 1123.38 1264.11 1106.82C1124.5 1073.08 991.887 1007.6 882.58 915.613C809.052 853.738 746.214 781.028 688.319 705.526C652.947 659.399 618.88 611.647 574.692 573.049C493.464 502.086 382.392 467.53 274.398 466.794C166.403 466.057 61.2957 497.056 -33.5324 543.333C-119.59 585.325 -205.153 641.607 -303.192 637.25C-415.316 632.267 -510.995 548.772 -622 529.78" stroke="#1C64EB" stroke-width="0.864782" stroke-miterlimit="10"/>
<path d="M1412.02 1151.66C1443.79 1043.65 1434.02 923.582 1384.93 818.821C1370.97 789.015 1353.06 759.469 1325.4 740.129C1245.48 684.251 1132.4 722.639 1047.46 738.392C944.938 757.408 842.826 778.876 738.614 789.765C680.106 795.879 613.36 796.092 569.643 756.507C525.374 716.42 522.385 652.205 515.568 595.062C507.625 528.475 489.733 461.346 451.803 404.017C413.875 346.693 353.878 300.006 284.929 287.476C230.937 277.661 176.003 288.971 124.405 304.372C-11.172 344.838 -136.265 414.245 -239.407 506.221" stroke="#1C64EB" stroke-width="0.864782" stroke-miterlimit="10"/>
<path d="M1416.22 1147.83C1446.97 1043.3 1434.06 928.213 1383.5 822.882C1369.39 793.474 1351.68 764.258 1324.49 744.979C1245.81 689.111 1135.25 724.423 1051.08 738.765C961.339 754.056 871.567 771.983 779.445 782.913C768.113 784.276 756.761 785.535 745.384 786.67C687.433 792.457 621.516 792.6 577.899 754.254C533.699 715.422 529.463 653.274 521.555 597.964C512.25 533.514 493.36 468.537 455.161 412.972C416.806 357.403 357.18 312.04 289.018 299.551C242.699 291.057 195.766 297.804 150.919 309.037C143.976 310.772 137.103 312.659 130.261 314.53C-5.48402 351.651 -127.038 413.218 -226.854 502.233" stroke="#1C64EB" stroke-width="0.864782" stroke-miterlimit="10"/>
<path d="M1420.42 1144C1450.15 1042.95 1434.11 932.845 1382.08 826.95C1367.82 797.933 1350.31 769.057 1323.59 749.834C1246.12 693.976 1138.1 726.218 1054.7 739.147C966.439 752.826 877.779 769.807 785.878 780.037C774.657 781.325 763.415 782.513 752.149 783.587C694.755 789.048 629.662 789.118 586.146 752.012C542.009 714.437 536.527 654.352 527.525 600.879C516.858 538.569 496.978 475.739 458.499 421.94C419.719 368.121 360.466 324.086 293.086 311.642C247.208 303.157 200.808 309.299 156.511 319.649C149.649 321.244 142.865 323.023 136.096 324.703C0.122062 358.464 -117.83 412.211 -214.323 498.259" stroke="#1C64EB" stroke-width="0.864782" stroke-miterlimit="10"/>
<path d="M1424.62 1140.18C1453.32 1042.6 1434.18 937.481 1380.66 831.018C1366.26 802.392 1348.94 773.853 1322.68 754.691C1246.45 698.842 1140.96 728.024 1058.32 739.525C971.557 751.603 883.961 767.403 792.316 777.162C781.201 778.349 770.073 779.493 758.919 780.502C702.083 785.636 637.818 785.635 594.401 749.772C550.333 713.453 543.711 655.421 533.505 603.798C521.606 543.604 500.747 482.853 461.849 430.912C422.783 378.751 363.76 336.136 297.17 323.74C251.735 315.264 205.869 320.808 162.115 330.265C155.331 331.719 148.64 333.393 141.947 334.883C5.693 365.263 -108.607 411.205 -201.77 494.293" stroke="#1C64EB" stroke-width="0.864782" stroke-miterlimit="10"/>
<path d="M1428.83 1136.35C1456.5 1042.26 1434.27 942.114 1379.23 835.081C1364.71 806.842 1347.57 778.643 1321.78 759.542C1246.77 703.699 1143.84 729.825 1061.95 739.899C976.685 750.383 890.165 765.147 798.751 774.282C787.742 775.382 776.725 776.465 765.683 777.408C709.403 782.22 645.963 782.143 602.647 747.52C558.643 712.454 550.809 656.479 539.476 606.699C526.255 548.634 504.408 490.01 465.194 439.863C425.745 389.422 367.053 348.167 301.246 335.811C256.252 327.344 210.918 332.287 167.715 340.856C161.012 342.171 154.408 343.731 147.788 345.04C11.1966 372.016 -99.3963 410.179 -189.232 490.301" stroke="#1C64EB" stroke-width="0.864782" stroke-miterlimit="10"/>
<path d="M1433.03 1132.52C1459.68 1041.9 1434.37 946.739 1377.81 839.141C1363.17 811.293 1346.2 783.435 1320.88 764.392C1247.09 708.559 1146.74 731.638 1065.57 740.274C981.823 749.183 896.38 762.9 805.192 771.399C794.293 772.415 783.387 773.436 772.457 774.315C716.734 778.799 654.123 778.652 610.906 745.272C566.967 711.461 557.92 657.543 545.459 609.612C530.917 553.67 508.071 497.175 468.544 448.829C428.709 400.106 370.347 360.211 305.326 347.902C260.776 339.439 215.972 343.782 173.315 351.465C166.69 352.638 160.17 354.089 153.631 355.211C16.649 378.751 -90.1817 409.162 -176.69 486.317" stroke="#1C64EB" stroke-width="0.864782" stroke-miterlimit="10"/>
<path d="M1437.23 1128.68C1462.85 1041.55 1434.49 951.362 1376.38 843.204C1361.62 815.739 1344.83 788.225 1319.97 769.244C1247.41 713.42 1149.63 733.461 1069.19 740.647C986.969 747.99 902.586 760.649 811.627 768.518C800.837 769.452 790.044 770.405 779.224 771.227C724.058 775.384 662.275 775.167 619.155 743.025C575.283 710.473 565.02 658.607 551.432 612.524C535.564 558.705 511.723 504.345 471.888 457.797C431.661 410.791 373.641 372.255 309.4 359.994C265.296 351.543 221.024 355.286 178.914 362.078C172.37 363.112 165.934 364.442 159.477 365.387C22.0553 385.463 -80.9614 408.155 -164.146 482.342" stroke="#1C64EB" stroke-width="0.864782" stroke-miterlimit="10"/>
<path d="M1441.43 1124.84C1466.03 1041.2 1434.63 955.979 1374.96 847.265C1360.09 820.187 1343.42 793.065 1319.07 774.094C1247.62 718.421 1152.54 735.293 1072.82 741.02C992.136 746.816 908.808 758.405 818.071 765.637C807.391 766.486 796.71 767.378 786.001 768.135C731.391 771.969 670.434 771.675 627.419 740.775C583.612 709.478 572.134 659.664 557.426 615.432C540.233 563.737 515.393 511.506 475.25 466.761C434.626 421.474 376.951 384.3 313.498 372.081C269.835 363.638 226.112 366.864 184.533 372.678C178.068 373.581 171.713 374.786 165.338 375.553C27.4268 392.125 -71.7281 407.131 -151.587 478.356" stroke="#1C64EB" stroke-width="0.864782" stroke-miterlimit="10"/>
<path d="M1445.63 1121.01C1469.2 1040.84 1434.78 960.595 1373.53 851.327C1358.56 824.629 1342.04 797.864 1318.16 778.942C1247.92 723.293 1155.46 737.135 1076.44 741.394C997.296 745.659 915.016 756.17 824.506 762.751C813.935 763.52 803.366 764.346 792.765 765.036C738.712 768.544 678.584 768.18 635.664 738.522C591.927 708.481 579.224 660.716 563.396 618.341C544.875 568.763 519.036 518.676 478.592 475.723C437.572 432.157 380.238 396.343 317.572 384.17C274.351 375.736 231.161 378.367 190.131 383.287C183.746 384.054 177.468 385.133 171.184 385.725C32.7321 398.744 -62.5115 406.117 -139.042 474.374" stroke="#1C64EB" stroke-width="0.864782" stroke-miterlimit="10"/>
<path d="M1449.82 1117.17C1472.37 1040.49 1434.96 965.205 1372.1 855.392C1357.03 829.074 1340.66 802.664 1317.25 783.797C1248.23 728.173 1158.39 738.993 1080.06 741.769C1002.47 744.518 921.234 753.934 830.943 759.872C820.481 760.559 810.024 761.321 799.536 761.946C746.045 765.128 686.736 764.69 643.922 736.275C600.248 707.492 586.327 661.774 569.378 621.255C549.525 573.794 522.684 525.845 481.946 484.696C440.518 442.85 383.54 408.397 321.658 396.265C278.88 387.836 236.221 389.881 195.742 393.902C189.434 394.528 183.237 395.481 177.038 395.901C38.0095 405.319 -53.2848 405.102 -126.485 470.397" stroke="#1C64EB" stroke-width="0.864782" stroke-miterlimit="10"/>
<path d="M1454.02 1113.34C1475.54 1040.14 1435.14 969.815 1370.66 859.463C1355.51 833.524 1339.28 807.468 1316.34 788.659C1248.52 733.054 1161.32 740.876 1083.68 742.152C1007.65 743.406 927.441 751.713 837.374 756.995C827.025 757.603 816.672 758.296 806.299 758.862C753.364 761.722 694.884 761.213 652.166 734.036C608.561 706.509 593.414 662.835 575.348 624.175C554.158 578.828 526.316 533.027 485.283 493.672C443.447 453.547 386.821 420.454 325.725 408.368C283.39 399.948 241.265 401.398 201.331 404.523C195.104 405.009 188.98 405.833 182.867 406.088C43.2176 411.852 -44.0795 404.103 -113.956 466.428" stroke="#1C64EB" stroke-width="0.864782" stroke-miterlimit="10"/>
<path d="M1458.21 1109.5C1478.71 1039.79 1435.34 974.415 1369.24 863.528C1353.99 837.961 1337.9 812.267 1315.43 793.513C1248.83 737.93 1164.27 742.765 1087.3 742.527C1012.84 742.3 933.659 749.491 843.812 754.115C833.571 754.642 823.33 755.27 813.07 755.771C760.692 758.303 703.037 757.722 660.424 731.788C616.884 705.516 600.508 663.889 581.33 627.089C558.801 583.85 529.952 540.2 488.637 502.645C446.39 464.239 390.125 432.504 329.814 420.469C287.921 412.059 246.33 412.914 206.945 415.143C200.796 415.489 194.748 416.185 188.729 416.272C48.4232 418.317 -34.8471 403.099 -101.395 462.456" stroke="#1C64EB" stroke-width="0.864782" stroke-miterlimit="10"/>
<path d="M1462.41 1105.67C1481.88 1039.44 1435.57 979.007 1367.8 867.592C1352.48 842.399 1336.52 817.065 1314.52 798.368C1249.13 742.8 1167.21 744.671 1090.92 742.906C1018.04 741.224 939.868 747.277 850.243 751.238C840.111 751.685 829.982 752.248 819.83 752.682C768.01 754.887 711.233 754.151 668.665 729.544C625.244 704.443 607.581 664.946 587.3 630.009C563.421 588.88 533.574 547.384 491.976 511.619C449.309 474.939 393.408 444.559 333.885 432.566C292.433 424.164 251.372 424.423 212.536 425.758C206.467 425.967 200.492 426.521 194.563 426.447C53.5765 424.71 -25.6397 402.082 -88.8612 458.475" stroke="#1C64EB" stroke-width="0.864782" stroke-miterlimit="10"/>
<path d="M1466.6 1101.83C1485.06 1039.09 1435.81 983.589 1366.37 871.657C1350.98 846.835 1335.14 821.86 1313.61 803.223C1249.45 747.672 1170.18 746.594 1094.55 743.283C1023.25 740.162 946.093 745.062 856.686 748.355C846.667 748.723 836.647 749.219 826.607 749.588C775.342 751.47 719.393 750.653 676.93 727.293C633.575 703.442 614.668 665.993 593.289 632.917C568.061 593.897 537.211 554.554 495.337 520.586C452.246 485.629 396.718 456.608 337.977 444.659C296.969 436.263 256.436 435.929 218.153 436.371C212.161 436.439 206.258 436.854 200.421 436.626C58.7276 431.034 -16.41 401.072 -76.3033 454.496" stroke="#1C64EB" stroke-width="0.864782" stroke-miterlimit="10"/>
<path d="M1470.8 1098C1488.22 1038.74 1436.08 988.163 1364.94 875.725C1349.47 851.275 1333.75 826.661 1312.7 808.081C1249.75 752.543 1173.14 748.538 1098.16 743.661C1028.45 739.123 952.308 742.858 863.117 745.477C853.205 745.768 843.298 746.195 833.369 746.503C782.662 748.059 727.544 747.167 685.175 725.049C641.885 702.454 621.737 667.047 599.259 635.836C572.672 598.922 540.821 561.742 498.674 529.563C455.153 496.333 400.003 468.668 342.044 456.764C301.478 448.376 261.475 447.446 223.741 446.993C217.831 446.922 211.999 447.198 206.257 446.811C63.8414 437.286 -7.1972 400.066 -63.7682 450.524" stroke="#1C64EB" stroke-width="0.864782" stroke-miterlimit="10"/>
<path d="M1475 1094.16C1491.4 1038.38 1436.36 992.728 1363.51 879.791C1347.98 855.707 1332.38 831.455 1311.79 812.937C1250.06 757.41 1176.11 750.506 1101.78 744.041C1033.67 738.112 958.525 740.66 869.552 742.601C859.753 742.813 849.951 743.171 840.138 743.416C789.989 744.644 735.696 743.676 693.43 722.809C650.207 701.464 628.809 668.107 605.238 638.759C577.286 603.954 544.438 568.938 502.024 538.546C458.07 507.051 403.298 480.732 346.131 468.872C306.007 460.493 266.533 458.967 229.355 457.616C223.522 457.404 217.76 457.531 212.113 456.996C68.9663 443.462 2.03077 399.06 -51.2076 446.551" stroke="#1C64EB" stroke-width="0.864782" stroke-miterlimit="10"/>
<path d="M1479.19 1090.32C1494.57 1038.04 1436.67 997.279 1362.08 883.856C1346.48 860.134 1330.99 836.252 1310.88 817.793C1250.37 762.279 1179.08 752.497 1105.4 744.416C1038.88 737.121 964.742 738.463 875.986 739.716C866.299 739.853 856.607 740.136 846.901 740.318C797.308 741.223 743.841 740.179 701.676 720.553C658.517 700.462 635.862 669.151 611.209 641.662C581.887 608.968 548.042 576.117 505.369 547.505C460.977 517.743 406.593 492.769 350.207 480.958C310.53 472.586 271.582 470.461 234.951 468.219C229.195 467.866 223.508 467.846 217.951 467.165C74.0734 449.531 11.2415 398.035 -38.6701 442.561" stroke="#1C64EB" stroke-width="0.864782" stroke-miterlimit="10"/>
<path d="M1483.39 1086.49C1497.74 1037.68 1436.99 1001.82 1360.65 887.923C1344.99 864.565 1329.62 841.047 1309.97 822.646C1250.69 767.138 1182.07 754.507 1109.02 744.788C1044.1 736.15 970.968 736.268 882.424 736.832C872.848 736.894 863.266 737.106 853.673 737.223C804.637 737.801 751.99 736.683 709.933 718.305C666.838 699.474 642.924 670.208 617.195 644.58C586.491 613.997 551.654 583.312 508.721 556.481C463.884 528.459 409.89 504.826 354.29 493.061C315.056 484.699 276.639 481.973 240.559 478.842C234.881 478.348 229.266 478.174 223.807 477.351C79.2028 455.533 20.4735 397.031 -26.1141 438.587" stroke="#1C64EB" stroke-width="0.864782" stroke-miterlimit="10"/>
<path d="M1487.58 1082.66C1500.91 1037.34 1437.33 1006.35 1359.21 891.997C1343.5 869 1328.24 845.85 1309.05 827.51C1250.99 772.012 1185.03 756.555 1112.64 745.176C1049.31 735.22 977.179 734.098 888.853 733.959C879.384 733.944 869.916 734.087 860.433 734.143C811.955 734.394 760.133 733.204 718.177 716.066C675.146 698.49 649.962 671.276 623.162 647.505C591.07 619.041 555.248 590.526 512.06 565.468C466.774 539.193 413.177 516.896 358.366 505.173C319.573 496.82 281.683 493.491 246.16 489.473C240.564 488.839 235.018 488.507 229.651 487.543C84.3357 461.451 29.6904 396.028 -13.5703 434.619" stroke="#1C64EB" stroke-width="0.864782" stroke-miterlimit="10"/>
<path d="M1491.77 1078.82C1504.07 1036.99 1437.69 1010.87 1357.78 896.065C1342.02 873.42 1326.86 850.647 1308.14 832.369C1251.31 776.872 1188.01 758.627 1116.26 745.553C1054.52 734.301 983.398 731.92 895.289 731.08C885.931 730.99 876.573 731.062 867.203 731.053C819.281 730.981 768.284 729.714 726.434 713.819C683.462 697.5 657.012 672.338 629.145 650.418C595.661 624.081 558.848 597.728 515.41 574.44C469.674 549.917 416.471 528.949 362.447 517.273C324.096 508.929 286.739 504.995 251.762 500.09C246.243 499.315 240.775 498.827 235.494 497.726C89.494 467.27 38.905 395.018 -1.02724 430.64" stroke="#1C64EB" stroke-width="0.864782" stroke-miterlimit="10"/>
<path d="M1495.97 1074.99C1507.24 1036.63 1438.08 1015.37 1356.35 900.132C1340.54 877.84 1325.48 855.442 1307.22 837.224C1251.62 781.734 1190.97 760.724 1119.88 745.929C1059.73 733.408 989.619 729.749 901.721 728.199C892.474 728.034 883.222 728.033 873.968 727.961C826.603 727.562 776.43 726.227 734.681 711.573C691.774 696.509 664.047 673.415 635.116 653.336C600.233 629.128 562.436 604.946 518.754 583.415C472.566 560.649 419.764 541.008 366.521 529.376C328.614 521.037 291.784 516.501 257.361 510.712C251.92 509.795 246.527 509.147 241.341 507.911C94.6907 472.995 48.1257 394.007 11.5203 426.664" stroke="#1C64EB" stroke-width="0.864782" stroke-miterlimit="10"/>
<path d="M1500.16 1071.15C1510.41 1036.29 1438.48 1019.86 1354.92 904.2C1339.06 882.264 1324.1 860.239 1306.31 842.083C1251.94 786.591 1193.92 762.856 1123.5 746.306C1064.93 732.543 995.837 727.586 908.158 725.316C899.021 725.079 889.88 725.004 880.734 724.864C833.928 724.138 784.577 722.735 742.935 709.32C700.09 695.519 671.087 674.489 641.094 656.248C604.812 634.183 566.03 612.161 522.103 592.389C475.454 571.389 423.057 553.063 370.603 541.474C333.138 533.144 296.841 528.003 262.964 521.327C257.604 520.271 252.284 519.455 247.187 518.087C99.927 478.621 57.3479 392.992 24.0711 422.679" stroke="#1C64EB" stroke-width="0.864782" stroke-miterlimit="10"/>
<path d="M1504.35 1067.31C1513.58 1035.93 1438.91 1024.33 1353.48 908.271C1337.59 886.683 1322.72 865.036 1305.4 846.945C1252.26 791.452 1196.87 765.025 1127.11 746.691C1070.12 731.709 1002.05 725.441 914.586 722.444C905.56 722.132 896.529 721.986 887.495 721.781C841.244 720.732 792.718 719.257 751.182 707.084C708.4 694.543 678.119 675.584 647.071 659.175C609.383 639.26 569.619 619.405 525.447 601.376C478.339 582.15 426.352 565.13 374.683 553.591C337.659 545.27 301.893 539.519 268.569 531.963C263.287 530.766 258.043 529.785 253.037 528.291C105.221 484.182 66.5703 392.003 36.6222 418.72" stroke="#1C64EB" stroke-width="0.864782" stroke-miterlimit="10"/>
<path d="M1508.54 1063.48C1516.75 1035.59 1439.35 1028.78 1352.05 912.342C1336.12 891.101 1321.35 869.833 1304.49 851.806C1252.58 796.309 1199.8 767.225 1130.73 747.071C1075.3 730.895 1008.27 723.296 921.021 719.566C912.105 719.184 903.185 718.962 894.262 718.697C848.569 717.321 800.864 715.781 759.432 704.841C716.712 693.564 685.15 676.681 653.045 662.097C613.953 644.338 573.204 626.644 528.793 610.361C481.227 592.918 429.646 577.199 378.759 565.705C342.178 557.393 306.942 551.03 274.166 542.594C268.961 541.255 263.801 540.106 258.878 538.483C110.565 489.644 75.7846 390.997 49.1635 414.749" stroke="#1C64EB" stroke-width="0.864782" stroke-miterlimit="10"/>
<path d="M1512.74 1059.64C1519.91 1035.24 1439.82 1033.21 1350.61 916.411C1334.65 895.51 1319.97 874.627 1303.57 856.666C1252.91 801.167 1202.71 769.46 1134.34 747.449C1080.46 730.102 1014.48 721.153 927.452 716.683C918.646 716.23 909.837 715.933 901.027 715.603C855.896 713.901 809.014 712.294 767.685 702.591C725.026 692.577 692.19 677.782 659.022 665.012C618.532 649.421 576.791 633.89 532.138 619.333C484.112 603.681 432.936 589.253 382.837 577.801C346.7 569.494 311.998 562.527 279.772 553.205C274.646 551.72 269.564 550.402 264.727 548.655C115.978 495.001 85.0053 389.976 61.7129 410.758" stroke="#1C64EB" stroke-width="0.864782" stroke-miterlimit="10"/>
<path d="M1516.93 1055.81C1523.08 1034.88 1440.31 1037.63 1349.17 920.482C1333.18 899.924 1318.6 879.426 1302.66 861.525C1253.24 806.018 1205.59 771.727 1137.96 747.831C1085.61 729.334 1020.69 719.027 933.886 713.809C925.189 713.284 916.493 712.909 907.79 712.515C863.215 710.49 817.14 708.89 775.929 700.349C733.321 691.676 699.22 678.896 664.992 667.932C623.1 654.517 580.376 641.143 535.48 628.316C486.996 614.461 436.227 601.32 386.911 589.913C351.215 581.616 317.045 574.033 285.366 563.834C280.322 562.21 275.32 560.718 270.567 558.851C121.461 500.299 94.2238 388.977 74.2542 406.791" stroke="#1C64EB" stroke-width="0.864782" stroke-miterlimit="10"/>
<path d="M1521.12 1051.94C1526.24 1034.51 1440.83 1041.99 1347.74 924.529C1331.71 904.308 1317.22 884.201 1301.74 866.365C1253.57 810.857 1208.45 774.013 1141.58 748.196C1090.73 728.567 1026.91 716.891 940.322 710.914C931.74 710.32 923.147 709.866 914.56 709.409C870.543 707.057 825.298 705.386 784.188 698.087C741.645 690.674 706.274 679.995 670.977 670.838C627.695 659.609 583.976 648.396 538.838 637.286C489.897 625.239 439.53 613.374 391.005 602.015C355.757 593.729 322.119 585.532 290.987 574.456C286.021 572.691 281.11 571.025 276.431 569.035C127.052 505.509 103.462 387.976 86.8218 402.819" stroke="#1C64EB" stroke-width="0.864782" stroke-miterlimit="10"/>
<path d="M1525.31 1048.07C1529.41 1034.12 1441.36 1046.33 1346.3 928.573C1330.26 908.691 1315.85 888.967 1300.83 871.203C1253.91 815.683 1211.29 776.328 1145.2 748.559C1095.85 727.824 1033.13 714.763 946.767 708.022C938.293 707.362 929.813 706.828 921.337 706.311C877.878 703.632 833.459 701.889 792.449 695.835C749.975 689.679 713.332 681.109 676.967 673.754C632.294 664.715 587.586 655.662 542.198 646.261C492.806 636.034 442.842 625.43 395.1 614.117C360.294 605.84 327.193 597.03 296.609 585.078C291.721 583.167 286.899 581.331 282.296 579.218C132.726 510.652 112.703 386.97 99.3939 398.849" stroke="#1C64EB" stroke-width="0.864782" stroke-miterlimit="10"/>
<path d="M1529.5 1044.2C1532.57 1033.74 1441.92 1050.65 1344.87 932.614C1328.8 913.065 1314.51 893.714 1299.92 876.039C1254.35 820.44 1214.09 778.674 1148.82 748.924C1100.93 727.091 1039.34 712.644 953.201 705.132C944.837 704.401 936.469 703.792 928.105 703.21C885.203 700.208 841.615 698.39 800.706 693.578C758.298 688.678 720.389 682.223 682.952 676.66C636.9 669.816 591.196 662.929 545.556 655.23C495.711 646.827 446.145 637.483 399.191 626.216C364.829 617.945 332.285 608.473 302.222 595.697C297.419 593.638 292.682 591.63 288.155 589.404C138.487 515.735 121.936 385.973 111.956 394.881" stroke="#1C64EB" stroke-width="0.864782" stroke-miterlimit="10"/>
<path d="M1533.69 1040.33C1535.74 1033.36 1442.5 1054.94 1343.44 936.658C1327.34 917.437 1313.13 898.488 1299.01 880.876C1254.67 825.287 1216.85 781.056 1152.44 749.287C1105.99 726.373 1045.56 710.537 959.643 702.236C951.387 701.438 943.132 700.751 934.877 700.101C892.533 696.772 849.77 694.883 808.963 691.312C766.62 687.667 727.455 683.332 688.934 679.56C641.507 674.916 594.808 670.191 548.907 664.192C498.621 657.621 449.446 649.529 403.275 638.308C369.355 630.047 337.343 619.974 307.833 606.309C303.107 604.109 298.465 601.929 294.009 599.578C144.332 520.746 131.17 384.963 124.513 390.903" stroke="#1C64EB" stroke-width="0.864782" stroke-miterlimit="10"/>
<path d="M1537.88 1036.46C1538.91 1032.98 1443.11 1059.21 1342.01 940.706C1325.89 921.813 1311.75 903.272 1298.1 885.718C1254.98 830.144 1219.57 783.473 1156.07 749.656C1111.02 725.669 1051.76 708.547 966.086 699.351C957.939 698.496 949.796 697.719 941.653 697.005C899.868 693.349 857.934 691.389 817.227 689.063C774.953 686.68 734.534 684.508 694.924 682.477C646.128 680.094 598.427 677.561 552.271 673.172C501.542 668.525 452.76 661.594 407.378 650.416C373.901 642.164 342.427 631.489 313.458 616.936C308.81 614.595 304.266 612.234 299.877 609.767C150.293 525.723 140.413 383.971 137.086 386.937" stroke="#1C64EB" stroke-width="0.864782" stroke-miterlimit="10"/>
<path d="M1542.07 1032.6C1542.07 1032.6 1443.73 1063.45 1340.57 944.747C1237.41 826.041 1218.93 724.983 972.522 696.459C726.113 667.934 481.407 715.769 319.073 627.549C156.738 539.33 149.65 382.968 149.65 382.968" stroke="#1C64EB" stroke-width="0.864782" stroke-miterlimit="10"/>
<path d="M1658.06 1030.4C1658.34 991.444 1627.46 955.887 1590.48 938.07C1553.49 920.254 1511.37 916.922 1470.57 915.914C1386.2 913.82 1301.93 920.214 1217.63 913.675C1133.33 907.136 1046.88 886.35 978.689 836.38C936.76 805.658 903.244 765.049 860.011 736.076C773.323 677.975 662.019 674.789 561.186 646.684C484.898 625.418 470.812 581.374 449.841 516.246C429.484 453.023 384.399 396.553 325.668 360.714C266.938 324.876 195.097 310.001 127.798 319.74" stroke="#1C64EB" stroke-width="0.864782" stroke-miterlimit="10"/>
<path d="M1661.35 1026.22C1659.3 988.759 1627.09 954.083 1589.03 937.176C1550.89 920.282 1507.74 917.322 1465.86 916.191C1381.13 913.973 1296.41 919.225 1212.51 910.868C1128.84 902.723 1043.9 880.034 975.659 830.044C933.873 799.432 900.006 759.58 856.732 731.096C770.017 674.001 659.379 670.447 558.972 642.406C483.142 621.233 467.531 577.815 445.516 513.605C424.423 451.461 379.702 395.471 320.987 361.189C262.439 326.868 191.387 313.378 124.594 323.305" stroke="#1C64EB" stroke-width="0.864782" stroke-miterlimit="10"/>
<path d="M1664.65 1022.03C1660.27 986.079 1626.73 952.275 1587.59 936.278C1548.3 920.304 1504.13 917.713 1461.17 916.468C1376.07 914.123 1290.93 918.052 1207.4 908.06C1124.39 898.127 1040.93 873.71 972.646 823.702C930.997 793.202 896.786 754.1 853.466 726.108C766.73 670.02 656.757 666.098 556.768 638.124C481.398 617.044 464.064 574.316 441.203 510.955C419.192 449.947 375.019 394.381 316.316 361.649C257.946 328.845 187.682 316.739 121.401 326.856" stroke="#1C64EB" stroke-width="0.864782" stroke-miterlimit="10"/>
<path d="M1667.94 1017.84C1661.23 983.392 1626.37 950.468 1586.15 935.379C1545.7 920.328 1500.5 918.108 1456.46 916.741C1371 914.271 1285.43 916.973 1202.29 905.245C1119.92 893.626 1037.95 867.385 969.62 817.354C928.115 786.964 893.557 748.619 850.19 721.119C763.428 666.037 654.122 661.742 554.555 633.842C479.644 612.855 460.695 570.788 436.876 508.308C414.04 448.41 370.236 393.436 311.627 362.115C253.36 330.975 183.959 320.11 118.189 330.417" stroke="#1C64EB" stroke-width="0.864782" stroke-miterlimit="10"/>
<path d="M1671.24 1013.66C1662.2 980.711 1626 948.658 1584.7 934.483C1543.1 920.353 1496.88 918.501 1451.75 917.021C1365.93 914.424 1279.93 915.91 1197.18 902.437C1115.46 889.137 1034.98 861.064 966.601 811.014C925.235 780.732 890.332 743.141 846.923 716.135C760.134 662.058 651.495 657.395 552.352 629.56C477.9 608.666 457.342 567.257 432.562 505.662C408.917 446.877 365.531 392.398 306.954 362.579C248.848 333 180.258 323.476 114.994 333.972" stroke="#1C64EB" stroke-width="0.864782" stroke-miterlimit="10"/>
<path d="M1674.53 1009.48C1663.16 978.029 1625.64 946.857 1583.26 933.59C1540.5 920.381 1493.25 918.902 1447.04 917.302C1360.85 914.578 1274.43 914.851 1192.05 899.631C1110.99 884.656 1031.99 854.745 963.567 804.674C922.342 774.505 887.09 737.667 843.64 711.15C756.83 658.08 648.853 653.044 550.132 625.282C476.139 604.481 453.975 563.737 428.232 503.02C403.778 445.347 360.811 391.361 302.267 363.053C244.325 335.038 176.538 326.85 111.784 337.54" stroke="#1C64EB" stroke-width="0.864782" stroke-miterlimit="10"/>
<path d="M1677.83 1005.29C1664.12 975.348 1625.3 944.957 1581.82 932.695C1537.93 920.317 1489.63 919.301 1442.34 917.578C1355.79 914.73 1268.95 913.793 1186.94 896.825C1106.54 880.184 1029.02 848.425 960.556 798.341C919.47 768.28 883.872 732.196 840.376 706.171C753.54 654.106 646.229 648.702 547.933 621.005C474.399 600.296 450.638 560.217 423.921 500.379C398.667 443.822 356.117 390.322 297.596 363.526C239.819 337.07 172.837 330.23 108.591 341.104" stroke="#1C64EB" stroke-width="0.864782" stroke-miterlimit="10"/>
<path d="M1681.12 1001.1C1665.09 972.661 1624.93 943.14 1580.37 931.796C1535.33 920.33 1486.01 919.692 1437.63 917.856C1350.72 914.881 1263.45 912.745 1181.83 894.014C1102.08 875.711 1026.04 842.103 957.528 791.997C916.585 762.046 880.637 726.718 837.1 701.182C750.237 650.124 643.592 644.351 545.719 616.723C472.644 596.108 447.296 556.695 419.595 497.728C393.551 442.286 351.407 389.273 292.911 363.984C235.306 339.085 169.118 333.589 105.382 344.657" stroke="#1C64EB" stroke-width="0.864782" stroke-miterlimit="10"/>
<path d="M1684.42 996.916C1666.05 969.981 1624.57 941.325 1578.93 930.901C1532.72 920.349 1482.39 919.992 1432.93 918.132C1345.66 914.855 1257.97 911.702 1176.72 891.204C1097.63 871.25 1023.07 835.783 954.511 785.653C913.707 755.811 877.414 721.237 833.832 696.198C746.946 646.141 640.966 640 543.512 612.44C470.894 591.921 443.961 553.172 415.277 495.081C388.449 440.752 346.713 388.222 288.236 364.453C230.805 341.107 165.415 336.96 102.181 348.215" stroke="#1C64EB" stroke-width="0.864782" stroke-miterlimit="10"/>
<path d="M1687.71 992.734C1667.02 967.298 1624.2 939.514 1577.49 930.008C1530.13 920.373 1478.77 920.383 1428.22 918.415C1340.59 915.004 1252.48 910.677 1171.6 888.399C1093.17 866.797 1020.09 829.462 951.487 779.315C910.824 749.586 874.185 715.766 830.555 691.214C743.646 642.164 638.328 635.653 541.297 608.162C469.139 587.736 440.628 549.654 410.952 492.44C383.344 439.225 342.012 387.176 283.552 364.921C226.3 343.126 161.696 340.333 98.9746 351.774" stroke="#1C64EB" stroke-width="0.864782" stroke-miterlimit="10"/>
<path d="M1691 988.546C1667.98 964.616 1623.84 937.699 1576.04 929.112C1527.53 920.393 1475.15 920.773 1423.52 918.694C1335.53 915.148 1247 909.652 1166.49 885.592C1088.72 862.356 1017.11 823.146 948.465 772.979C907.942 743.358 870.958 710.293 827.285 686.234C740.351 638.19 635.7 631.306 539.09 603.888C467.391 583.556 437.314 546.14 406.63 489.801C378.254 437.696 337.316 386.128 278.87 365.396C221.799 345.147 157.985 343.71 95.7687 355.343" stroke="#1C64EB" stroke-width="0.864782" stroke-miterlimit="10"/>
<path d="M1694.3 984.36C1668.95 961.931 1623.47 935.889 1574.6 928.216C1524.93 920.412 1471.52 921.164 1418.82 918.97C1330.46 915.293 1241.51 908.627 1161.38 882.784C1084.27 857.913 1014.14 816.823 945.443 766.638C905.062 737.127 867.729 704.813 824.014 681.248C737.053 634.209 633.068 626.957 536.883 599.604C465.643 579.365 434.005 542.613 402.312 487.153C373.174 436.16 332.631 385.07 274.197 365.86C217.307 347.157 154.279 347.075 92.5745 358.898" stroke="#1C64EB" stroke-width="0.864782" stroke-miterlimit="10"/>
<path d="M1697.6 980.172C1669.91 959.248 1623.11 934.08 1573.16 927.317C1522.32 920.433 1467.9 921.555 1414.11 919.247C1325.39 915.439 1236.02 907.614 1156.26 879.973C1079.81 853.479 1011.15 810.5 942.416 760.293C902.172 730.894 864.494 699.335 820.736 676.263C733.75 630.23 630.432 622.606 534.668 595.326C463.888 575.18 430.7 539.091 397.989 484.507C368.093 434.623 327.94 384.009 269.513 366.328C212.812 349.165 150.565 350.449 89.3667 362.461" stroke="#1C64EB" stroke-width="0.864782" stroke-miterlimit="10"/>
<path d="M1700.89 975.99C1670.87 956.572 1622.74 932.274 1571.71 926.425C1519.72 920.462 1464.28 921.953 1409.4 919.527C1320.32 915.594 1230.53 906.611 1151.15 877.166C1075.36 849.053 1008.18 804.18 939.401 753.956C899.301 724.666 861.273 693.859 817.469 671.279C730.46 626.253 627.804 618.259 532.465 591.044C462.144 570.991 427.407 535.561 393.675 481.862C363.033 433.086 323.262 382.945 264.84 366.792C208.328 351.169 146.859 353.814 86.1722 366.016" stroke="#1C64EB" stroke-width="0.864782" stroke-miterlimit="10"/>
<path d="M1704.18 971.802C1671.84 953.885 1622.37 930.467 1570.27 925.528C1517.12 920.49 1460.66 922.347 1404.7 919.806C1315.26 915.747 1225.05 905.615 1146.03 874.357C1070.9 844.636 1005.2 797.86 936.378 747.614C896.416 718.432 858.042 688.383 814.197 666.292C727.162 622.273 625.171 613.91 530.256 586.764C460.394 566.804 424.124 532.034 389.351 479.217C357.968 431.547 318.579 381.878 260.156 367.261C203.835 353.17 143.141 357.183 82.9654 369.575" stroke="#1C64EB" stroke-width="0.864782" stroke-miterlimit="10"/>
<path d="M1707.48 967.617C1672.8 951.204 1622.01 928.661 1568.83 924.628C1514.52 920.511 1457.04 922.736 1400 920.082C1310.19 915.902 1219.56 904.62 1140.92 871.551C1066.44 840.225 1002.23 791.543 933.357 741.278C893.537 712.21 854.819 682.911 810.928 661.312C723.867 618.298 622.544 609.563 528.052 582.486C458.648 562.619 420.846 528.506 385.036 476.576C352.924 430.007 313.902 380.809 255.484 367.735C199.353 355.17 139.439 360.564 79.7701 373.144" stroke="#1C64EB" stroke-width="0.864782" stroke-miterlimit="10"/>
<path d="M1710.78 963.428C1673.77 948.517 1621.64 926.853 1567.38 923.73C1511.92 920.537 1453.41 923.131 1395.29 920.355C1305.12 916.05 1214.06 903.629 1135.81 868.736C1061.97 835.809 999.251 785.214 930.331 734.93C890.65 705.97 851.585 677.429 807.652 656.324C720.571 614.313 619.907 605.212 525.838 578.204C456.894 558.43 417.572 524.968 380.712 473.93C347.873 428.459 309.218 379.732 250.801 368.199C194.866 357.157 135.723 363.929 76.5609 376.697" stroke="#1C64EB" stroke-width="0.864782" stroke-miterlimit="10"/>
<path d="M1714.07 959.247C1674.73 945.839 1621.27 925.057 1565.94 922.838C1509.32 920.571 1449.79 923.533 1390.58 920.638C1300.06 916.213 1208.56 902.656 1130.7 865.933C1057.51 831.414 996.273 778.9 927.311 728.594C887.773 699.744 848.359 671.955 804.379 651.342C717.272 610.336 617.275 600.864 523.625 573.923C455.144 554.243 414.305 521.425 376.386 471.279C342.832 426.901 304.536 378.642 246.114 368.662C190.376 359.14 132.008 367.294 73.3503 380.255" stroke="#1C64EB" stroke-width="0.864782" stroke-miterlimit="10"/>
<path d="M1717.36 955.059C1675.69 943.153 1620.9 923.249 1564.49 921.94C1506.71 920.598 1446.16 923.929 1385.87 920.916C1294.98 916.374 1203.05 901.684 1125.58 863.123C1053.03 827.017 993.293 772.576 924.283 722.251C884.882 693.513 845.123 666.478 801.102 646.354C713.969 606.354 614.638 596.513 521.411 569.642C453.389 550.055 411.044 517.879 372.062 468.634C337.794 425.344 299.856 377.553 241.435 369.128C185.891 361.12 128.294 370.665 70.1494 383.812" stroke="#1C64EB" stroke-width="0.864782" stroke-miterlimit="10"/>
<path d="M1720.66 950.873C1676.66 940.472 1620.54 921.449 1563.05 921.045C1504.12 920.634 1442.55 924.449 1381.17 921.193C1289.92 916.705 1197.56 900.716 1120.47 860.314C1048.57 822.627 990.322 766.255 921.269 715.913C882.011 687.285 841.902 661.002 797.839 641.371C710.68 602.377 612.015 592.168 519.211 565.365C451.648 545.872 407.805 514.332 367.751 465.994C332.78 423.793 295.192 376.465 236.763 369.602C181.417 363.099 124.594 374.042 66.956 387.377" stroke="#1C64EB" stroke-width="0.864782" stroke-miterlimit="10"/>
<path d="M1723.96 946.686C1677.62 937.786 1620.18 919.75 1561.61 920.148C1501.52 920.769 1438.93 924.841 1376.47 921.472C1284.85 916.858 1192.05 899.756 1115.36 857.509C1044.09 818.244 987.346 759.936 918.244 709.574C879.125 681.054 838.67 655.53 794.56 636.391C707.379 598.404 609.377 587.821 516.996 561.087C449.893 541.687 404.558 510.776 363.426 463.353C327.756 422.231 290.511 375.37 232.079 370.07C176.931 365.073 120.877 377.41 63.7482 390.94" stroke="#1C64EB" stroke-width="0.864782" stroke-miterlimit="10"/>
<path d="M1727.25 942.503C1678.58 935.108 1619.81 917.948 1560.16 919.255C1498.92 920.796 1435.3 925.242 1371.76 921.75C1279.78 917.01 1186.53 898.8 1110.24 854.7C1039.6 813.865 984.364 753.616 915.225 703.234C876.25 674.824 835.444 650.052 791.293 631.406C704.086 594.425 606.749 583.474 514.792 556.809C448.147 537.502 401.331 507.21 359.106 460.71C322.746 420.657 285.833 374.267 227.403 370.543C172.451 367.04 117.172 380.785 60.5501 394.503" stroke="#1C64EB" stroke-width="0.864782" stroke-miterlimit="10"/>
<path d="M1730.55 938.317C1679.55 932.423 1619.45 916.138 1558.72 918.358C1496.32 920.826 1431.68 925.635 1367.06 922.029C1274.72 917.164 1181.01 897.847 1105.13 851.892C1035.12 809.49 981.388 747.297 912.202 696.893C873.363 668.594 832.218 644.578 788.021 626.42C700.788 590.445 604.118 579.121 512.584 552.525C446.399 533.311 398.103 503.634 354.79 458.058C317.739 419.074 281.157 373.146 222.726 371.005C167.962 368.994 113.456 384.15 57.3452 398.058" stroke="#1C64EB" stroke-width="0.864782" stroke-miterlimit="10"/>
<path d="M1733.84 934.129C1680.52 929.741 1619.09 914.332 1557.28 917.462C1493.72 920.85 1428.06 926.032 1362.35 922.309C1269.65 917.317 1175.48 896.9 1100.02 849.085C1030.63 805.119 978.417 740.976 909.183 690.552C870.488 662.364 828.993 639.1 784.754 621.435C697.495 586.465 601.491 574.773 510.38 548.247C444.653 529.125 394.887 500.054 350.475 455.416C312.743 417.491 276.482 372.035 218.052 371.473C163.488 370.95 109.753 387.52 54.1537 401.619" stroke="#1C64EB" stroke-width="0.864782" stroke-miterlimit="10"/>
<path d="M1737.14 929.943C1681.48 927.056 1618.72 912.521 1555.84 916.565C1491.13 920.875 1424.43 926.425 1357.65 922.584C1264.59 917.463 1169.95 895.958 1094.91 846.272C1026.13 800.744 975.437 734.652 906.16 684.21C867.604 656.13 825.763 633.619 781.478 616.447C694.198 582.48 598.854 570.423 508.168 543.961C442.901 524.932 391.667 496.457 346.148 452.765C307.739 415.89 271.795 370.904 213.365 371.935C158.989 372.89 106.037 390.885 50.9383 405.174" stroke="#1C64EB" stroke-width="0.864782" stroke-miterlimit="10"/>
<path d="M1740.43 925.759C1682.44 924.376 1618.36 910.72 1554.39 915.671C1488.52 920.904 1420.81 926.825 1352.94 922.866C1259.51 917.618 1164.41 895.02 1089.79 843.471C1021.63 796.387 972.458 728.337 903.133 677.877C864.718 649.91 822.528 628.152 778.201 611.473C690.895 578.512 596.218 566.082 505.954 539.694C441.145 520.758 388.452 492.872 341.823 450.134C302.738 414.305 267.105 369.792 208.685 372.416C154.499 374.848 102.323 394.27 47.7369 408.745" stroke="#1C64EB" stroke-width="0.864782" stroke-miterlimit="10"/>
<path d="M1743.73 921.574C1683.41 921.691 1618 908.912 1552.95 914.775C1485.93 920.928 1417.19 927.219 1348.24 923.141C1254.45 917.769 1158.87 894.083 1084.68 840.659C1017.12 792.019 969.479 722.013 900.112 671.531C861.836 643.673 819.301 622.668 774.931 606.483C687.599 574.528 593.588 561.729 503.742 535.408C439.393 516.566 385.241 489.255 337.503 447.481C297.745 412.69 262.417 368.652 204.004 372.876C150.003 376.781 98.6133 397.633 44.5338 412.297" stroke="#1C64EB" stroke-width="0.864782" stroke-miterlimit="10"/>
<path d="M1747.02 917.386C1684.37 919.009 1617.63 907.104 1551.51 913.875C1483.33 920.95 1413.57 927.613 1343.53 923.415C1249.38 917.916 1153.32 893.142 1079.56 837.845C1012.61 787.652 966.501 715.685 897.086 665.184C858.953 637.435 816.067 617.187 771.656 601.491C684.303 570.543 590.955 557.371 501.532 531.119C437.641 512.373 382.038 485.628 333.183 444.828C292.751 411.065 257.725 367.505 199.324 373.333C145.505 378.707 94.9006 400.99 41.3306 415.848" stroke="#1C64EB" stroke-width="0.864782" stroke-miterlimit="10"/>
<path d="M1750.32 913.2C1685.34 916.324 1617.27 905.295 1550.06 912.978C1480.73 920.974 1409.94 928.01 1338.82 923.694C1244.31 918.07 1147.77 892.213 1074.45 835.037C1008.09 783.294 963.529 709.368 894.065 658.847C856.07 631.211 812.844 611.715 768.383 596.509C681.003 566.566 588.325 553.027 499.321 526.843C435.889 508.19 378.834 482.004 328.857 442.186C287.759 409.445 253.026 366.365 194.642 373.807C141.002 380.646 91.1881 404.371 38.1265 419.413" stroke="#1C64EB" stroke-width="0.864782" stroke-miterlimit="10"/>
<path d="M1753.61 909.018C1686.3 913.647 1616.91 903.496 1548.62 912.086C1478.13 921.008 1406.32 928.408 1334.12 923.974C1239.24 918.223 1142.09 891.417 1069.33 832.233C1003.47 779.058 960.546 703.052 891.045 652.512C853.193 624.985 809.616 606.245 765.112 591.533C677.707 562.596 585.694 548.689 497.115 522.569C434.142 504.01 375.641 478.366 324.54 439.549C282.775 407.82 248.328 365.226 189.965 374.284C136.5 382.581 87.4777 407.748 34.9255 422.984" stroke="#1C64EB" stroke-width="0.864782" stroke-miterlimit="10"/>
<path d="M1756.91 904.829C1687.26 910.964 1616.54 901.683 1547.17 911.187C1475.53 921.03 1402.7 928.802 1329.41 924.251C1234.17 918.375 1136.58 890.422 1064.22 829.424C998.986 774.642 957.571 696.729 888.022 646.169C850.308 618.75 806.387 600.764 761.841 586.545C674.409 558.614 583.064 544.335 494.906 518.288C432.392 499.822 372.443 474.715 320.221 436.905C277.786 406.181 243.606 364.004 185.286 374.749C131.974 384.438 83.7707 411.116 31.7252 426.54" stroke="#1C64EB" stroke-width="0.864782" stroke-miterlimit="10"/>
<path d="M1760.21 900.644C1688.23 908.28 1616.18 899.879 1545.74 910.293C1472.94 921.058 1399.08 929.198 1324.71 924.532C1229.11 918.53 1131.07 889.437 1059.11 826.618C994.512 770.224 954.594 690.411 885.004 639.83C847.431 612.524 803.16 595.291 758.574 581.561C671.12 554.637 580.437 539.988 492.704 514.007C430.648 495.633 369.256 471.051 315.905 434.254C272.804 404.527 238.919 362.912 180.61 375.212C127.48 386.419 80.0593 414.484 28.5266 430.094" stroke="#1C64EB" stroke-width="0.864782" stroke-miterlimit="10"/>
</g>
</svg>
