<svg width="28" height="21" viewBox="0 0 28 21" fill="none" xmlns="http://www.w3.org/2000/svg">
<path d="M14 15.75C13.0703 15.75 12.1953 15.4766 11.4297 14.875L0 5.96094V18.375C0 19.7969 1.20312 21 2.625 21H25.375C26.7969 21 28 19.7969 28 18.375V5.96094L16.5703 14.875C15.8047 15.4766 14.9297 15.75 14 15.75ZM0.875 4.42969L12.4688 13.4531C13.3984 14.1641 14.6016 14.1641 15.5312 13.4531L27.125 4.42969C27.6719 3.99219 28 3.33594 28 2.625C28 1.20312 26.7969 0 25.375 0H2.625C1.20312 0 0 1.20312 0 2.625C0 3.33594 0.328125 3.99219 0.875 4.42969Z" fill="#BDC3C7"/>
</svg>
