<svg width="60" height="37" viewBox="0 0 60 37" fill="none" xmlns="http://www.w3.org/2000/svg">
<path d="M48.6562 6L44.1562 1.59375C43.3125 0.75 41.625 0 40.5 0H19.2188C17.8125 0 16.5 0.5625 15.4688 1.59375L11.0625 6H0V30H6C7.59375 30 8.90625 28.6875 8.90625 27H9.84375L17.7188 34.2188C20.625 36.5625 24.6562 36.5625 27.6562 34.5938C28.7812 35.5312 30.0938 36 31.5 36C33.1875 36 34.7812 35.3438 36.0938 33.75C38.1562 34.5938 40.5938 34.0312 42.0938 32.25L44.5312 29.1562C45 28.5 45.375 27.8438 45.5625 27H51C51 28.6875 52.3125 30 54 30H60V6H48.6562ZM4.5 27C3.65625 27 3 26.3438 3 25.5C3 24.6562 3.65625 24 4.5 24C5.25 24 6 24.6562 6 25.5C6 26.3438 5.25 27 4.5 27ZM41.0625 26.3438L38.5312 29.3438C38.3438 29.7188 37.875 29.7188 37.5 29.5312L35.25 27.6562L32.4375 31.125C31.875 31.7812 31.0312 31.5 30.75 31.3125L27.2812 28.4062L25.875 30.1875C24.5625 31.7812 22.2188 31.9688 20.7188 30.75L11.5312 22.5H9V10.5H12.8438L18.6562 4.78125C18.8438 4.6875 19.0312 4.59375 19.2188 4.5H24.5625L20.9062 7.875C18.0938 10.4062 18 14.625 20.4375 17.3438C21.8438 18.8438 26.25 21.1875 30 17.8125L30.75 17.0625L40.875 25.3125C41.25 25.5938 41.25 26.0625 41.0625 26.3438ZM51 22.5H44.4375C44.25 22.3125 43.9688 22.0312 43.7812 21.8438L34.125 13.9688L35.25 12.9375C35.9062 12.375 35.9062 11.4375 35.3438 10.7812L34.4062 9.75C33.8438 9.09375 32.8125 9.09375 32.25 9.65625L27.0938 14.3438C26.1562 15.1875 24.6562 15.2812 23.8125 14.3438C22.9688 13.4062 23.0625 12 23.9062 11.1562L30.0938 5.53125C30.75 4.875 31.6875 4.59375 32.625 4.59375L40.5 4.5C40.6875 4.5 40.875 4.59375 40.9688 4.78125L46.7812 10.5H51V22.5ZM55.5 27C54.6562 27 54 26.3438 54 25.5C54 24.6562 54.6562 24 55.5 24C56.25 24 57 24.6562 57 25.5C57 26.3438 56.25 27 55.5 27Z" fill="#F9FAFB"/>
</svg>
