<svg width="46" height="40" viewBox="0 0 46 40" fill="none" xmlns="http://www.w3.org/2000/svg">
<path d="M19.9219 11.25L24.1406 12.4219C24.4531 12.4219 24.6875 12.7344 24.6875 13.0469C24.6875 13.3594 24.375 13.6719 23.9844 13.6719H21.1719C20.8594 13.6719 20.625 13.5938 20.3125 13.5156C19.9219 13.3594 19.4531 13.3594 19.1406 13.6719L17.6562 15C17.5781 15.0781 17.5 15.1562 17.5 15.2344C17.3438 15.4688 17.2656 15.7031 17.3438 15.9375C17.4219 16.1719 17.5781 16.3281 17.7344 16.4844C18.5938 16.9531 19.5312 17.2656 20.4688 17.3438V18.75C20.4688 19.4531 21.0938 20 21.7969 20H23.2031C23.9062 20 24.5312 19.4531 24.5312 18.75V17.3438C27.1094 17.1094 29.0625 14.9219 28.75 12.4219C28.4375 10.625 26.9531 9.21875 25.0781 8.75L20.8594 7.57812C20.5469 7.57812 20.3125 7.26562 20.3125 6.95312C20.3125 6.64062 20.625 6.32812 21.0156 6.32812H23.8281C24.1406 6.32812 24.375 6.40625 24.6875 6.48438C25.0781 6.64062 25.5469 6.64062 25.8594 6.32812L27.3438 5L27.5781 4.76562C27.6562 4.53125 27.6562 4.29688 27.6562 4.0625C27.5781 3.82812 27.4219 3.67188 27.2656 3.51562C26.4062 3.04688 25.4688 2.73438 24.5312 2.65625V1.25C24.5312 0.546875 23.9062 0 23.2031 0H21.7969C21.0938 0 20.4688 0.546875 20.4688 1.25V2.65625C17.8906 2.89062 15.9375 5.07812 16.3281 7.57812C16.5625 9.375 18.0469 10.7812 19.9219 11.25ZM44.375 26.25C43.3594 24.8438 41.4062 24.6094 40 25.625L30.7031 32.5H21.25C20.5469 32.5 20 31.9531 20 31.25C20 30.5469 20.5469 30 21.25 30H27.3438C28.5938 30 29.7656 29.1406 30 27.8906C30.2344 26.3281 28.9844 25 27.5 25H15C12.8906 25 10.8594 25.7031 9.21875 27.0312L5.54688 30H1.25C0.546875 30 0 30.5469 0 31.25V38.75C0 39.4531 0.546875 40 1.25 40H28.3594C30.0781 40 31.7969 39.4531 33.2031 38.4375L43.75 30.625C45.1562 29.6094 45.3906 27.6562 44.375 26.25Z" fill="#F9FAFB"/>
</svg>
