<svg width="1440" height="1592" viewBox="0 0 1440 1592" fill="none" xmlns="http://www.w3.org/2000/svg">
<g opacity="0.8">
<path d="M1279.17 1500.83C1309.38 1489.12 1328.9 1459.48 1336.26 1428.11C1343.61 1396.73 1340.5 1363.46 1336.34 1330.96C1330.83 1287.99 1323.17 1244.07 1301.35 1205.7C1270.93 1152.24 1216.7 1115.83 1162.26 1086.27C1065.61 1033.78 961.958 996.004 857.14 964.727C744.78 931.198 626.063 902.637 535.063 827.446C453.398 759.973 424.506 677.539 400.634 581.181C378.37 491.31 376.159 394.971 327.99 311.333C264.786 201.586 134.534 137.711 9.22304 133.826C-116.088 129.94 -235.677 179.007 -335.123 249.247" stroke="#1C64EB" stroke-width="0.864782" stroke-miterlimit="10"/>
<path d="M1294.42 1497.09C1321.14 1487.44 1336.19 1459.21 1340.81 1428.09C1345.41 1397.05 1341.24 1363.8 1335.38 1331.79C1327.67 1289.64 1318.57 1246.13 1295.21 1208.05C1262.02 1153.93 1205.91 1115.2 1150.26 1083.36C1055.44 1029.09 953.395 990.18 850.626 957.553C741.309 922.847 625.43 894.157 536.469 819.608C455.32 751.606 424.336 669.651 397.875 575.495C372.962 487.611 366.863 394.745 317.344 314.243C252.586 208.967 123.977 147.906 -0.314286 143.215C-125.039 138.391 -243.078 182.481 -342.624 248.962" stroke="#1C64EB" stroke-width="0.864782" stroke-miterlimit="10"/>
<path d="M1309.67 1493.35C1332.89 1485.76 1343.48 1459.05 1345.35 1428.07C1347.19 1397.46 1341.98 1364.16 1334.42 1332.62C1324.51 1291.31 1313.92 1248.19 1289.07 1210.4C1253.06 1155.62 1195.13 1114.62 1138.26 1080.45C1045.24 1024.54 944.851 984.371 844.113 950.378C737.843 914.521 624.801 885.656 537.879 811.766C457.252 743.224 424.376 661.701 395.111 569.805C367.748 483.872 357.592 394.549 306.697 317.153C240.424 216.376 113.42 158.102 -9.85396 152.608C-133.997 146.844 -250.483 185.953 -350.131 248.678" stroke="#1C64EB" stroke-width="0.864782" stroke-miterlimit="10"/>
<path d="M1324.92 1489.59C1344.64 1484.08 1350.79 1458.98 1349.89 1428.04C1349.02 1397.95 1342.73 1364.52 1333.46 1333.45C1321.38 1292.99 1309.23 1250.26 1282.94 1212.74C1244.07 1157.3 1184.36 1114.08 1126.26 1077.53C1035 1020.11 936.325 978.568 837.606 943.196C734.398 906.215 624.185 877.137 539.292 803.92C459.186 734.832 424.305 653.775 392.357 564.113C362.437 480.14 348.364 394.37 296.057 320.06C228.307 223.802 102.867 168.3 -19.3849 161.998C-142.939 155.292 -257.875 189.422 -357.622 248.387" stroke="#1C64EB" stroke-width="0.864782" stroke-miterlimit="10"/>
<path d="M1340.17 1485.78C1356.4 1482.34 1358.14 1458.95 1354.43 1427.96C1350.9 1398.46 1343.5 1364.84 1332.5 1334.22C1318.27 1294.63 1304.52 1252.28 1276.79 1215.03C1235.03 1158.93 1173.59 1113.55 1114.26 1074.57C1024.73 1015.76 927.814 972.754 831.095 935.974C730.964 897.898 623.579 868.562 540.703 796.036C461.12 726.395 424.224 645.804 389.599 558.396C357.114 476.382 339.16 394.2 285.415 322.949C216.236 231.238 92.314 178.484 -28.9179 171.375C-151.892 163.739 -265.275 192.884 -365.124 248.09" stroke="#1C64EB" stroke-width="0.864782" stroke-miterlimit="10"/>
<path d="M1355.42 1481.97C1368.15 1480.59 1365.56 1459 1358.98 1427.88C1352.87 1399.04 1344.29 1365.18 1331.53 1334.99C1315.18 1296.29 1299.78 1254.31 1270.66 1217.33C1225.96 1160.58 1162.82 1113.05 1102.26 1071.61C1014.41 1011.5 919.325 966.957 824.583 928.752C727.532 889.616 622.979 859.969 542.111 788.155C463.053 717.95 424.134 637.838 386.838 552.682C351.778 472.625 329.991 394.051 274.771 325.848C204.211 238.697 81.7532 188.94 -38.4556 180.767C-160.848 172.444 -272.676 196.347 -372.624 247.789" stroke="#1C64EB" stroke-width="0.864782" stroke-miterlimit="10"/>
<path d="M1370.67 1478.16C1379.9 1478.85 1373.07 1459.11 1363.52 1427.8C1354.94 1399.66 1345.1 1365.52 1330.57 1335.76C1312.12 1297.95 1295.02 1256.35 1264.52 1219.62C1216.85 1162.24 1152.04 1112.59 1090.26 1068.66C1004.05 1007.35 910.846 961.195 818.067 921.536C724.107 881.372 622.388 851.372 543.514 780.281C464.988 709.502 424.027 629.87 384.075 546.971C346.432 468.866 320.863 393.927 264.121 328.749C192.235 246.172 71.1904 199.179 -47.9964 190.157C-169.803 180.936 -280.076 199.81 -380.126 247.493" stroke="#1C64EB" stroke-width="0.864782" stroke-miterlimit="10"/>
<path d="M1385.92 1474.35C1391.66 1477.1 1380.67 1459.26 1368.06 1427.72C1357.11 1400.31 1345.91 1365.86 1329.61 1336.54C1309.08 1299.62 1290.24 1258.4 1258.37 1221.92C1207.72 1163.91 1141.25 1112.18 1078.25 1065.69C993.654 1003.27 902.38 955.453 811.549 914.314C720.684 873.156 621.802 842.751 544.919 772.397C466.933 701.033 423.915 621.893 381.31 541.255C341.078 465.102 311.776 393.812 253.469 331.644C180.321 253.649 60.6221 209.41 -57.5416 199.546C-178.769 189.426 -287.489 203.277 -387.639 247.195" stroke="#1C64EB" stroke-width="0.864782" stroke-miterlimit="10"/>
<path d="M1401.17 1470.53C1403.41 1475.36 1388.37 1459.42 1372.61 1427.64C1359.37 1400.95 1346.76 1366.2 1328.65 1337.31C1306.07 1301.28 1285.44 1260.46 1252.24 1224.21C1198.56 1165.59 1130.45 1111.8 1066.26 1062.73C983.231 999.267 893.936 949.738 805.051 907.089C717.285 864.98 621.248 834.113 546.344 764.516C468.901 692.558 423.81 613.915 378.569 535.539C335.734 461.333 302.764 393.708 242.848 334.54C168.499 261.123 50.0831 219.635 -67.0538 208.932C-187.715 197.909 -294.878 206.744 -395.128 246.899" stroke="#1C64EB" stroke-width="0.864782" stroke-miterlimit="10"/>
<path d="M1416.42 1466.72C1415.17 1473.62 1396.15 1459.55 1377.15 1427.56C1361.72 1401.58 1347.62 1366.54 1327.69 1338.08C1303.08 1302.95 1280.61 1262.54 1246.1 1226.51C1189.37 1167.3 1119.62 1111.46 1054.25 1059.77C972.755 995.331 885.493 944.062 798.531 899.871C713.871 856.849 620.681 825.46 547.747 756.636C470.853 684.072 423.673 605.942 375.803 529.827C330.36 457.567 293.775 393.612 232.195 337.441C156.715 268.594 39.5144 229.864 -76.6048 218.325C-196.672 206.392 -302.282 210.208 -402.63 246.605" stroke="#1C64EB" stroke-width="0.864782" stroke-miterlimit="10"/>
<path d="M1431.67 1462.91C1426.92 1471.87 1404.02 1459.65 1381.7 1427.48C1364.14 1402.17 1348.5 1366.88 1326.73 1338.86C1300.12 1304.6 1275.79 1264.62 1239.96 1228.8C1180.17 1169.02 1108.78 1111.16 1042.26 1056.81C962.252 991.454 877.072 938.42 792.024 892.65C710.465 848.762 620.138 816.798 549.159 748.757C472.816 675.578 423.535 597.969 373.045 524.111C324.979 453.802 284.847 393.506 221.55 340.339C145.01 276.046 28.9547 240.089 -86.1402 227.714C-205.627 214.867 -309.679 213.673 -410.131 246.303" stroke="#1C64EB" stroke-width="0.864782" stroke-miterlimit="10"/>
<path d="M1446.92 1459.09C1438.68 1470.13 1411.96 1459.69 1386.24 1427.39C1366.6 1402.72 1349.4 1367.21 1325.77 1339.63C1297.16 1306.24 1270.94 1266.71 1233.83 1231.1C1170.94 1170.76 1097.91 1110.91 1030.25 1053.86C951.704 987.632 868.645 932.818 785.508 885.435C707.05 840.719 619.599 808.122 550.563 740.884C474.782 667.075 423.376 590.002 370.279 518.407C319.585 450.049 275.969 393.405 210.902 343.253C133.369 283.493 18.3899 250.324 -95.6797 237.119C-214.587 223.357 -317.081 217.153 -417.634 246.022" stroke="#1C64EB" stroke-width="0.864782" stroke-miterlimit="10"/>
<path d="M1462.17 1455.28C1450.43 1468.38 1419.94 1459.67 1390.79 1427.31C1369.09 1403.23 1350.3 1367.52 1324.81 1340.4C1294.23 1307.87 1266.09 1268.82 1227.69 1233.39C1161.7 1172.51 1087.02 1110.68 1018.25 1050.9C941.129 983.852 860.226 927.25 779 878.215C703.635 832.716 619.079 799.429 551.977 733.003C476.768 658.55 423.219 582.033 367.527 512.692C314.191 446.288 267.157 393.271 200.266 346.15C121.81 290.886 7.83375 260.54 -105.209 246.512C-223.54 231.832 -324.479 220.622 -425.134 245.729" stroke="#1C64EB" stroke-width="0.864782" stroke-miterlimit="10"/>
<path d="M1477.42 1451.46C1462.19 1466.63 1427.96 1459.59 1395.33 1427.23C1371.6 1403.7 1351.22 1367.83 1323.85 1341.18C1291.32 1309.5 1261.22 1270.95 1221.55 1235.7C1152.44 1174.29 1076.1 1110.5 1006.25 1047.95C930.512 980.126 851.804 921.732 772.487 870.999C700.208 824.772 618.569 790.727 553.384 725.129C478.756 650.022 423.041 574.074 364.764 506.99C308.778 442.544 258.384 393.121 189.616 349.063C110.305 298.252 -2.73036 270.766 -114.75 255.918C-232.503 240.311 -331.878 224.1 -432.633 245.442" stroke="#1C64EB" stroke-width="0.864782" stroke-miterlimit="10"/>
<path d="M1492.67 1447.65C1473.94 1464.89 1435.99 1459.44 1399.88 1427.15C1374.12 1404.12 1352.14 1368.12 1322.89 1341.95C1288.41 1311.1 1256.36 1273.07 1215.41 1237.99C1143.17 1176.08 1065.15 1110.34 994.257 1044.99C919.873 976.425 843.384 916.252 765.982 863.782C696.777 816.868 618.078 782.01 554.802 717.252C480.766 641.482 422.867 566.122 362.016 501.281C303.369 438.798 249.674 392.923 178.985 351.974C98.8716 305.565 -13.2805 280.987 -124.275 265.326C-241.444 248.791 -339.271 227.583 -440.123 245.163" stroke="#1C64EB" stroke-width="0.864782" stroke-miterlimit="10"/>
<path d="M1507.92 1443.83C1485.7 1463.14 1444.04 1459.24 1404.42 1427.07C1376.64 1404.51 1353.07 1368.41 1321.93 1342.73C1285.5 1312.7 1251.48 1275.22 1209.27 1240.29C1133.88 1177.9 1054.16 1110.22 982.252 1042.04C909.19 972.762 834.94 910.824 759.465 856.57C693.315 809.018 617.584 773.284 556.204 709.384C482.769 632.932 422.67 558.181 359.248 495.586C297.937 435.073 240.99 392.696 168.331 354.898C87.4696 312.827 -23.8506 291.217 -133.82 274.743C-250.412 257.274 -346.679 231.076 -447.636 244.89" stroke="#1C64EB" stroke-width="0.864782" stroke-miterlimit="10"/>
<path d="M1523.16 1440.02C1497.45 1461.4 1452.09 1458.99 1408.96 1426.98C1379.16 1404.86 1354.01 1368.68 1320.97 1343.5C1282.6 1314.28 1246.6 1277.37 1203.14 1242.6C1124.59 1179.75 1043.14 1110.14 970.247 1039.09C898.476 969.135 826.479 905.455 752.948 849.368C689.837 801.227 617.101 764.555 557.606 701.527C484.791 624.385 422.466 550.264 356.482 489.904C292.5 431.37 232.34 392.428 157.68 357.831C76.1096 320.038 -34.4173 301.459 -143.365 284.175C-259.371 265.767 -354.082 234.579 -455.135 244.63" stroke="#1C64EB" stroke-width="0.864782" stroke-miterlimit="10"/>
<path d="M1538.41 1436.21C1509.2 1459.65 1460.14 1458.7 1413.51 1426.91C1381.66 1405.2 1354.95 1368.94 1320.01 1344.28C1279.71 1315.84 1241.71 1279.53 1197 1244.9C1115.28 1181.6 1032.08 1110.09 958.249 1036.15C887.741 965.528 818 900.131 746.444 842.163C686.343 793.477 616.649 755.814 559.024 693.664C486.839 615.816 422.269 542.351 353.733 484.213C287.069 427.664 223.741 392.082 147.049 360.762C64.8046 327.173 -44.9636 311.687 -152.888 293.6C-268.322 274.256 -361.474 238.08 -462.629 244.369" stroke="#1C64EB" stroke-width="0.864782" stroke-miterlimit="10"/>
<path d="M1553.66 1432.4C1520.96 1457.91 1468.18 1458.37 1418.05 1426.83C1384.16 1405.5 1355.89 1369.19 1319.05 1345.06C1276.82 1317.4 1236.82 1281.7 1190.86 1247.2C1105.97 1183.48 1020.98 1110.07 946.245 1033.2C876.97 961.946 809.48 894.856 739.927 834.961C682.811 785.774 616.198 747.058 560.431 685.811C488.892 607.237 422.058 534.452 350.967 478.533C281.619 423.981 215.139 391.681 136.395 363.702C53.4916 334.245 -55.5352 321.922 -162.432 303.035C-277.285 282.744 -368.883 241.594 -470.141 244.115" stroke="#1C64EB" stroke-width="0.864782" stroke-miterlimit="10"/>
<path d="M1568.92 1428.59C1532.72 1456.17 1476.22 1458.01 1422.6 1426.75C1386.65 1405.8 1356.84 1369.44 1318.09 1345.85C1273.92 1318.96 1231.93 1283.89 1184.72 1249.51C1096.65 1185.38 1009.85 1110.08 934.252 1030.27C866.18 958.393 800.936 889.65 733.422 827.771C679.252 778.127 615.77 738.307 561.847 677.964C490.973 598.656 421.853 526.574 348.217 472.86C276.18 420.311 206.563 391.21 125.759 366.649C42.2054 341.253 -66.0879 332.159 -171.963 312.479C-286.233 291.237 -376.279 245.112 -477.637 243.874" stroke="#1C64EB" stroke-width="0.864782" stroke-miterlimit="10"/>
<path d="M1584.17 1424.78C1544.47 1454.43 1484.23 1457.61 1427.15 1426.68C1389.12 1406.07 1357.78 1369.67 1317.13 1346.63C1271.03 1320.49 1227.04 1286.08 1178.58 1251.82C1087.33 1187.29 998.67 1110.12 922.248 1027.32C855.352 954.846 792.332 884.478 726.905 820.575C675.649 770.51 615.344 729.531 563.25 670.115C493.06 590.053 421.629 518.701 345.45 467.187C270.722 416.653 197.973 390.665 115.112 369.595C30.9059 348.186 -76.6478 342.393 -181.505 321.917C-295.195 299.722 -383.683 248.626 -485.144 243.62" stroke="#1C64EB" stroke-width="0.864782" stroke-miterlimit="10"/>
<path d="M1599.42 1420.97C1556.23 1452.69 1492.24 1457.2 1431.69 1426.6C1391.58 1406.33 1358.72 1369.9 1316.17 1347.41C1268.13 1322.02 1222.14 1288.28 1172.44 1254.13C1077.99 1189.22 987.452 1110.19 910.246 1024.39C844.5 951.316 783.674 879.358 720.395 813.386C672.009 762.936 614.94 720.759 564.66 662.274C495.174 581.446 421.416 510.845 342.693 461.52C265.271 413.012 189.379 390.048 104.468 372.547C19.5939 355.059 -87.2062 352.626 -191.043 331.367C-304.148 308.212 -391.083 252.153 -492.646 243.385" stroke="#1C64EB" stroke-width="0.864782" stroke-miterlimit="10"/>
<path d="M1614.67 1417.16C1567.98 1450.95 1500.23 1456.77 1436.24 1426.52C1394.03 1406.58 1359.65 1370.11 1315.21 1348.19C1265.23 1323.54 1217.25 1290.48 1166.31 1256.44C1068.66 1191.17 976.189 1110.29 898.248 1021.45C833.627 947.794 774.955 874.283 713.887 806.189C668.325 755.385 614.553 711.966 566.074 654.42C497.315 572.805 421.2 502.988 339.938 455.844C259.825 409.367 180.768 389.346 93.8294 375.494C8.26644 361.859 -97.756 362.85 -200.572 340.808C-313.094 316.685 -398.481 255.671 -500.14 243.141" stroke="#1C64EB" stroke-width="0.864782" stroke-miterlimit="10"/>
<path d="M1629.92 1413.35C1579.73 1449.21 1508.21 1456.32 1440.78 1426.45C1396.46 1406.81 1360.58 1370.32 1314.24 1348.97C1262.31 1325.06 1212.34 1292.7 1160.16 1258.75C1059.31 1193.13 964.878 1110.41 886.24 1018.51C822.718 944.281 766.148 869.256 707.367 799.002C664.579 747.864 614.17 703.175 567.473 646.581C499.471 564.162 420.977 495.151 337.17 450.179C254.362 405.745 172.114 388.583 83.1746 378.448C-3.11365 368.612 -108.32 373.077 -210.121 350.259C-322.059 325.17 -405.892 259.2 -507.657 242.905" stroke="#1C64EB" stroke-width="0.864782" stroke-miterlimit="10"/>
<path d="M1645.17 1409.55C1591.49 1447.47 1516.18 1455.87 1445.32 1426.37C1398.88 1407.05 1361.52 1370.52 1313.29 1349.76C1259.41 1326.56 1207.45 1294.92 1154.04 1261.06C1049.98 1195.1 953.535 1110.55 874.249 1015.58C811.8 940.773 757.277 864.254 700.863 791.81C660.794 740.357 613.819 694.368 568.891 638.733C501.672 555.49 420.771 487.315 334.419 444.508C248.919 402.121 163.443 387.758 72.5393 381.393C-14.5139 375.3 -118.865 383.288 -219.648 359.698C-330.997 333.634 -413.285 262.713 -515.145 242.656" stroke="#1C64EB" stroke-width="0.864782" stroke-miterlimit="10"/>
<path d="M1660.42 1405.74C1603.25 1445.73 1524.13 1455.4 1449.87 1426.3C1401.29 1407.27 1362.44 1370.72 1312.33 1350.54C1256.49 1328.06 1202.55 1297.14 1147.89 1263.37C1040.63 1197.1 942.134 1110.72 862.245 1012.65C800.852 937.276 748.302 859.293 694.35 784.63C656.953 732.873 613.472 685.565 570.298 630.902C503.892 546.818 420.553 479.506 331.657 438.855C243.468 398.527 154.718 386.882 61.8942 384.36C-25.9704 381.97 -129.418 393.518 -229.187 369.163C-339.948 342.119 -420.686 266.256 -522.652 242.435" stroke="#1C64EB" stroke-width="0.864782" stroke-miterlimit="10"/>
<path d="M1675.67 1401.94C1615 1444 1532.08 1454.92 1454.41 1426.23C1403.7 1407.49 1363.37 1370.92 1311.37 1351.33C1253.58 1329.57 1197.66 1299.38 1141.75 1265.69C1031.28 1199.1 930.694 1110.92 850.241 1009.72C789.877 933.787 739.225 854.362 687.834 777.455C653.045 725.391 613.142 676.761 571.701 623.076C506.14 538.133 420.338 471.711 328.889 433.203C238.012 394.941 145.942 385.965 51.2392 387.327C-37.486 388.602 -139.98 403.747 -238.734 378.623C-348.904 350.595 -428.097 269.799 -530.163 242.213" stroke="#1C64EB" stroke-width="0.864782" stroke-miterlimit="10"/>
<path d="M1690.92 1398.14C1626.76 1442.26 1540.01 1454.45 1458.96 1426.16C1406.1 1407.72 1364.29 1371.11 1310.41 1352.12C1250.66 1331.07 1192.76 1301.62 1135.62 1268C1021.94 1201.12 919.212 1111.14 838.247 1006.8C778.893 930.303 730.058 849.444 681.33 770.278C649.094 717.905 612.836 667.949 573.12 615.246C508.447 529.425 420.142 463.914 326.138 427.553C232.581 391.362 137.136 385.004 40.601 390.295C-49.0392 395.206 -150.525 413.966 -248.263 388.083C-357.838 359.065 -435.492 273.336 -537.655 241.99" stroke="#1C64EB" stroke-width="0.864782" stroke-miterlimit="10"/>
<path d="M1706.18 1394.34C1638.52 1440.53 1547.94 1453.96 1463.51 1426.09C1408.49 1407.94 1365.22 1371.31 1309.45 1352.91C1247.73 1332.56 1187.87 1303.87 1129.48 1270.32C1012.59 1203.16 907.674 1111.38 826.245 1003.87C767.875 926.817 720.774 844.533 674.816 763.106C645.077 710.411 612.539 659.132 574.529 607.427C510.779 520.704 419.94 456.14 323.38 421.91C227.144 387.796 128.275 384.018 29.963 393.268C-60.6417 401.795 -161.025 424.012 -257.795 397.552C-366.731 367.342 -442.886 276.886 -545.155 241.776" stroke="#1C64EB" stroke-width="0.864782" stroke-miterlimit="10"/>
<path d="M1721.43 1390.54C1650.28 1438.8 1555.86 1453.48 1468.05 1426.03C1410.87 1408.15 1366.13 1371.49 1308.49 1353.71C1244.8 1334.05 1182.97 1306.12 1123.34 1272.64C1003.24 1205.2 896.09 1111.63 814.245 1000.95C756.843 923.325 711.376 839.61 668.303 755.934C640.998 702.892 612.261 650.313 575.938 599.601C513.16 511.957 419.689 448.535 320.62 416.263C221.654 384.406 119.357 383 19.3156 396.239C-72.3031 408.361 -171.583 434.279 -267.334 407.014C-375.684 375.867 -450.291 280.425 -552.658 241.558" stroke="#1C64EB" stroke-width="0.864782" stroke-miterlimit="10"/>
<path d="M1736.68 1386.75C1662.03 1437.07 1563.77 1452.99 1472.6 1425.96C1413.25 1408.36 1367.07 1371.58 1307.53 1354.49C1241.89 1335.43 1178.03 1308.48 1117.21 1274.96C993.786 1207.47 884.466 1111.91 802.247 998.024C745.795 919.833 701.877 834.668 661.797 748.761C636.878 695.343 612.01 641.491 577.351 591.778C515.591 503.191 419.525 440.677 317.866 410.616C216.257 380.763 110.399 381.964 8.67473 399.207C-84.0118 414.919 -182.138 444.548 -276.873 416.475C-384.635 384.387 -457.695 283.971 -560.161 241.34" stroke="#1C64EB" stroke-width="0.864782" stroke-miterlimit="10"/>
<path d="M1751.93 1382.95C1673.79 1435.34 1571.67 1452.5 1477.14 1425.89C1415.62 1408.58 1367.95 1371.86 1306.57 1355.29C1238.93 1337.02 1173.18 1310.64 1111.07 1277.28C984.545 1209.32 872.789 1112.2 790.243 995.106C734.718 916.341 692.258 829.705 655.284 741.59C632.691 687.757 611.771 632.669 578.758 583.957C518.074 494.403 419.359 432.825 315.103 404.973C210.847 377.121 101.391 380.917 -1.97156 402.183C-95.7731 421.477 -192.695 454.82 -286.411 425.942C-393.591 392.914 -465.094 287.518 -567.664 241.122" stroke="#1C64EB" stroke-width="0.864782" stroke-miterlimit="10"/>
<path d="M1243.09 1358.35C1301.03 1261.09 1321.82 1141.65 1300.73 1027.25C1294.73 994.702 1284.85 961.416 1262.98 935.626C1199.76 861.107 1080.72 870.099 994.6 864.11C890.659 856.883 786.493 852.148 682.959 836.578C624.833 827.837 560.226 811.276 527.915 761.726C495.197 711.548 508.482 648.231 516.283 590.843C525.373 523.972 524.978 454.072 502.734 388.687C480.491 323.307 434.224 262.748 370.695 233.218C320.949 210.092 264.97 207.311 211.187 209.355C69.8693 214.723 -68.5988 250.922 -191.521 314.625" stroke="#1C64EB" stroke-width="0.864782" stroke-miterlimit="10"/>
<path d="M1248.11 1355.69C1304.18 1261.56 1320.68 1146.18 1298.32 1030.86C1292.08 998.659 1282.31 965.745 1260.87 940.131C1198.84 865.928 1083.02 872.559 998.004 865.388C907.36 857.742 816.022 852.656 724.174 840.163C712.87 838.643 701.574 837.019 690.285 835.266C632.78 826.347 568.993 809.925 536.468 761.607C503.5 712.668 515.057 651.051 521.34 595.174C528.576 530.04 526.672 461.986 503.724 398.252C480.626 334.474 434.385 275.295 371.608 246.004C328.95 226.091 281.859 220.874 235.656 220.553C228.504 220.498 221.381 220.61 214.293 220.715C73.6576 222.78 -59.4106 252.23 -178.368 313.884" stroke="#1C64EB" stroke-width="0.864782" stroke-miterlimit="10"/>
<path d="M1253.13 1353.03C1307.33 1262.03 1319.56 1150.72 1295.91 1034.47C1289.43 1002.62 1279.77 970.085 1258.76 944.641C1197.91 870.754 1085.32 875.03 1001.4 866.674C912.597 857.83 822.573 852.1 731.117 838.98C719.94 837.416 708.768 835.75 697.601 833.965C640.719 824.867 577.747 808.582 545.007 761.495C511.784 713.796 521.616 653.876 526.379 599.513C531.756 536.122 528.354 469.909 504.691 407.823C480.741 345.642 434.526 287.851 372.494 258.799C330.262 239.005 283.839 233.333 238.391 232.288C231.353 232.119 224.344 232.148 217.374 232.084C77.3657 230.818 -50.247 253.554 -165.242 313.152" stroke="#1C64EB" stroke-width="0.864782" stroke-miterlimit="10"/>
<path d="M1258.15 1350.37C1310.49 1262.51 1318.45 1155.27 1293.5 1038.09C1286.79 1006.58 1277.23 974.421 1256.66 949.153C1196.99 875.582 1087.63 877.515 1004.8 867.959C917.85 857.928 829.154 851.315 738.064 837.8C727.016 836.164 715.966 834.482 704.924 832.663C648.664 823.386 586.511 807.239 553.555 761.388C520.083 714.929 528.295 656.721 531.426 603.858C535.078 542.218 530.206 477.784 505.669 417.403C481.025 356.764 434.675 300.413 373.397 271.605C331.59 251.931 285.836 245.81 241.138 244.032C234.211 243.744 227.319 243.693 220.471 243.464C81.0443 238.833 -41.0689 254.881 -152.096 312.432" stroke="#1C64EB" stroke-width="0.864782" stroke-miterlimit="10"/>
<path d="M1263.18 1347.71C1313.63 1262.98 1317.36 1159.82 1291.09 1041.7C1284.16 1010.53 1274.68 978.752 1254.55 953.66C1196.07 880.402 1089.95 879.999 1008.21 869.238C923.112 858.032 835.72 850.68 745.012 836.614C734.088 834.92 723.16 833.207 712.244 831.352C656.603 821.899 595.269 805.886 562.097 761.267C528.372 716.044 534.893 659.535 536.47 608.184C538.307 548.284 531.943 485.674 506.649 426.96C481.201 367.9 434.829 312.956 374.299 284.383C332.917 264.828 287.828 258.255 243.888 255.75C237.075 255.347 230.295 255.207 223.563 254.82C84.6702 246.787 -31.8969 256.186 -138.957 311.684" stroke="#1C64EB" stroke-width="0.864782" stroke-miterlimit="10"/>
<path d="M1268.2 1345.04C1316.79 1263.44 1316.28 1164.35 1288.68 1045.3C1281.53 1014.49 1272.14 983.081 1252.45 958.162C1195.15 885.22 1092.28 882.494 1011.61 870.516C928.376 858.155 842.289 850.052 751.961 835.423C741.165 833.673 730.36 831.929 719.569 830.039C664.549 820.408 604.035 804.533 570.646 761.15C536.668 717.164 541.498 662.355 541.518 612.52C541.543 554.358 533.676 493.57 507.625 436.531C481.371 379.047 434.976 325.51 375.195 297.179C334.241 277.74 289.818 270.715 246.63 267.483C239.927 266.962 233.257 266.737 226.65 266.187C88.2461 254.708 -22.7284 257.498 -125.822 310.942" stroke="#1C64EB" stroke-width="0.864782" stroke-miterlimit="10"/>
<path d="M1273.22 1342.36C1319.94 1263.9 1315.23 1168.89 1286.27 1048.91C1278.91 1018.44 1269.6 987.407 1250.34 962.664C1194.22 890.039 1094.61 884.998 1015.01 871.789C933.646 858.285 848.852 849.417 758.905 834.231C748.235 832.43 737.558 830.647 726.886 828.729C672.489 818.919 612.794 803.183 579.187 761.03C544.957 718.288 548.094 665.171 546.558 616.853C544.766 560.426 535.398 501.467 508.597 446.102C481.532 390.192 435.125 338.065 376.087 309.976C335.562 290.659 291.805 283.182 249.37 279.22C242.781 278.584 236.222 278.263 229.74 277.561C91.7847 262.595 -13.5561 258.821 -112.686 310.208" stroke="#1C64EB" stroke-width="0.864782" stroke-miterlimit="10"/>
<path d="M1278.24 1339.69C1323.09 1264.36 1314.19 1173.44 1283.86 1052.51C1276.3 1022.39 1267.01 991.773 1248.23 967.168C1193.15 894.966 1096.96 887.518 1018.42 873.068C938.933 858.441 855.43 848.796 765.859 833.043C755.316 831.188 744.762 829.373 734.215 827.419C680.437 817.434 621.561 801.831 587.743 760.914C553.26 719.41 554.704 667.987 551.619 621.192C548.011 566.499 537.141 509.363 509.588 455.676C481.705 401.341 435.29 350.626 377.004 322.777C336.904 303.579 293.807 295.736 252.134 290.954C245.654 290.209 239.205 289.787 232.847 288.932C95.3018 270.428 -4.36792 260.136 -99.5339 309.471" stroke="#1C64EB" stroke-width="0.864782" stroke-miterlimit="10"/>
<path d="M1283.26 1337.01C1326.25 1264.82 1313.17 1177.98 1281.45 1056.12C1273.7 1026.34 1264.46 996.108 1246.13 971.67C1192.21 899.794 1099.32 890.051 1021.83 874.346C944.214 858.614 861.996 848.182 772.808 831.852C762.392 829.945 751.962 828.095 741.538 826.104C688.381 815.94 630.324 800.476 596.286 760.793C561.554 720.53 561.297 670.796 556.661 625.527C551.235 572.564 538.859 517.266 510.564 465.25C481.865 412.49 435.437 363.186 377.9 335.579C338.226 316.501 295.795 308.212 254.878 302.696C248.51 301.84 242.167 301.313 235.94 300.311C98.769 278.208 4.8047 261.46 -86.3945 308.741" stroke="#1C64EB" stroke-width="0.864782" stroke-miterlimit="10"/>
<path d="M1288.28 1334.34C1329.4 1265.29 1312.17 1182.52 1279.04 1059.72C1271.1 1030.29 1261.91 1000.44 1244.03 976.179C1191.28 904.632 1101.68 892.601 1025.23 875.627C949.506 858.808 868.571 847.57 779.758 830.668C769.467 828.709 759.163 826.823 748.863 824.797C696.332 814.457 639.087 799.127 604.838 760.68C569.85 721.659 567.9 673.613 561.712 629.871C554.464 578.635 540.582 525.168 511.548 474.836C482.021 423.65 435.595 375.761 378.806 348.39C339.56 329.428 297.791 320.701 257.633 314.447C251.375 313.472 245.142 312.844 239.04 311.696C102.219 285.938 13.9863 262.787 -73.2451 308.018" stroke="#1C64EB" stroke-width="0.864782" stroke-miterlimit="10"/>
<path d="M1293.3 1331.67C1332.55 1265.75 1311.19 1187.07 1276.62 1063.34C1268.5 1034.25 1259.36 1004.79 1241.91 980.693C1190.33 909.469 1104.03 895.179 1028.63 876.913C954.79 859.03 875.131 846.97 786.701 829.484C776.54 827.477 766.353 825.551 756.179 823.495C704.268 812.98 647.842 797.79 613.375 760.574C578.138 722.794 574.487 676.43 566.751 634.218C557.678 584.706 542.286 533.08 512.515 484.421C482.161 434.81 435.733 388.333 379.693 361.204C340.872 342.362 299.769 333.19 260.364 326.199C254.22 325.109 248.09 324.373 242.115 323.085C105.613 293.611 23.1432 264.124 -60.1252 307.296" stroke="#1C64EB" stroke-width="0.864782" stroke-miterlimit="10"/>
<path d="M1298.32 1328.99C1335.7 1266.21 1310.22 1191.61 1274.22 1066.95C1265.91 1038.2 1256.82 1009.12 1239.81 985.202C1189.4 914.304 1106.41 897.765 1032.04 878.194C960.092 859.262 881.704 846.371 793.653 828.3C783.617 826.24 773.555 824.279 763.507 822.188C712.217 811.494 656.607 796.44 621.929 760.461C586.439 723.919 581.084 679.242 571.804 638.563C560.905 590.768 543.998 540.985 513.501 494.008C482.315 445.967 435.896 400.905 380.602 374.022C342.206 355.3 301.77 345.682 263.122 337.958C257.088 336.749 251.064 335.908 245.222 334.48C109.024 301.216 32.3288 265.463 -46.9728 306.58" stroke="#1C64EB" stroke-width="0.864782" stroke-miterlimit="10"/>
<path d="M1303.34 1326.32C1338.85 1266.68 1309.28 1196.15 1271.8 1070.55C1263.33 1042.15 1254.27 1013.46 1237.7 989.709C1188.47 919.131 1108.78 900.368 1035.44 879.477C965.382 859.522 888.265 845.778 800.595 827.116C790.685 825.005 780.748 823.009 770.821 820.88C720.153 810.008 665.433 795.022 630.464 760.348C594.794 724.977 587.658 682.051 576.842 642.91C564.106 596.831 545.691 548.896 514.469 503.591C482.444 457.126 436.035 413.476 381.494 386.831C343.523 368.228 303.75 358.162 265.858 349.704C259.936 348.383 254.018 347.421 248.303 345.859C112.4 308.738 41.4919 266.782 -33.8457 305.847" stroke="#1C64EB" stroke-width="0.864782" stroke-miterlimit="10"/>
<path d="M1308.37 1323.65C1342.01 1267.14 1308.36 1200.69 1269.4 1074.16C1260.76 1046.11 1251.72 1017.79 1235.6 994.219C1187.54 923.963 1111.15 902.992 1038.85 880.761C970.688 859.803 894.842 845.188 807.553 825.93C797.772 823.771 787.956 821.736 778.154 819.572C728.106 808.525 674.206 793.668 639.025 760.234C603.104 726.098 594.25 684.854 581.904 647.251C567.331 602.888 547.405 556.798 515.464 513.175C482.595 468.283 436.204 426.048 382.408 399.644C344.865 381.157 305.752 370.646 268.62 361.456C262.809 360.017 256.995 358.938 251.409 357.249C115.793 316.193 50.6761 268.115 -20.6948 305.123" stroke="#1C64EB" stroke-width="0.864782" stroke-miterlimit="10"/>
<path d="M1313.39 1320.97C1345.16 1267.61 1307.47 1205.22 1266.98 1077.78C1258.18 1050.06 1249.18 1022.13 1233.49 998.73C1186.61 928.792 1113.53 905.637 1042.25 882.043C975.98 860.102 901.407 844.607 814.497 824.746C804.838 822.539 795.151 820.465 785.472 818.27C736.045 807.043 682.967 792.323 647.565 760.123C611.391 727.226 600.822 687.66 586.943 651.598C570.527 608.945 549.087 564.71 516.432 522.762C482.712 479.444 436.346 438.626 383.296 412.461C346.178 394.093 307.728 383.134 271.352 373.21C265.655 371.656 259.945 370.459 254.49 368.639C119.168 323.568 59.8426 269.447 -7.56796 304.4" stroke="#1C64EB" stroke-width="0.864782" stroke-miterlimit="10"/>
<path d="M1318.41 1318.3C1348.31 1268.07 1306.59 1209.75 1264.57 1081.39C1255.62 1054.01 1246.64 1026.46 1231.39 1003.24C1185.68 933.619 1115.91 908.308 1045.66 883.328C981.277 860.433 907.972 844.032 821.444 823.565C811.915 821.309 802.345 819.194 792.794 816.967C743.99 805.561 691.731 790.974 656.112 760.018C619.688 728.356 607.394 690.472 591.989 655.951C573.722 615.01 550.774 572.633 517.41 532.358C482.835 490.621 436.496 451.209 384.2 425.286C347.508 407.038 309.721 395.631 274.108 384.971C268.521 383.299 262.917 381.975 257.592 380.035C122.572 330.872 69.0229 270.783 5.58276 303.683" stroke="#1C64EB" stroke-width="0.864782" stroke-miterlimit="10"/>
<path d="M1323.43 1315.62C1351.46 1268.53 1305.73 1214.27 1262.16 1084.99C1253.05 1057.96 1244.09 1030.79 1229.28 1007.75C1184.75 938.446 1118.28 911 1049.06 884.608C986.568 860.782 914.538 843.458 828.393 822.374C818.99 820.073 809.547 817.913 800.115 815.651C751.93 804.07 700.489 789.616 664.656 759.894C627.979 729.471 613.954 693.265 597.035 660.282C576.911 621.054 552.453 580.535 518.391 541.93C482.957 501.771 436.654 463.768 385.101 438.088C348.841 419.959 311.712 408.1 276.853 396.709C271.377 394.919 265.882 393.47 260.68 391.41C125.987 338.068 78.1925 272.096 18.7164 302.943" stroke="#1C64EB" stroke-width="0.864782" stroke-miterlimit="10"/>
<path d="M1328.45 1312.95C1354.62 1269 1304.9 1218.79 1259.76 1088.61C1250.5 1061.91 1241.55 1035.13 1227.18 1012.26C1183.83 943.269 1120.65 913.715 1052.47 885.887C991.859 861.153 921.11 842.889 835.346 821.187C826.07 818.84 816.75 816.639 807.444 814.342C759.88 802.582 709.251 788.261 673.209 759.783C636.276 730.601 620.519 696.073 602.091 664.632C580.1 627.114 554.136 588.457 519.375 551.521C483.072 512.945 436.809 476.347 386.005 450.909C350.17 432.9 313.707 420.589 279.606 408.471C274.24 406.562 268.853 404.982 263.781 402.807C129.44 345.205 87.3767 273.437 31.8636 302.224" stroke="#1C64EB" stroke-width="0.864782" stroke-miterlimit="10"/>
<path d="M1333.47 1310.28C1357.77 1269.46 1304.09 1223.29 1257.34 1092.22C1247.94 1065.86 1239 1039.47 1225.07 1016.78C1182.9 948.101 1123.01 916.462 1055.86 887.179C997.13 861.561 927.664 842.34 842.287 820.007C833.133 817.613 823.942 815.373 814.758 813.044C767.816 801.105 718.003 786.921 681.746 759.677C644.56 731.735 627.058 698.885 607.127 668.986C583.26 633.182 555.798 596.392 520.344 561.119C483.167 524.134 436.952 488.935 386.9 463.737C351.49 445.847 315.688 433.081 282.349 420.237C277.097 418.213 271.817 416.496 266.87 414.208C132.918 352.261 96.5466 274.774 44.9975 301.508" stroke="#1C64EB" stroke-width="0.864782" stroke-miterlimit="10"/>
<path d="M1338.49 1307.61C1360.92 1269.93 1303.3 1227.8 1254.93 1095.84C1245.39 1069.81 1236.47 1043.8 1222.97 1021.29C1181.98 952.925 1125.36 919.236 1059.27 888.462C1002.4 861.981 934.227 841.787 849.237 818.824C840.211 816.384 831.143 814.103 822.084 811.739C775.762 799.625 726.767 785.574 690.299 759.566C652.854 732.864 633.611 701.696 612.182 673.331C586.433 639.25 557.469 604.318 521.328 570.707C483.275 535.315 437.106 501.511 387.804 476.555C352.819 458.785 317.686 445.563 285.097 431.992C279.956 429.849 274.791 428 269.961 425.6C136.447 359.228 105.717 276.105 58.1343 300.782" stroke="#1C64EB" stroke-width="0.864782" stroke-miterlimit="10"/>
<path d="M1343.51 1304.93C1364.07 1270.39 1302.54 1232.29 1252.52 1099.45C1242.85 1073.75 1233.92 1048.14 1220.86 1025.8C1181.06 957.748 1127.7 922.029 1062.67 889.743C1007.67 862.427 940.79 841.24 856.183 817.638C847.283 815.153 838.336 812.827 829.406 810.431C783.705 798.138 735.524 784.227 698.841 759.454C661.143 733.991 640.145 704.517 617.224 677.679C589.587 645.321 559.125 612.256 522.304 580.296C483.372 546.502 437.257 514.091 388.7 489.375C354.143 471.721 319.671 458.045 287.842 443.752C282.81 441.491 277.759 439.503 273.055 436.996C140.035 366.113 114.892 277.436 71.2733 300.06" stroke="#1C64EB" stroke-width="0.864782" stroke-miterlimit="10"/>
<path d="M1348.54 1302.26C1367.22 1270.86 1301.81 1236.77 1250.11 1103.06C1240.31 1077.7 1231.39 1052.48 1218.75 1030.31C1180.15 962.569 1130.02 924.857 1066.08 891.028C1012.92 862.897 947.349 840.701 863.137 816.452C854.361 813.925 845.541 811.554 836.732 809.12C791.653 796.648 744.285 782.877 707.394 759.338C669.437 735.121 646.687 707.337 622.275 682.023C592.746 651.402 560.788 620.195 523.288 589.886C483.465 557.697 437.412 526.67 389.607 502.192C355.475 484.658 321.671 470.526 290.593 455.506C285.676 453.13 280.736 450.997 276.152 448.384C143.688 372.913 124.071 278.765 84.419 299.332" stroke="#1C64EB" stroke-width="0.864782" stroke-miterlimit="10"/>
<path d="M1353.56 1299.58C1370.38 1271.32 1301.09 1241.25 1247.7 1106.68C1237.77 1081.64 1228.84 1056.81 1216.65 1034.83C1179.23 967.393 1132.32 927.718 1069.48 892.318C1018.14 863.394 953.897 840.178 870.077 815.275C861.428 812.703 852.732 810.29 844.048 807.821C799.588 795.174 753.036 781.54 715.934 759.238C677.722 736.264 653.214 710.177 627.322 686.383C595.891 657.503 562.438 628.16 524.263 599.489C483.551 568.913 437.564 539.261 390.505 515.029C356.799 497.615 323.662 483.021 293.339 467.283C288.533 464.788 283.71 462.514 279.245 459.8C147.413 379.664 133.243 280.12 97.5576 298.63" stroke="#1C64EB" stroke-width="0.864782" stroke-miterlimit="10"/>
<path d="M1358.58 1296.91C1373.53 1271.79 1300.41 1245.7 1245.29 1110.29C1235.24 1085.59 1226.31 1061.15 1214.54 1039.34C1178.33 972.217 1134.6 930.606 1072.89 893.605C1023.36 863.91 960.456 839.657 877.029 814.095C868.503 811.481 859.933 809.023 851.372 806.522C807.534 793.696 761.792 780.206 724.482 759.131C686.011 737.404 659.742 713.019 632.368 690.738C599.037 663.606 564.088 636.12 525.242 609.09C483.638 580.136 437.717 551.854 391.404 527.862C358.123 510.568 325.652 495.512 296.082 479.052C291.386 476.439 286.685 474.022 282.334 471.203C151.212 386.332 142.413 281.458 110.691 297.913" stroke="#1C64EB" stroke-width="0.864782" stroke-miterlimit="10"/>
<path d="M1363.6 1294.24C1376.68 1272.25 1299.75 1250.15 1242.88 1113.9C1232.71 1089.52 1223.77 1065.48 1212.44 1043.86C1177.42 977.041 1136.86 933.524 1076.29 894.89C1028.55 864.442 967.006 839.139 883.976 812.909C875.575 810.253 867.132 807.75 858.696 805.214C815.484 792.212 770.555 778.862 733.032 759.019C694.303 738.538 666.276 715.867 637.418 695.086C602.189 669.715 565.737 644.089 526.223 618.679C483.723 591.355 437.869 564.432 392.307 540.68C359.454 523.502 327.652 507.99 298.837 490.806C294.254 488.071 289.672 485.509 285.434 482.591C155.103 392.916 151.591 282.783 123.837 297.181" stroke="#1C64EB" stroke-width="0.864782" stroke-miterlimit="10"/>
<path d="M1368.62 1291.56C1379.83 1272.72 1299.11 1254.59 1240.47 1117.52C1230.18 1093.46 1221.24 1069.82 1210.33 1048.37C1176.52 981.858 1139.08 936.466 1079.69 896.179C1033.72 864.994 973.551 838.634 890.924 811.73C882.647 809.033 874.333 806.482 866.015 803.911C823.422 790.734 779.273 777.594 741.572 758.912C702.555 739.751 672.797 718.725 642.459 699.438C605.328 675.835 567.382 652.063 527.197 628.278C483.802 602.591 438.017 577.024 393.201 553.512C360.774 536.454 329.641 520.476 301.575 502.575C297.106 499.724 292.646 497.013 288.519 493.999C159.077 399.461 160.761 284.13 136.967 296.471" stroke="#1C64EB" stroke-width="0.864782" stroke-miterlimit="10"/>
<path d="M1373.64 1288.83C1382.99 1273.13 1298.51 1258.96 1238.06 1121.09C1227.65 1097.36 1218.7 1074.12 1208.22 1052.85C1175.62 986.646 1141.26 939.402 1083.1 897.434C1038.87 865.527 980.094 838.106 897.871 810.519C889.721 807.783 881.526 805.181 873.338 802.578C831.367 789.223 788.036 776.223 750.121 758.777C710.848 740.86 679.334 721.563 647.508 703.768C608.482 681.946 569.029 660.031 528.177 637.859C483.885 613.819 438.168 589.597 394.105 566.332C362.106 549.397 331.643 532.955 304.327 514.337C299.968 511.368 295.639 508.51 291.616 505.395C163.161 405.944 169.937 285.476 150.109 295.759" stroke="#1C64EB" stroke-width="0.864782" stroke-miterlimit="10"/>
<path d="M1378.67 1286.1C1386.14 1273.54 1297.93 1263.31 1235.65 1124.66C1225.14 1101.25 1216.17 1078.41 1206.12 1057.32C1174.72 991.424 1143.42 942.362 1086.51 898.691C1044.01 866.082 986.645 837.59 904.825 809.314C896.797 806.541 888.732 803.89 880.666 801.255C839.316 787.722 796.801 774.859 758.669 758.653C719.147 741.979 685.871 724.417 652.558 708.111C611.635 688.074 570.682 668.015 529.159 647.446C483.972 625.066 438.327 602.175 395.009 579.151C363.435 562.338 333.645 545.433 307.079 526.099C302.833 523.009 298.633 520.007 294.714 516.792C167.342 412.382 179.116 286.821 163.256 295.051" stroke="#1C64EB" stroke-width="0.864782" stroke-miterlimit="10"/>
<path d="M1383.69 1283.37C1389.29 1273.95 1297.37 1267.64 1233.24 1128.22C1222.62 1105.13 1213.67 1082.68 1204.02 1061.79C1173.95 996.16 1145.53 945.341 1089.91 899.947C1049.1 866.635 993.176 837.078 911.769 808.108C903.864 805.293 895.925 802.597 887.984 799.927C847.254 786.22 805.562 773.494 767.215 758.523C727.439 743.089 692.407 727.272 657.605 712.441C614.797 694.198 572.334 676 530.138 657.027C484.054 636.311 438.476 614.748 395.908 591.968C364.762 575.272 335.677 557.863 309.822 537.856C305.696 534.643 301.621 531.496 297.803 528.189C171.621 418.783 188.284 288.171 176.39 294.344" stroke="#1C64EB" stroke-width="0.864782" stroke-miterlimit="10"/>
<path d="M1388.71 1280.63C1392.45 1274.35 1296.85 1271.96 1230.84 1131.79C1220.11 1109.02 1211.14 1086.98 1201.92 1066.27C1173.03 1000.95 1147.6 948.347 1093.32 901.202C1054.17 867.198 999.712 836.578 918.722 806.898C910.94 804.045 903.13 801.3 895.31 798.593C855.202 784.707 814.325 772.119 775.763 758.383C735.735 744.19 698.954 730.123 662.653 716.766C617.96 700.322 573.991 683.981 531.114 666.599C484.141 647.558 438.627 627.314 396.803 604.776C366.083 588.201 337.663 570.34 312.566 549.607C308.55 546.276 304.61 542.984 300.892 539.574C176 425.137 197.458 289.51 189.525 293.625" stroke="#1C64EB" stroke-width="0.864782" stroke-miterlimit="10"/>
<path d="M1393.74 1277.9C1395.6 1274.77 1296.36 1276.26 1228.43 1135.37C1217.6 1112.9 1208.6 1091.28 1199.81 1070.75C1172.11 1005.76 1149.62 951.376 1096.72 902.463C1059.2 867.769 1006.21 836.191 925.673 805.698C918.01 802.818 910.331 800.014 902.637 797.272C863.15 783.208 823.093 770.76 784.314 758.264C744.033 745.317 705.494 733.043 667.702 721.11C621.115 706.525 575.625 692.068 532.096 676.192C484.211 658.915 438.782 639.902 397.711 617.604C367.415 601.15 339.667 582.837 315.318 561.376C311.412 557.927 307.613 554.484 303.99 550.977C180.499 431.486 206.634 290.869 202.67 292.923" stroke="#1C64EB" stroke-width="0.864782" stroke-miterlimit="10"/>
<path d="M1398.76 1275.17C1398.76 1275.17 1295.89 1280.53 1226.02 1138.93C1156.15 997.331 1163.72 894.209 932.62 804.49C701.517 714.771 452.835 699.89 318.064 573.129C183.293 446.368 215.808 292.217 215.808 292.217" stroke="#1C64EB" stroke-width="0.864782" stroke-miterlimit="10"/>
<path d="M1511.43 1302.43C1521.58 1264.61 1500.72 1222.24 1469.45 1195.58C1438.18 1168.92 1398.26 1155.05 1359.04 1143.78C1277.93 1120.45 1194.76 1105.41 1114.85 1077.78C1034.93 1050.15 956.56 1008.12 903.244 942.318C870.462 901.861 848.329 853.913 813.842 814.828C744.693 736.452 637.798 705.269 547.356 652.494C478.929 612.563 476.467 566.177 472.691 497.549C469.026 430.929 439.72 364.637 391.978 314.966C344.237 265.294 278.492 232.701 210.901 225.19" stroke="#1C64EB" stroke-width="0.864782" stroke-miterlimit="10"/>
<path d="M1515.67 1299.19C1523.19 1262.24 1500.82 1220.39 1468.27 1194.35C1435.65 1168.29 1394.65 1154.53 1354.42 1142.86C1272.99 1119.32 1189.68 1103.05 1110.6 1073.76C1031.71 1044.72 955.276 1001.23 901.918 935.392C869.247 895.079 846.582 847.777 811.931 809.158C742.502 731.753 636.345 700.38 546.297 647.775C478.291 608.051 474.195 561.889 469.175 493.89C464.525 428.134 435.449 362.4 387.327 314.246C339.377 266.096 274.045 235.049 206.897 227.849" stroke="#1C64EB" stroke-width="0.864782" stroke-miterlimit="10"/>
<path d="M1519.92 1295.95C1524.8 1259.88 1500.93 1218.54 1467.11 1193.11C1433.14 1167.66 1391.05 1154 1349.8 1141.95C1268.05 1118.19 1184.67 1100.53 1106.38 1069.74C1028.57 1039.13 954.006 994.326 900.61 928.464C868.044 888.294 844.856 841.635 810.036 803.483C740.33 727.052 634.91 695.488 545.251 643.055C477.665 603.537 471.728 557.611 465.675 490.225C459.846 425.341 431.194 360.158 382.691 313.514C334.528 266.885 269.609 237.382 202.906 230.496" stroke="#1C64EB" stroke-width="0.864782" stroke-miterlimit="10"/>
<path d="M1524.17 1292.71C1526.42 1257.51 1501.03 1216.69 1465.94 1191.87C1430.62 1167.03 1387.44 1153.47 1345.17 1141.02C1263.11 1117.06 1179.62 1098.09 1102.14 1065.71C1025.39 1033.63 952.727 987.424 899.292 921.527C866.837 881.5 843.121 835.491 808.131 797.805C738.145 722.345 633.465 690.588 544.195 638.333C477.03 599.021 469.362 553.33 462.158 486.558C455.251 422.547 426.805 358.032 378.035 312.785C329.551 267.799 265.151 239.721 198.895 233.149" stroke="#1C64EB" stroke-width="0.864782" stroke-miterlimit="10"/>
<path d="M1528.43 1289.47C1528.03 1255.15 1501.14 1214.84 1464.77 1190.64C1428.1 1166.4 1383.84 1152.93 1340.55 1140.11C1258.17 1115.93 1174.57 1095.67 1097.91 1061.69C1022.21 1028.13 951.456 980.527 897.98 914.6C865.631 874.713 841.39 829.35 806.234 792.133C735.968 717.645 632.026 685.698 543.15 633.612C476.406 594.507 467.014 549.05 458.656 482.897C450.683 419.763 422.517 355.836 373.397 312.057C324.671 268.63 260.716 242.061 194.903 235.8" stroke="#1C64EB" stroke-width="0.864782" stroke-miterlimit="10"/>
<path d="M1532.67 1286.23C1529.64 1252.78 1501.24 1213 1463.6 1189.4C1425.57 1165.77 1380.23 1152.41 1335.92 1139.19C1253.21 1114.8 1169.51 1093.25 1093.66 1057.67C1019.02 1022.65 950.163 973.627 896.651 907.669C864.41 867.928 839.641 823.208 804.321 786.457C733.778 712.943 630.573 680.8 542.087 628.892C475.763 589.992 464.647 544.777 455.135 479.235C446.098 416.979 418.212 353.636 368.741 311.335C319.778 269.47 256.261 244.404 190.891 238.46" stroke="#1C64EB" stroke-width="0.864782" stroke-miterlimit="10"/>
<path d="M1536.92 1282.99C1531.26 1250.42 1501.4 1211.07 1462.43 1188.17C1423.1 1165.06 1376.63 1151.88 1331.3 1138.27C1248.28 1113.67 1164.48 1090.84 1089.43 1053.65C1015.85 1017.18 948.895 966.733 895.343 900.75C863.209 861.149 837.915 817.076 802.425 780.791C731.602 708.249 629.134 675.915 541.042 624.177C475.139 585.484 462.311 540.511 451.633 475.579C441.539 414.206 413.933 351.442 364.101 310.616C314.902 270.31 251.822 246.756 186.897 241.12" stroke="#1C64EB" stroke-width="0.864782" stroke-miterlimit="10"/>
<path d="M1541.17 1279.75C1532.87 1248.05 1501.5 1209.21 1461.26 1186.93C1420.58 1164.41 1373.02 1151.35 1326.67 1137.36C1243.33 1112.53 1159.43 1088.43 1085.19 1049.62C1012.67 1011.7 947.61 959.831 894.022 893.816C861.999 854.359 836.173 810.932 800.52 775.113C729.417 703.542 627.686 671.018 539.987 619.454C474.504 580.967 459.971 536.243 448.119 471.909C436.978 411.421 409.642 349.233 359.451 309.88C310.024 271.13 247.372 249.084 182.891 243.765" stroke="#1C64EB" stroke-width="0.864782" stroke-miterlimit="10"/>
<path d="M1545.42 1276.51C1534.49 1245.68 1501.61 1207.35 1460.09 1185.7C1418.06 1163.78 1369.44 1150.73 1322.05 1136.44C1238.44 1111.23 1154.39 1086.04 1080.96 1045.6C1009.49 1006.24 946.338 952.935 892.712 886.886C860.796 847.569 834.444 804.788 798.623 769.442C727.242 698.839 626.249 666.125 538.937 614.732C473.873 576.455 457.637 531.976 444.613 468.246C432.43 408.642 405.366 347.026 354.809 309.156C305.156 271.961 242.934 251.428 178.892 246.418" stroke="#1C64EB" stroke-width="0.864782" stroke-miterlimit="10"/>
<path d="M1549.67 1273.28C1536.1 1243.32 1501.72 1205.5 1458.92 1184.46C1415.54 1163.14 1365.84 1150.19 1317.43 1135.53C1233.5 1110.1 1149.34 1083.66 1076.72 1041.58C1006.31 1000.79 945.056 946.036 891.392 879.959C859.584 840.788 832.708 798.654 796.715 763.768C725.058 694.138 624.798 661.232 537.879 610.013C473.235 571.942 455.304 527.714 441.097 464.586C427.878 405.869 401.083 344.823 350.158 308.429C300.285 272.787 238.48 253.77 174.887 249.07" stroke="#1C64EB" stroke-width="0.864782" stroke-miterlimit="10"/>
<path d="M1553.92 1270.03C1537.71 1240.95 1501.82 1203.64 1457.75 1183.23C1413.02 1162.51 1362.24 1149.66 1312.8 1134.61C1228.56 1108.96 1144.29 1081.28 1072.49 1037.56C1003.13 995.344 943.781 939.143 890.076 873.036C858.375 834.005 830.973 792.517 794.815 758.1C722.877 689.442 623.358 656.341 536.827 605.3C472.604 567.436 452.989 523.46 437.585 460.929C423.341 403.097 396.804 342.619 345.506 307.71C295.417 273.617 234.033 256.118 170.88 251.732" stroke="#1C64EB" stroke-width="0.864782" stroke-miterlimit="10"/>
<path d="M1558.17 1266.8C1539.33 1238.59 1501.93 1201.79 1456.58 1181.99C1410.49 1161.87 1358.63 1149.13 1308.18 1133.69C1223.62 1107.82 1139.24 1078.9 1068.25 1033.54C999.947 989.899 942.505 932.244 888.758 866.106C857.168 827.217 829.238 786.373 792.913 752.425C720.695 684.739 621.913 651.448 535.777 600.577C471.975 562.919 450.681 519.195 434.078 457.265C418.813 400.322 392.538 340.408 340.867 306.982C290.561 274.439 229.593 258.455 166.887 254.383" stroke="#1C64EB" stroke-width="0.864782" stroke-miterlimit="10"/>
<path d="M1562.42 1263.55C1540.94 1236.22 1502.03 1199.93 1455.41 1180.75C1407.97 1161.23 1355.02 1148.59 1303.56 1132.77C1218.68 1106.68 1134.19 1076.52 1064.01 1029.52C996.753 984.462 941.221 925.342 887.439 859.172C855.953 820.427 827.497 780.229 791.006 746.751C718.508 680.035 620.466 646.551 534.72 595.858C471.338 558.406 448.376 514.936 430.566 453.601C414.287 397.545 388.269 338.192 336.216 306.255C285.702 275.257 225.144 260.799 162.88 257.038" stroke="#1C64EB" stroke-width="0.864782" stroke-miterlimit="10"/>
<path d="M1566.67 1260.32C1542.55 1233.86 1502.14 1198.09 1454.24 1179.52C1405.45 1160.6 1351.42 1148.06 1298.94 1131.86C1213.74 1105.56 1129.13 1074.16 1059.78 1025.5C993.569 979.034 939.949 918.446 886.129 852.248C854.754 813.646 825.769 774.091 789.109 741.079C716.334 675.338 619.026 641.661 533.674 591.138C470.713 553.892 446.086 510.673 427.063 449.94C409.781 394.774 384.012 335.977 331.577 305.527C280.855 276.075 220.705 263.136 158.887 259.69" stroke="#1C64EB" stroke-width="0.864782" stroke-miterlimit="10"/>
<path d="M1570.92 1257.08C1544.16 1231.49 1502.24 1196.23 1453.07 1178.29C1402.92 1159.97 1347.81 1147.53 1294.31 1130.94C1208.79 1104.43 1124.07 1071.81 1055.54 1021.48C990.373 973.613 938.666 911.547 884.811 845.318C853.543 806.856 824.03 767.951 787.206 735.405C714.151 670.635 617.581 636.767 532.621 586.418C470.081 549.379 443.802 506.414 423.548 446.276C405.269 391.999 379.751 333.758 326.924 304.801C276 276.887 216.252 265.475 154.881 262.342" stroke="#1C64EB" stroke-width="0.864782" stroke-miterlimit="10"/>
<path d="M1575.17 1253.84C1545.78 1229.13 1502.34 1194.39 1451.91 1177.05C1400.4 1159.34 1344.21 1147 1289.69 1130.02C1203.85 1103.3 1119.01 1069.46 1051.31 1017.46C987.179 968.199 937.392 904.654 883.496 838.394C852.335 800.079 822.3 761.816 785.307 729.736C711.971 665.938 616.141 631.877 531.573 581.702C469.454 544.869 441.526 502.155 420.043 442.618C400.78 389.229 375.497 331.538 322.284 304.083C271.156 277.7 211.814 267.828 150.885 265.006" stroke="#1C64EB" stroke-width="0.864782" stroke-miterlimit="10"/>
<path d="M1579.42 1250.6C1547.39 1226.76 1502.44 1192.53 1450.74 1175.81C1397.87 1158.71 1340.6 1146.47 1285.07 1129.1C1198.91 1102.16 1113.95 1067.11 1047.07 1013.43C983.973 962.776 936.115 897.748 882.177 831.457C851.123 793.282 820.561 755.669 783.401 724.059C709.791 661.231 614.693 626.98 530.517 576.979C468.818 540.352 439.254 497.889 416.53 438.955C396.284 386.449 371.237 329.309 317.635 303.353C266.309 278.501 207.364 270.163 146.878 267.652" stroke="#1C64EB" stroke-width="0.864782" stroke-miterlimit="10"/>
<path d="M1583.67 1247.36C1549 1224.4 1502.55 1190.7 1449.57 1174.58C1395.35 1158.08 1337 1145.94 1280.44 1128.19C1193.97 1101.04 1108.87 1064.77 1042.84 1009.41C980.769 957.377 934.834 890.856 880.861 824.534C849.918 786.501 818.826 749.532 781.497 718.388C707.607 656.531 613.248 622.087 529.461 572.257C468.186 535.84 436.991 493.619 413.015 435.285C391.801 383.662 366.982 327.067 312.982 302.62C261.462 279.296 202.915 272.498 142.868 270.301" stroke="#1C64EB" stroke-width="0.864782" stroke-miterlimit="10"/>
<path d="M1587.92 1244.12C1550.61 1222.03 1502.65 1188.85 1448.39 1173.34C1392.82 1157.45 1333.39 1145.41 1275.81 1127.27C1189.02 1099.92 1103.79 1062.44 1038.6 1005.39C977.556 951.972 933.555 883.955 879.54 817.601C848.702 779.712 817.085 743.389 779.592 712.711C705.422 651.825 611.8 617.191 528.405 567.535C467.551 531.324 434.736 489.348 409.502 431.622C387.321 380.877 362.731 324.828 308.336 301.893C256.62 280.09 198.467 274.839 138.869 272.953" stroke="#1C64EB" stroke-width="0.864782" stroke-miterlimit="10"/>
<path d="M1592.17 1240.88C1552.23 1219.66 1502.75 1187 1447.23 1172.11C1390.3 1156.83 1329.76 1145.01 1271.2 1126.36C1184.03 1098.96 1098.71 1060.11 1034.37 1001.37C974.349 946.575 932.283 877.058 878.231 810.677C847.503 772.931 815.357 737.25 777.698 707.042C703.248 647.128 610.364 612.303 527.36 562.821C466.927 526.816 432.501 485.081 406.001 427.967C382.864 378.102 358.494 322.593 303.696 301.176C251.79 280.886 194.031 277.189 134.876 275.614" stroke="#1C64EB" stroke-width="0.864782" stroke-miterlimit="10"/>
<path d="M1596.43 1237.64C1553.85 1217.3 1502.84 1185.26 1446.06 1170.87C1387.76 1156.31 1326.15 1144.48 1266.57 1125.44C1179.09 1097.84 1093.62 1057.79 1030.13 997.351C971.126 941.184 931.005 870.162 876.911 803.749C846.29 766.143 813.617 731.113 775.788 701.371C701.061 642.431 608.914 607.41 526.302 558.102C466.289 522.303 430.26 480.804 402.485 424.307C378.397 375.316 354.242 320.347 299.044 300.449C246.948 281.673 189.579 279.527 130.868 278.269" stroke="#1C64EB" stroke-width="0.864782" stroke-miterlimit="10"/>
<path d="M1600.67 1234.4C1555.46 1214.93 1502.94 1183.42 1444.89 1169.63C1385.23 1155.68 1322.54 1143.95 1261.95 1124.52C1174.15 1096.7 1088.53 1055.46 1025.9 993.329C967.897 935.794 929.724 863.263 875.598 796.822C845.088 759.359 811.885 724.972 773.891 695.699C698.883 637.731 607.474 602.52 525.254 553.386C465.662 517.793 428.042 476.522 398.976 420.646C373.949 372.521 349.995 318.094 294.4 299.728C242.115 282.456 185.139 281.874 126.87 280.927" stroke="#1C64EB" stroke-width="0.864782" stroke-miterlimit="10"/>
<path d="M1604.92 1231.17C1557.07 1212.57 1503.05 1181.56 1443.72 1168.4C1382.71 1155.05 1318.94 1143.42 1257.32 1123.61C1169.21 1095.58 1083.43 1053.14 1021.66 989.307C964.666 930.407 928.445 856.367 874.281 789.892C843.875 752.573 810.151 718.835 771.989 690.024C696.702 633.027 606.032 597.623 524.204 548.663C465.033 513.276 425.825 472.23 395.472 416.979C369.506 369.718 345.754 315.823 289.757 298.997C237.276 283.224 180.69 284.209 122.867 283.576" stroke="#1C64EB" stroke-width="0.864782" stroke-miterlimit="10"/>
<path d="M1609.17 1227.92C1558.68 1210.2 1503.15 1179.72 1442.55 1167.16C1380.19 1154.42 1315.33 1142.89 1252.7 1122.69C1164.26 1094.44 1078.32 1050.83 1017.43 985.288C961.43 925.023 927.173 849.471 872.967 782.965C842.672 745.788 808.419 712.693 770.091 684.353C694.523 628.327 604.591 592.732 523.155 543.946C464.405 508.766 423.621 467.936 391.966 413.321C365.072 366.918 341.512 313.563 285.115 298.273C232.45 283.996 176.251 286.552 118.876 286.233" stroke="#1C64EB" stroke-width="0.864782" stroke-miterlimit="10"/>
<path d="M1613.43 1224.69C1560.3 1207.83 1503.26 1177.86 1441.38 1165.93C1377.67 1153.79 1311.73 1142.36 1248.08 1121.77C1159.33 1093.31 1073.21 1048.52 1013.19 981.263C958.189 919.635 925.895 842.569 871.651 776.035C841.463 738.998 806.685 706.55 768.187 678.675C692.345 623.62 603.144 587.836 522.103 539.22C463.773 504.246 421.418 463.626 388.452 409.651C360.637 364.099 337.264 311.281 280.463 297.54C227.605 284.748 171.803 288.887 114.863 288.88" stroke="#1C64EB" stroke-width="0.864782" stroke-miterlimit="10"/>
<path d="M1617.67 1221.45C1561.91 1205.47 1503.36 1176.02 1440.21 1164.69C1375.15 1153.16 1308.12 1141.83 1243.45 1120.86C1154.38 1092.18 1068.09 1046.21 1008.95 977.248C954.935 914.26 924.613 835.676 870.327 769.112C840.247 732.221 804.94 700.416 766.277 673.011C690.155 618.928 601.694 582.95 521.042 534.511C463.133 499.744 419.216 459.329 384.934 406.001C356.199 361.296 333.007 309.016 275.813 296.827C222.762 285.52 167.35 291.242 110.859 291.545" stroke="#1C64EB" stroke-width="0.864782" stroke-miterlimit="10"/>
<path d="M1621.92 1218.21C1563.52 1203.1 1503.47 1174.17 1439.04 1163.46C1372.63 1152.53 1304.52 1141.3 1238.83 1119.94C1149.44 1091.05 1062.96 1043.9 1004.72 973.223C951.684 908.876 923.334 828.775 869.013 762.178C839.04 725.428 803.208 694.269 764.378 667.333C687.976 614.221 600.253 578.053 519.989 529.786C462.5 495.224 417.025 455.001 381.426 402.331C351.777 358.465 328.76 306.724 271.166 296.093C217.923 286.265 162.907 293.576 106.859 294.19" stroke="#1C64EB" stroke-width="0.864782" stroke-miterlimit="10"/>
<path d="M1626.17 1214.97C1565.13 1200.74 1503.57 1172.32 1437.87 1162.22C1370.11 1151.9 1300.91 1140.77 1234.21 1119.02C1144.5 1089.91 1057.83 1041.58 1000.48 969.195C948.423 903.49 922.057 821.869 867.695 755.241C837.833 718.634 801.469 688.122 762.476 661.652C685.797 609.514 598.81 573.15 518.938 525.056C461.868 490.705 414.847 450.665 377.919 398.66C347.357 355.624 324.511 304.426 266.522 295.356C213.081 287.003 158.464 295.904 102.859 296.835" stroke="#1C64EB" stroke-width="0.864782" stroke-miterlimit="10"/>
<path d="M1630.42 1211.73C1566.75 1198.37 1503.68 1170.47 1436.71 1160.98C1367.59 1151.26 1297.31 1140.24 1229.58 1118.1C1139.56 1088.78 1052.69 1039.28 996.246 965.175C945.16 898.113 920.783 814.976 866.379 748.318C836.621 711.854 799.739 681.987 760.572 655.981C683.613 604.814 597.367 568.262 517.884 520.34C461.234 486.195 412.666 446.333 374.403 395C342.938 352.79 320.254 302.131 261.872 294.636C208.233 287.752 154.015 298.255 98.8554 299.494" stroke="#1C64EB" stroke-width="0.864782" stroke-miterlimit="10"/>
<path d="M1634.67 1208.49C1568.36 1196.01 1503.79 1168.63 1435.54 1159.75C1365.07 1150.64 1293.7 1139.72 1224.96 1117.19C1134.61 1087.65 1047.4 1037.07 992.006 961.158C941.756 892.826 919.499 808.081 865.063 741.394C835.416 705.073 798.002 675.854 758.669 650.317C681.43 600.121 595.922 563.379 516.833 515.627C460.603 481.688 410.499 441.989 370.895 391.346C338.528 349.951 315.996 299.838 257.225 293.919C203.386 288.498 149.568 300.603 94.8524 302.159" stroke="#1C64EB" stroke-width="0.864782" stroke-miterlimit="10"/>
<path d="M1638.92 1205.25C1569.98 1193.64 1503.89 1166.77 1434.36 1158.51C1362.54 1150.01 1290.09 1139.19 1220.33 1116.27C1129.67 1086.52 1042.32 1034.71 987.77 957.135C938.54 887.4 918.223 801.181 863.746 734.463C834.206 698.283 796.267 669.709 756.768 644.641C679.249 595.417 594.48 558.482 515.781 510.907C459.972 477.174 408.33 437.632 367.386 387.685C334.115 347.099 311.737 297.458 252.58 293.192C198.536 289.162 145.126 302.943 90.8536 304.81" stroke="#1C64EB" stroke-width="0.864782" stroke-miterlimit="10"/>
<path d="M1643.17 1202.01C1571.59 1191.28 1504 1164.93 1433.2 1157.28C1360.03 1149.38 1286.49 1138.66 1215.71 1115.36C1124.73 1085.4 1037.24 1032.37 983.537 953.116C935.33 881.975 916.944 794.286 862.432 727.537C833 691.502 794.532 663.572 754.87 638.97C677.074 590.72 593.039 553.592 514.734 506.187C459.346 472.661 406.174 433.265 363.881 384.018C329.713 344.234 307.477 295.214 247.936 292.461C193.683 289.955 140.68 305.281 86.8566 307.459" stroke="#1C64EB" stroke-width="0.864782" stroke-miterlimit="10"/>
</g>
</svg>
