<svg width="1440" height="2185" viewBox="0 0 1440 2185" fill="none" xmlns="http://www.w3.org/2000/svg">
<g opacity="0.8">
<path d="M1386.82 1812.18C1421.49 1804.56 1447.28 1775.71 1460.09 1742.93C1472.9 1710.15 1474.61 1673.55 1475.05 1637.61C1475.63 1590.1 1474.02 1541.19 1456.14 1495.93C1431.23 1432.85 1377.77 1384.26 1323.05 1343.05C1225.89 1269.89 1118.86 1211.51 1009.57 1159.98C892.411 1104.73 767.573 1053.81 680.042 956.986C601.491 870.101 582.666 775.867 571.438 667.38C560.966 566.197 573.311 461.373 533.69 362.593C481.703 232.978 349.718 141.825 213.926 116.544C78.1335 91.2635 -59.5387 124.358 -178.529 183.794" stroke="#1C64EB" stroke-width="0.864782" stroke-miterlimit="10"/>
<path d="M1404 1810.63C1434.55 1804.66 1455.26 1776.59 1465.05 1743.62C1474.8 1710.75 1475.36 1674 1473.89 1638.31C1471.95 1591.31 1468.7 1542.61 1449.11 1497.41C1421.28 1433.15 1366.13 1381.73 1310.44 1337.85C1215.54 1263.07 1110.44 1203.74 1003.58 1151.08C889.913 1095.08 768.185 1044.49 682.774 948.717C604.863 861.35 583.689 767.29 569.304 660.763C555.644 561.297 563.224 459.592 521.653 363.991C467.289 238.97 336.661 151.149 202.102 125.166C67.0911 98.9677 -68.1312 126.922 -186.654 182.26" stroke="#1C64EB" stroke-width="0.864782" stroke-miterlimit="10"/>
<path d="M1421.18 1809.07C1447.61 1804.76 1463.23 1777.57 1470 1744.31C1476.69 1711.44 1476.12 1674.46 1472.71 1639C1468.26 1592.55 1463.33 1544.03 1442.07 1498.88C1411.26 1433.44 1354.49 1379.26 1297.83 1332.65C1205.14 1256.4 1102.03 1195.98 997.591 1142.19C887.417 1085.46 768.802 1035.16 685.51 940.444C608.249 852.585 584.948 758.682 567.165 654.142C550.539 556.385 553.16 457.847 509.615 365.389C452.912 244.999 323.604 160.474 190.275 133.792C56.0418 106.672 -76.7272 129.483 -194.785 180.727" stroke="#1C64EB" stroke-width="0.864782" stroke-miterlimit="10"/>
<path d="M1438.35 1807.52C1460.66 1804.85 1471.19 1778.68 1474.95 1745C1478.61 1712.23 1476.88 1674.94 1471.55 1639.69C1464.6 1593.81 1457.92 1545.44 1435.04 1500.35C1401.22 1433.72 1342.85 1376.84 1285.21 1327.45C1194.68 1249.86 1093.64 1188.24 991.609 1133.3C884.94 1075.86 769.437 1025.81 688.248 932.174C611.639 843.817 586.083 750.088 565.037 647.525C545.326 551.47 543.14 456.132 497.585 366.786C438.582 251.054 310.55 169.801 178.458 142.415C45.0098 114.373 -85.3094 132.044 -202.899 179.191" stroke="#1C64EB" stroke-width="0.864782" stroke-miterlimit="10"/>
<path d="M1455.53 1805.96C1473.72 1804.95 1479.2 1779.9 1479.91 1745.69C1480.58 1713.11 1477.67 1675.43 1470.38 1640.39C1460.95 1595.09 1452.47 1546.86 1428 1501.83C1391.13 1434 1331.21 1374.47 1272.6 1322.25C1184.16 1243.44 1085.26 1180.54 985.622 1124.41C882.47 1066.3 770.084 1016.45 690.985 923.9C615.029 835.032 587.208 741.473 562.903 640.906C540.101 546.546 533.14 454.446 485.552 368.178C424.297 257.137 297.497 179.119 166.639 151.031C33.9645 122.077 -93.9018 134.606 -211.027 177.658" stroke="#1C64EB" stroke-width="0.864782" stroke-miterlimit="10"/>
<path d="M1472.71 1804.41C1486.77 1805.06 1487.26 1781.21 1484.86 1746.38C1482.63 1714.09 1478.47 1675.94 1469.21 1641.08C1457.34 1596.38 1447 1548.29 1420.96 1503.31C1381 1434.28 1319.56 1372.15 1259.99 1317.05C1173.58 1237.13 1076.9 1172.86 979.635 1115.52C879.997 1056.78 770.741 1007.07 693.718 915.629C618.419 826.241 588.323 732.862 560.766 634.29C534.861 541.621 523.176 452.791 473.515 369.58C410.059 263.253 284.395 188.731 154.812 159.661C22.8757 130.061 -102.494 137.167 -219.151 176.122" stroke="#1C64EB" stroke-width="0.864782" stroke-miterlimit="10"/>
<path d="M1489.88 1802.86C1499.83 1805.16 1495.41 1782.61 1489.81 1747.07C1484.78 1715.13 1479.29 1676.46 1468.04 1641.77C1453.74 1597.69 1441.5 1549.72 1413.92 1504.79C1370.83 1434.57 1307.89 1369.87 1247.37 1311.86C1162.93 1230.91 1068.55 1165.22 973.641 1106.63C877.526 1047.3 771.408 997.681 696.445 907.365C621.812 817.447 589.419 724.248 558.626 627.678C529.61 536.692 513.253 451.169 461.472 370.983C395.872 269.392 271.322 198.105 142.982 168.287C11.8213 137.812 -111.087 139.729 -227.279 174.59" stroke="#1C64EB" stroke-width="0.864782" stroke-miterlimit="10"/>
<path d="M1507.06 1801.3C1512.89 1805.26 1503.66 1784.07 1494.77 1747.76C1487.04 1716.21 1480.13 1677 1466.87 1642.47C1450.17 1599.01 1435.98 1551.16 1406.88 1506.26C1360.62 1434.88 1296.2 1367.63 1234.75 1306.65C1152.23 1224.77 1060.21 1157.6 967.647 1097.74C875.052 1037.85 772.084 988.272 699.174 899.091C625.219 808.631 590.512 715.622 556.484 621.059C524.352 531.756 503.372 449.562 449.428 372.378C381.752 275.543 258.246 207.469 131.148 176.91C0.755713 145.559 -119.694 142.291 -235.418 173.053" stroke="#1C64EB" stroke-width="0.864782" stroke-miterlimit="10"/>
<path d="M1524.24 1799.75C1525.94 1805.35 1512.01 1785.55 1499.72 1748.45C1489.4 1717.31 1480.99 1677.52 1465.7 1643.16C1446.64 1600.32 1430.43 1552.61 1399.85 1507.74C1350.4 1435.18 1284.5 1365.43 1222.15 1301.45C1141.5 1218.71 1051.89 1150.01 961.675 1088.85C872.598 1028.45 772.797 978.848 701.926 890.823C628.651 799.812 591.612 706.996 554.369 614.443C519.105 526.816 493.572 447.978 437.417 373.776C367.734 281.704 245.202 216.829 119.351 185.533C-10.2879 153.299 -128.275 144.855 -243.531 171.52" stroke="#1C64EB" stroke-width="0.864782" stroke-miterlimit="10"/>
<path d="M1541.41 1798.2C1539 1805.46 1520.46 1787.02 1504.67 1749.15C1491.86 1718.4 1481.87 1678.06 1464.53 1643.86C1443.12 1601.64 1424.86 1554.07 1392.81 1509.22C1340.13 1435.51 1272.76 1363.27 1209.53 1296.26C1130.69 1212.71 1043.56 1142.47 955.678 1079.96C870.121 1019.09 773.498 969.407 704.652 882.552C632.068 790.979 592.676 698.369 552.225 607.828C513.826 521.872 483.797 446.406 425.371 375.175C353.757 287.867 232.126 226.185 107.51 194.156C-21.3427 161.035 -136.871 147.413 -251.659 169.988" stroke="#1C64EB" stroke-width="0.864782" stroke-miterlimit="10"/>
<path d="M1558.6 1796.64C1552.06 1805.56 1529.01 1788.46 1509.63 1749.84C1494.39 1719.46 1482.78 1678.59 1463.37 1644.56C1439.64 1602.96 1419.29 1555.54 1385.78 1510.69C1329.85 1435.85 1261 1361.14 1196.92 1291.06C1119.85 1206.77 1035.26 1134.97 949.696 1071.07C867.646 1009.79 774.228 959.959 707.389 874.284C635.5 782.139 593.741 689.742 550.092 601.208C508.54 516.927 474.089 444.832 413.335 376.569C339.87 294.021 219.061 235.538 95.6874 202.774C-32.394 168.76 -145.46 149.971 -259.783 168.444" stroke="#1C64EB" stroke-width="0.864782" stroke-miterlimit="10"/>
<path d="M1575.77 1795.09C1565.12 1805.66 1537.63 1789.86 1514.59 1750.54C1496.98 1720.5 1483.7 1679.11 1462.2 1645.25C1436.18 1604.26 1413.69 1557.01 1378.74 1512.18C1319.54 1436.2 1249.21 1359.06 1184.3 1285.86C1108.95 1200.88 1026.94 1127.51 943.702 1062.18C865.154 1000.53 774.963 950.498 710.116 866.02C638.934 773.288 594.781 681.118 547.948 594.599C503.236 511.992 464.435 443.271 401.292 377.978C326.053 300.177 205.988 244.897 83.8577 211.407C-43.4524 176.499 -154.055 152.542 -267.914 166.921" stroke="#1C64EB" stroke-width="0.864782" stroke-miterlimit="10"/>
<path d="M1592.95 1793.54C1578.17 1805.76 1546.32 1791.19 1519.54 1751.23C1499.61 1721.48 1484.63 1679.62 1461.03 1645.95C1432.73 1605.56 1408.07 1558.5 1371.7 1513.65C1309.2 1436.57 1237.39 1357.01 1171.69 1280.66C1098.01 1195.03 1018.62 1120.09 937.72 1053.29C862.657 991.31 775.724 941.019 712.857 857.748C642.396 764.416 595.824 672.489 545.822 587.979C497.935 507.047 454.858 441.683 389.267 379.369C312.335 306.286 192.929 254.235 72.0423 220.025C-54.5001 184.22 -162.644 155.1 -276.038 165.384" stroke="#1C64EB" stroke-width="0.864782" stroke-miterlimit="10"/>
<path d="M1610.13 1791.98C1591.23 1805.86 1555.05 1792.47 1524.49 1751.92C1502.27 1722.43 1485.57 1680.13 1459.86 1646.65C1429.31 1606.84 1402.45 1560.01 1364.66 1515.13C1298.85 1436.97 1225.52 1355 1159.07 1275.47C1087.02 1189.23 1010.29 1112.72 931.73 1044.4C860.138 982.152 776.494 931.53 715.587 849.48C645.858 755.538 596.843 663.864 543.682 581.366C492.61 502.112 445.327 440.079 377.224 380.77C298.679 312.369 179.86 263.577 60.2126 228.651C-65.559 191.938 -171.236 157.66 -284.162 163.848" stroke="#1C64EB" stroke-width="0.864782" stroke-miterlimit="10"/>
<path d="M1627.3 1790.43C1604.29 1805.97 1563.82 1793.68 1529.45 1752.61C1504.95 1723.32 1486.53 1680.62 1458.7 1647.34C1425.89 1608.11 1396.83 1561.51 1357.64 1516.61C1288.48 1437.37 1213.62 1353 1146.47 1270.27C1076 1183.46 1001.96 1105.39 925.752 1035.51C857.61 973.032 777.29 922.023 718.332 841.206C649.348 746.646 597.866 655.243 541.56 574.743C487.293 497.169 435.873 438.427 365.203 382.165C285.111 318.401 166.808 272.908 48.401 237.273C-76.5928 199.653 -179.821 160.221 -292.276 162.314" stroke="#1C64EB" stroke-width="0.864782" stroke-miterlimit="10"/>
<path d="M1644.48 1788.87C1617.34 1806.06 1572.6 1794.83 1534.41 1753.3C1507.63 1724.19 1487.5 1681.1 1457.53 1648.04C1422.48 1609.36 1391.19 1563.03 1350.6 1518.08C1278.09 1437.8 1201.68 1351.04 1133.85 1265.06C1064.93 1177.71 993.601 1098.1 919.759 1026.62C855.04 963.961 778.084 912.503 721.058 832.934C652.834 737.736 598.863 646.624 539.416 568.126C481.947 492.24 426.452 436.74 353.156 383.562C271.587 324.374 153.735 282.238 36.5675 245.894C-87.6559 207.359 -188.421 162.781 -300.415 160.777" stroke="#1C64EB" stroke-width="0.864782" stroke-miterlimit="10"/>
<path d="M1661.66 1787.32C1630.4 1806.16 1581.4 1795.93 1539.36 1753.99C1510.31 1725.01 1488.48 1681.57 1456.36 1648.73C1419.08 1610.61 1385.54 1564.56 1343.56 1519.56C1267.69 1438.25 1189.69 1349.12 1121.23 1259.87C1053.83 1171.99 985.212 1090.87 913.766 1017.73C852.444 954.947 778.893 902.976 723.785 824.669C656.341 728.827 599.851 638.023 537.273 561.517C476.594 487.325 417.077 435.009 341.113 384.963C258.117 330.291 140.665 291.572 24.7342 254.523C-98.7082 215.069 -197.017 165.345 -308.539 159.247" stroke="#1C64EB" stroke-width="0.864782" stroke-miterlimit="10"/>
<path d="M1678.84 1785.77C1643.46 1806.26 1590.21 1796.98 1544.32 1754.69C1512.98 1725.81 1489.45 1682.02 1455.2 1649.42C1415.69 1611.83 1379.89 1566.09 1336.53 1521.04C1257.28 1438.7 1177.66 1347.21 1108.63 1254.67C1042.69 1166.28 976.797 1083.69 907.788 1008.84C849.826 945.97 779.737 893.435 726.531 816.394C659.88 719.893 600.846 629.421 535.151 554.893C471.249 482.402 407.77 433.194 329.092 386.357C244.72 336.128 127.62 300.888 12.926 263.141C-109.75 222.768 -205.598 167.901 -316.656 157.709" stroke="#1C64EB" stroke-width="0.864782" stroke-miterlimit="10"/>
<path d="M1696.02 1784.21C1656.52 1806.36 1599.01 1797.98 1549.28 1755.38C1515.65 1726.57 1490.44 1682.46 1454.03 1650.12C1412.3 1613.04 1374.23 1567.63 1329.49 1522.51C1246.85 1439.18 1165.58 1345.33 1096.01 1249.47C1031.52 1160.6 968.33 1076.55 901.796 999.942C847.16 937.033 780.585 883.876 729.262 808.125C663.426 710.945 601.824 620.829 533.008 548.275C465.88 477.496 398.468 431.314 317.047 387.753C231.324 341.89 114.547 310.203 1.09341 271.761C-120.805 230.459 -214.201 170.463 -324.794 156.17" stroke="#1C64EB" stroke-width="0.864782" stroke-miterlimit="10"/>
<path d="M1713.2 1782.66C1669.58 1806.47 1607.8 1798.96 1554.23 1756.07C1518.31 1727.32 1491.43 1682.9 1452.87 1650.82C1408.91 1614.25 1368.58 1569.19 1322.46 1524C1236.42 1439.68 1153.46 1343.49 1083.4 1244.28C1020.32 1154.94 959.827 1069.47 895.815 991.059C844.456 928.15 781.458 874.322 732.004 799.86C667.004 701.994 602.807 612.255 530.883 541.662C460.522 472.601 389.206 429.358 305.019 389.153C217.968 347.583 101.495 319.519 -10.7253 280.389C-131.843 238.155 -222.789 173.026 -332.915 154.642" stroke="#1C64EB" stroke-width="0.864782" stroke-miterlimit="10"/>
<path d="M1730.38 1781.11C1682.64 1806.57 1616.59 1799.89 1559.19 1756.76C1520.96 1728.04 1492.42 1683.32 1451.7 1651.51C1405.52 1615.44 1362.91 1570.74 1315.42 1525.47C1225.97 1440.19 1141.29 1341.66 1070.79 1239.07C1009.07 1149.28 951.253 1062.42 889.824 982.164C841.7 919.288 782.337 864.738 734.733 791.587C670.592 693.018 603.768 603.68 528.741 535.044C455.143 467.712 379.941 427.316 292.981 390.549C204.609 353.189 88.4367 328.827 -22.554 289.005C-142.895 245.835 -231.384 175.582 -341.046 153.096" stroke="#1C64EB" stroke-width="0.864782" stroke-miterlimit="10"/>
<path d="M1747.56 1779.55C1695.7 1806.67 1625.36 1800.8 1564.15 1757.46C1523.59 1728.74 1493.4 1683.73 1450.54 1652.21C1402.13 1616.61 1357.25 1572.31 1308.39 1526.95C1215.52 1440.72 1129.07 1339.85 1058.18 1233.87C997.803 1143.63 942.614 1055.42 883.84 973.277C838.899 910.466 783.241 855.16 737.468 783.322C674.212 684.041 604.741 595.123 526.609 528.43C449.768 462.842 370.684 425.193 280.946 391.949C191.248 358.725 75.3807 338.132 -34.3797 297.633C-153.938 253.52 -239.976 178.148 -349.173 151.568" stroke="#1C64EB" stroke-width="0.864782" stroke-miterlimit="10"/>
<path d="M1764.74 1778C1708.76 1806.77 1634.13 1801.68 1569.11 1758.15C1526.22 1729.43 1494.39 1684.13 1449.37 1652.9C1398.74 1617.78 1351.58 1573.89 1301.36 1528.42C1205.07 1441.27 1116.8 1338.06 1045.57 1228.67C986.508 1137.98 933.901 1048.45 877.858 964.38C836.045 901.659 784.165 845.561 740.21 775.042C677.865 675.028 605.709 586.563 524.48 521.805C444.4 457.964 361.42 422.973 268.918 393.342C177.88 364.178 62.3351 347.426 -46.195 306.249C-164.97 261.186 -248.565 180.703 -357.291 150.029" stroke="#1C64EB" stroke-width="0.864782" stroke-miterlimit="10"/>
<path d="M1781.92 1776.45C1721.81 1806.87 1642.88 1802.55 1574.06 1758.84C1528.82 1730.1 1495.37 1684.52 1448.2 1653.59C1395.34 1618.94 1345.91 1575.47 1294.31 1529.9C1194.59 1441.82 1104.47 1336.29 1032.95 1223.47C975.173 1132.34 925.086 1041.51 871.863 955.489C833.12 892.871 785.096 835.962 742.934 766.773C681.536 666.012 606.668 578.02 522.337 515.187C439.01 453.107 352.12 420.678 256.872 394.738C164.462 369.57 49.2746 356.719 -58.032 314.873C-176.023 268.86 -257.168 183.265 -365.433 148.494" stroke="#1C64EB" stroke-width="0.864782" stroke-miterlimit="10"/>
<path d="M1799.1 1774.89C1734.88 1806.97 1651.62 1803.41 1579.02 1759.53C1531.43 1730.77 1496.35 1684.9 1447.04 1654.29C1391.95 1620.09 1340.24 1577.05 1287.29 1531.37C1184.13 1442.4 1092.1 1334.54 1020.35 1218.27C963.828 1126.7 916.198 1034.6 865.886 946.595C830.151 884.092 786.064 826.349 745.68 758.496C685.261 656.973 607.645 569.481 520.212 508.566C433.643 448.25 342.812 418.311 244.847 396.127C151.033 374.887 36.2359 365.999 -69.8436 323.486C-187.045 276.516 -265.75 185.814 -373.543 146.948" stroke="#1C64EB" stroke-width="0.864782" stroke-miterlimit="10"/>
<path d="M1816.28 1773.34C1747.94 1807.07 1660.35 1804.24 1583.97 1760.22C1534.02 1731.43 1497.33 1685.28 1445.87 1654.99C1388.54 1621.23 1334.57 1578.65 1280.25 1532.85C1173.65 1442.99 1079.67 1332.81 1007.73 1213.08C952.448 1121.06 907.189 1027.71 859.898 937.712C827.117 875.326 787.034 816.74 748.412 750.234C689.006 647.935 608.604 560.966 518.073 501.959C428.263 443.421 333.451 415.878 232.809 397.538C137.545 380.173 23.1865 375.297 -81.6728 332.124C-198.084 284.19 -274.345 188.39 -381.678 145.427" stroke="#1C64EB" stroke-width="0.864782" stroke-miterlimit="10"/>
<path d="M1833.46 1771.78C1761 1807.17 1669.07 1805.07 1588.93 1760.91C1536.61 1732.08 1498.31 1685.65 1444.71 1655.68C1385.14 1622.37 1328.9 1580.24 1273.21 1534.33C1163.17 1443.58 1067.19 1331.09 995.116 1207.87C941.04 1115.42 898.069 1020.82 853.907 928.816C824.013 866.536 788.027 807.117 751.141 741.961C692.787 638.868 609.569 552.447 515.931 495.333C422.879 438.581 324.046 413.372 220.764 398.926C124.002 385.389 10.1304 384.572 -93.5053 340.736C-209.123 291.833 -282.948 190.944 -389.813 143.883" stroke="#1C64EB" stroke-width="0.864782" stroke-miterlimit="10"/>
<path d="M1850.64 1770.23C1774.06 1807.27 1677.78 1805.89 1593.89 1761.6C1539.18 1732.72 1499.28 1686.01 1443.54 1656.37C1381.73 1623.5 1323.23 1581.85 1266.19 1535.8C1152.7 1444.2 1054.66 1329.39 982.512 1202.67C929.621 1109.78 888.847 1013.92 847.931 919.922C820.862 857.733 789.047 797.488 753.887 733.684C696.635 629.786 610.554 543.929 513.807 488.711C417.521 433.752 314.613 410.813 208.736 400.318C110.421 390.569 -2.90542 393.841 -105.321 349.352C-220.138 299.475 -291.533 193.495 -397.927 142.34" stroke="#1C64EB" stroke-width="0.864782" stroke-miterlimit="10"/>
<path d="M1867.83 1768.68C1787.12 1807.37 1686.49 1806.7 1598.85 1762.3C1541.76 1733.36 1500.26 1686.38 1442.38 1657.07C1378.33 1624.63 1317.56 1583.46 1259.15 1537.28C1142.21 1444.83 1042.07 1327.7 969.9 1197.48C918.166 1104.13 879.498 1007.02 841.944 911.031C817.643 848.911 790.078 787.856 756.624 725.418C700.515 620.694 611.53 535.435 511.676 482.096C412.156 428.938 305.126 408.219 196.709 401.717C96.7908 395.726 -15.8656 402.931 -117.139 357.979C-231.079 306.916 -300.118 196.06 -406.051 140.807" stroke="#1C64EB" stroke-width="0.864782" stroke-miterlimit="10"/>
<path d="M1885.01 1767.12C1800.18 1807.47 1695.18 1807.51 1603.81 1762.99C1544.31 1734 1501.23 1686.74 1441.22 1657.77C1374.9 1625.75 1311.89 1585.08 1252.12 1538.76C1131.72 1445.46 1029.42 1326.02 957.289 1192.28C906.697 1098.48 870.027 1000.09 835.956 902.139C814.358 840.051 791.13 778.223 759.359 717.144C704.45 611.581 612.426 527.116 509.541 475.477C406.704 424.305 295.581 405.581 184.671 403.112C83.0982 400.849 -28.9243 412.252 -128.965 366.598C-242.123 314.617 -308.714 198.614 -414.178 139.27" stroke="#1C64EB" stroke-width="0.864782" stroke-miterlimit="10"/>
<path d="M1902.19 1765.57C1813.25 1807.57 1703.86 1808.31 1608.77 1763.68C1546.87 1734.62 1502.23 1686.99 1440.05 1658.45C1371.53 1626.75 1306.15 1586.8 1245.09 1540.23C1121.09 1446.32 1016.73 1324.35 944.681 1187.07C895.21 1092.82 860.447 993.113 829.976 893.247C811.032 831.15 792.21 768.592 762.099 708.873C708.442 602.457 613.455 518.539 507.413 468.858C401.393 419.413 285.995 402.917 172.64 404.507C69.3556 405.956 -41.9791 421.577 -140.79 375.217C-253.165 322.314 -317.309 201.175 -422.306 137.734" stroke="#1C64EB" stroke-width="0.864782" stroke-miterlimit="10"/>
<path d="M1919.38 1764.02C1826.31 1807.67 1712.54 1809.1 1613.73 1764.37C1549.41 1735.26 1503.16 1687.44 1438.89 1659.15C1368.06 1627.98 1300.54 1588.32 1238.05 1541.71C1110.75 1446.77 1003.98 1322.69 932.066 1181.88C883.691 1087.16 850.742 986.096 823.989 884.356C807.642 822.199 793.306 758.961 764.832 700.604C712.494 593.317 614.482 509.965 505.275 462.243C396.068 414.522 276.356 400.234 160.602 405.91C55.5559 411.055 -55.0371 430.906 -152.615 383.843C-264.213 330.019 -325.9 203.74 -430.433 136.198" stroke="#1C64EB" stroke-width="0.864782" stroke-miterlimit="10"/>
<path d="M1369.41 1651.39C1447.37 1555.67 1488.28 1429.65 1482.85 1302.05C1481.31 1265.75 1475.65 1227.99 1455.79 1196.35C1398.4 1104.92 1267.46 1094.65 1174.64 1073.68C1062.62 1048.37 949.971 1025.72 839.67 991.433C777.744 972.183 709.962 943.364 682.383 884.201C654.457 824.289 678.612 757.864 695.89 696.946C716.024 625.961 726.298 550.098 712.1 475.457C697.903 400.822 656.82 327.375 592.198 284.674C541.595 251.233 481.094 238.807 422.244 231.981C267.613 214.044 111.362 230.018 -32.1804 278.43" stroke="#1C64EB" stroke-width="0.864782" stroke-miterlimit="10"/>
<path d="M1375.29 1649.31C1450.73 1556.67 1486.35 1434.35 1479.68 1305.54C1477.81 1269.57 1472.22 1232.24 1452.81 1200.86C1396.66 1109.98 1269.58 1097.7 1178.15 1075.63C1080.67 1052.1 982.033 1031.23 883.979 1002.24C871.909 998.69 859.863 995.03 847.845 991.231C786.623 971.892 719.712 943.362 691.71 885.502C663.323 826.894 685.337 762.025 700.731 702.494C718.58 633.085 726.929 558.973 711.711 486.007C696.338 412.968 655.071 341.026 591.23 298.711C547.851 269.948 497.396 256.374 447.159 248.259C439.383 246.997 431.613 245.921 423.883 244.842C270.5 223.439 121.16 233 -17.7538 279.853" stroke="#1C64EB" stroke-width="0.864782" stroke-miterlimit="10"/>
<path d="M1381.17 1647.23C1454.09 1557.68 1484.44 1439.05 1476.5 1309.03C1474.32 1273.4 1468.79 1236.5 1449.82 1205.38C1394.91 1115.04 1271.71 1100.75 1181.65 1077.58C1086.35 1053.06 989.251 1031.71 891.719 1002.11C879.794 998.536 867.889 994.851 856.009 991.039C795.492 971.611 729.447 943.367 701.023 886.809C672.167 829.505 692.044 766.189 705.551 708.047C721.11 640.219 727.546 567.855 711.297 496.56C694.751 425.114 653.3 354.684 590.234 312.755C547.299 284.193 497.642 270.238 448.337 261.465C440.702 260.098 433.069 258.951 425.493 257.71C273.303 232.799 130.929 235.996 -3.35582 281.282" stroke="#1C64EB" stroke-width="0.864782" stroke-miterlimit="10"/>
<path d="M1387.04 1645.15C1457.45 1558.69 1482.54 1443.76 1473.33 1312.52C1470.85 1277.23 1465.36 1240.76 1446.84 1209.9C1393.17 1120.11 1273.84 1103.82 1185.16 1079.53C1092.06 1054.04 996.535 1031.96 899.463 1001.99C887.688 998.357 875.919 994.677 864.18 990.848C804.367 971.331 739.193 943.376 710.344 888.123C681.026 832.125 698.877 770.396 710.378 713.608C723.791 647.393 728.354 576.714 710.894 507.124C693.355 437.237 651.537 368.349 589.253 326.813C546.763 298.453 497.902 284.124 449.526 274.682C442.03 273.206 434.536 271.992 427.118 270.592C276.077 242.13 140.713 238.999 11.0607 282.73" stroke="#1C64EB" stroke-width="0.864782" stroke-miterlimit="10"/>
<path d="M1392.92 1643.07C1460.81 1559.7 1480.66 1448.48 1470.15 1316.01C1467.38 1281.06 1461.93 1245.01 1443.86 1214.42C1391.43 1125.17 1275.99 1106.89 1188.67 1081.48C1097.77 1055.02 1003.78 1032.36 907.206 1001.86C895.576 998.186 883.945 994.492 872.348 990.645C813.236 971.043 748.932 943.37 719.66 889.42C689.878 834.722 705.627 774.555 715.205 719.149C726.375 654.518 729.034 585.57 710.494 517.664C691.839 449.356 649.78 381.993 588.274 340.839C546.229 312.682 498.161 297.975 450.721 287.872C443.367 286.289 436.009 284.998 428.742 283.446C278.802 251.386 150.493 241.978 25.4729 284.145" stroke="#1C64EB" stroke-width="0.864782" stroke-miterlimit="10"/>
<path d="M1398.8 1640.99C1464.18 1560.7 1478.8 1453.2 1466.98 1319.5C1463.92 1284.89 1458.51 1249.26 1440.88 1218.94C1389.69 1130.23 1278.15 1109.98 1192.18 1083.43C1103.48 1056.04 1011.03 1032.78 914.953 1001.73C903.471 998.022 891.978 994.314 880.522 990.451C822.114 970.76 758.681 943.376 728.983 890.732C698.736 837.335 712.383 778.729 720.035 724.707C728.966 661.659 729.711 594.437 710.09 528.222C690.315 461.49 648.016 395.652 587.288 354.888C545.691 326.928 498.417 311.844 451.905 301.079C444.69 299.387 437.464 298.022 430.358 296.315C281.478 260.601 160.268 244.967 39.8807 285.572" stroke="#1C64EB" stroke-width="0.864782" stroke-miterlimit="10"/>
<path d="M1404.67 1638.91C1467.54 1561.71 1476.95 1457.93 1463.8 1322.99C1460.46 1288.72 1455.07 1253.52 1437.9 1223.46C1387.94 1135.3 1280.3 1113.08 1195.69 1085.38C1109.2 1057.06 1018.26 1033.19 922.692 1001.61C911.354 997.862 900.007 994.134 888.686 990.26C830.982 970.48 768.42 943.386 738.296 892.04C707.584 839.951 719.129 782.898 724.854 730.262C731.542 668.791 730.373 603.303 709.678 538.779C688.78 473.62 646.252 409.31 586.295 368.935C545.146 341.182 498.665 325.72 453.086 314.29C446.013 312.492 438.923 311.042 431.975 309.19C284.118 269.772 170.044 247.971 54.2853 287.009" stroke="#1C64EB" stroke-width="0.864782" stroke-miterlimit="10"/>
<path d="M1410.55 1636.83C1470.9 1562.72 1475.13 1462.66 1460.63 1326.48C1457.02 1292.56 1451.59 1257.8 1434.92 1227.98C1386.02 1140.45 1282.47 1116.2 1199.2 1087.34C1114.93 1058.12 1025.52 1033.62 930.443 1001.49C919.253 997.701 908.044 993.959 896.864 990.069C839.861 970.203 778.17 943.391 747.627 893.351C716.449 842.563 725.893 787.064 729.699 735.82C734.144 675.927 731.06 612.165 709.289 549.336C687.26 485.75 644.506 422.972 585.331 382.983C544.626 355.431 498.921 339.683 454.296 327.493C447.357 325.596 440.403 324.054 433.614 322.059C286.745 278.875 179.841 250.96 68.7115 288.439" stroke="#1C64EB" stroke-width="0.864782" stroke-miterlimit="10"/>
<path d="M1416.43 1634.75C1474.27 1563.73 1473.33 1467.39 1457.46 1329.96C1453.58 1296.38 1448.15 1262.06 1431.94 1232.49C1384.27 1145.51 1284.65 1119.33 1202.71 1089.28C1120.65 1059.18 1032.76 1034.05 938.19 1001.35C927.145 997.533 916.077 993.774 905.036 989.863C848.737 969.908 787.916 943.385 756.943 894.647C725.305 845.164 732.639 791.212 734.522 741.363C736.724 683.041 731.719 621.019 708.886 559.879C685.726 497.865 642.743 436.615 584.346 397.016C544.085 369.665 499.174 353.547 455.484 340.689C448.684 338.689 441.862 337.051 435.238 334.919C289.326 287.897 189.62 253.945 83.123 289.861" stroke="#1C64EB" stroke-width="0.864782" stroke-miterlimit="10"/>
<path d="M1422.31 1632.67C1477.63 1564.73 1471.55 1472.13 1454.28 1333.45C1450.15 1300.22 1444.72 1266.32 1428.97 1237.01C1382.51 1150.59 1286.83 1122.48 1206.23 1091.23C1126.38 1060.27 1040.01 1034.48 945.937 1001.23C935.036 997.372 924.11 993.596 913.21 989.668C857.619 969.628 797.661 943.387 766.27 895.955C734.163 847.776 739.395 795.37 739.356 746.917C739.31 690.162 732.385 629.874 708.489 570.435C684.188 509.99 640.99 450.276 583.371 411.059C543.558 383.907 499.433 367.425 456.683 353.895C450.021 351.786 443.334 350.057 436.869 347.786C291.898 296.863 199.41 256.934 97.5452 291.294" stroke="#1C64EB" stroke-width="0.864782" stroke-miterlimit="10"/>
<path d="M1428.18 1630.59C1480.99 1565.74 1469.78 1476.87 1451.1 1336.95C1446.71 1304.05 1441.28 1270.58 1425.98 1241.53C1380.74 1155.66 1289 1125.66 1209.73 1093.18C1132.1 1061.39 1047.25 1034.92 953.678 1001.1C942.925 997.216 932.133 993.415 921.375 989.477C866.484 969.352 807.397 943.399 775.58 897.266C743.011 850.392 746.134 799.525 744.176 752.471C741.88 697.28 733.03 638.735 708.076 580.989C682.633 522.112 639.216 463.93 582.375 425.103C543.007 398.152 499.676 381.3 457.858 367.098C451.338 364.883 444.778 363.054 438.472 360.654C294.418 305.756 209.172 259.929 111.936 292.723" stroke="#1C64EB" stroke-width="0.864782" stroke-miterlimit="10"/>
<path d="M1434.06 1628.51C1484.36 1566.75 1468.04 1481.61 1447.93 1340.43C1443.3 1307.88 1437.85 1274.83 1423 1246.05C1378.99 1160.73 1291.19 1128.85 1213.24 1095.13C1137.84 1062.52 1054.49 1035.37 961.425 1000.97C950.817 997.055 940.167 993.237 929.55 989.282C875.364 969.067 817.144 943.401 784.908 898.573C751.874 853 752.884 803.676 749.011 758.025C744.463 704.39 733.682 647.589 707.68 591.545C681.092 534.233 637.467 477.587 581.401 439.153C542.477 412.405 499.94 395.181 459.057 380.311C452.676 377.986 446.248 376.062 440.108 373.532C296.964 314.579 218.963 262.932 126.358 294.163" stroke="#1C64EB" stroke-width="0.864782" stroke-miterlimit="10"/>
<path d="M1439.94 1626.43C1487.72 1567.76 1466.33 1486.35 1444.76 1343.92C1439.88 1311.72 1434.41 1279.09 1420.02 1250.57C1377.23 1165.79 1293.37 1132.06 1216.75 1097.08C1143.56 1063.68 1061.73 1035.82 969.165 1000.85C958.701 996.894 948.192 993.06 937.713 989.084C884.232 968.78 826.968 943.338 794.216 899.878C760.808 855.544 759.611 807.82 753.83 763.58C747.021 711.497 734.316 656.447 707.269 602.096C679.525 546.351 635.695 491.238 580.411 453.19C541.932 426.643 500.184 409.046 460.238 393.507C453.994 391.08 447.701 389.043 441.72 386.389C299.487 323.306 228.734 265.911 140.758 295.583" stroke="#1C64EB" stroke-width="0.864782" stroke-miterlimit="10"/>
<path d="M1445.82 1624.35C1491.08 1568.77 1464.64 1491.09 1441.59 1347.41C1436.48 1315.55 1430.98 1283.34 1417.04 1255.08C1375.49 1170.86 1295.56 1135.29 1220.27 1099.04C1149.29 1064.86 1068.98 1036.27 976.92 1000.72C966.604 996.737 956.233 992.882 945.896 988.889C893.115 968.5 836.726 943.336 803.551 901.185C769.681 858.149 766.357 811.96 758.675 769.13C749.605 718.6 734.971 665.297 706.884 612.649C677.981 558.469 633.954 504.896 579.444 467.233C541.413 440.885 500.452 422.917 461.445 406.713C455.34 404.177 449.178 402.03 443.356 399.26C302.038 331.961 238.524 268.906 155.181 297.015" stroke="#1C64EB" stroke-width="0.864782" stroke-miterlimit="10"/>
<path d="M1451.7 1622.27C1494.44 1569.77 1462.97 1495.82 1438.41 1350.9C1433.07 1319.38 1427.55 1287.6 1414.06 1259.6C1373.73 1175.92 1297.74 1138.54 1223.78 1100.99C1155 1066.06 1076.21 1036.73 984.66 1000.6C974.486 996.579 964.26 992.703 954.061 988.697C901.984 968.219 846.468 943.341 812.865 902.492C778.529 860.757 773.081 816.1 763.495 774.684C752.156 725.699 735.592 674.154 706.47 623.201C676.4 570.585 632.184 518.552 578.449 481.276C540.862 455.129 500.69 436.787 462.619 419.915C456.656 417.273 450.625 415.016 444.966 412.127C304.582 340.527 248.297 271.898 169.579 298.444" stroke="#1C64EB" stroke-width="0.864782" stroke-miterlimit="10"/>
<path d="M1457.58 1620.19C1497.81 1570.78 1461.32 1500.56 1435.24 1354.39C1429.68 1323.22 1424.13 1291.85 1411.08 1264.12C1371.98 1180.98 1299.92 1141.82 1227.29 1102.94C1160.72 1067.3 1083.45 1037.2 992.404 1000.47C982.378 996.425 972.286 992.525 962.233 988.505C910.86 967.938 856.215 943.343 822.186 903.806C787.388 863.369 779.806 820.247 768.323 780.245C754.707 732.804 736.216 683.021 706.068 633.765C674.824 582.72 630.421 532.217 577.471 495.33C540.329 469.385 500.948 450.668 463.819 433.128C457.994 430.377 452.098 427.999 446.598 425.001C307.17 349.021 258.084 274.897 184.002 299.884" stroke="#1C64EB" stroke-width="0.864782" stroke-miterlimit="10"/>
<path d="M1463.45 1618.11C1501.17 1571.79 1459.7 1505.29 1432.07 1357.87C1426.29 1327.04 1420.69 1296.1 1408.1 1268.64C1370.24 1186.04 1302.09 1145.13 1230.8 1104.89C1166.43 1068.56 1090.68 1037.67 1000.15 1000.34C990.27 996.265 980.322 992.337 970.403 988.3C919.731 967.648 865.956 943.334 831.505 905.1C796.242 865.963 786.518 824.369 773.153 785.781C757.253 739.886 736.835 691.864 705.67 644.301C673.25 594.823 628.671 545.853 576.492 509.356C539.802 483.613 501.206 464.519 465.01 446.314C459.323 443.452 453.565 440.958 448.218 437.851C309.784 357.398 267.862 277.868 198.409 301.296" stroke="#1C64EB" stroke-width="0.864782" stroke-miterlimit="10"/>
<path d="M1469.33 1616.03C1504.54 1572.8 1458.11 1510.03 1428.9 1361.36C1422.91 1330.88 1417.27 1300.35 1405.13 1273.15C1368.5 1191.1 1304.27 1148.45 1234.31 1106.83C1172.13 1069.84 1097.93 1038.15 1007.9 1000.21C998.165 996.108 988.359 992.156 978.582 988.101C928.614 967.36 875.702 943.329 840.832 906.407C805.101 868.575 793.235 828.508 777.99 791.339C759.797 746.984 737.455 700.728 705.275 654.857C671.667 606.95 626.915 559.511 575.514 523.403C539.268 497.861 501.466 478.389 466.206 459.523C460.658 456.552 455.037 453.935 449.85 450.726C312.45 365.716 277.653 280.871 212.828 302.732" stroke="#1C64EB" stroke-width="0.864782" stroke-miterlimit="10"/>
<path d="M1475.21 1613.95C1507.9 1573.81 1456.54 1514.75 1425.72 1364.86C1419.52 1334.71 1413.83 1304.61 1402.14 1277.67C1366.75 1196.17 1306.41 1151.81 1237.81 1108.79C1177.81 1071.15 1105.14 1038.64 1015.64 1000.09C1006.04 995.954 996.382 991.982 986.742 987.914C937.479 967.084 885.434 943.338 850.141 907.718C813.945 871.187 799.924 832.647 782.807 796.897C762.309 754.086 738.051 709.602 704.861 665.418C670.058 619.088 625.145 573.175 574.526 537.453C538.724 512.114 501.712 492.26 467.391 472.737C461.985 469.66 456.501 466.911 451.467 463.6C315.156 373.95 287.428 283.867 227.232 304.169" stroke="#1C64EB" stroke-width="0.864782" stroke-miterlimit="10"/>
<path d="M1481.08 1611.87C1511.26 1574.81 1455 1519.47 1422.55 1368.35C1416.14 1338.54 1410.41 1308.86 1399.16 1282.19C1365.02 1201.22 1308.55 1155.2 1241.33 1110.74C1183.49 1072.48 1112.37 1039.14 1023.39 999.962C1013.94 995.8 1004.42 991.804 994.917 987.719C946.355 966.803 895.18 943.339 859.469 909.026C822.801 873.795 806.627 836.786 787.645 802.447C764.835 761.188 738.657 718.465 704.465 675.967C668.464 631.218 623.388 586.825 573.548 551.493C538.19 526.355 501.975 506.121 468.583 485.936C463.315 482.749 457.976 479.877 453.088 476.464C317.93 382.094 297.204 286.855 241.64 305.594" stroke="#1C64EB" stroke-width="0.864782" stroke-miterlimit="10"/>
<path d="M1486.96 1609.79C1514.62 1575.82 1453.49 1524.19 1419.37 1371.83C1412.77 1342.36 1406.98 1313.11 1396.18 1286.7C1363.28 1206.28 1310.66 1158.6 1244.84 1112.68C1189.15 1073.83 1119.6 1039.63 1031.13 999.832C1021.82 995.643 1012.44 991.618 1003.09 987.52C955.231 966.515 904.92 943.34 868.786 910.329C831.653 876.399 813.309 840.931 792.469 807.997C767.34 768.288 739.246 727.338 704.062 686.516C666.86 643.352 621.629 600.478 572.563 565.532C537.654 540.593 502.228 519.977 469.772 499.137C464.642 495.842 459.448 492.839 454.713 489.331C320.783 390.157 306.987 289.843 256.052 307.023" stroke="#1C64EB" stroke-width="0.864782" stroke-miterlimit="10"/>
<path d="M1492.84 1607.71C1517.99 1576.83 1452 1528.9 1416.2 1375.32C1409.41 1346.19 1403.56 1317.36 1393.2 1291.22C1361.55 1211.33 1312.76 1162.04 1248.35 1114.63C1194.79 1075.21 1126.83 1040.14 1038.88 999.702C1029.72 995.488 1020.48 991.436 1011.26 987.317C964.11 966.224 914.662 943.338 878.113 911.629C840.508 879.007 819.998 845.077 797.303 813.543C769.849 775.399 739.842 736.211 703.666 697.065C665.249 655.492 619.873 614.128 571.589 579.568C537.124 554.83 502.494 533.833 470.968 512.332C465.98 508.931 460.93 505.79 456.34 502.187C323.718 398.138 316.773 292.828 270.47 308.445" stroke="#1C64EB" stroke-width="0.864782" stroke-miterlimit="10"/>
<path d="M1498.72 1605.63C1521.35 1577.84 1450.55 1533.6 1413.03 1378.81C1406.05 1350.02 1400.13 1321.61 1390.22 1295.74C1359.82 1216.38 1314.83 1165.51 1251.85 1116.59C1200.4 1076.61 1134.03 1040.66 1046.62 999.579C1037.6 995.338 1028.5 991.262 1019.43 987.125C972.975 965.947 924.394 943.346 887.427 912.943C849.353 881.625 826.67 849.24 802.13 819.104C772.341 782.528 740.421 745.109 703.26 707.625C663.628 667.65 618.114 627.789 570.604 593.621C536.584 569.085 502.751 547.7 472.157 525.549C467.307 522.038 462.406 518.763 457.962 515.072C326.74 406.076 326.55 295.837 284.879 309.892" stroke="#1C64EB" stroke-width="0.864782" stroke-miterlimit="10"/>
<path d="M1504.6 1603.55C1524.72 1578.85 1449.12 1538.29 1409.86 1382.3C1402.69 1353.84 1396.72 1325.87 1387.24 1300.26C1358.1 1221.44 1316.88 1169 1255.37 1118.54C1206.01 1078.03 1141.25 1041.18 1054.37 999.453C1045.49 995.188 1036.54 991.084 1027.6 986.934C981.851 965.666 934.131 943.358 896.747 914.25C858.201 884.241 833.342 853.403 806.958 824.658C774.833 789.657 741 754 702.857 718.181C662.007 679.815 616.355 641.449 569.619 607.668C536.043 583.333 503.007 561.56 473.342 538.754C468.631 535.133 463.884 531.725 459.579 527.938C329.856 413.934 336.326 298.825 299.283 311.32" stroke="#1C64EB" stroke-width="0.864782" stroke-miterlimit="10"/>
<path d="M1510.48 1601.47C1528.08 1579.85 1447.73 1542.97 1406.68 1385.79C1399.34 1357.66 1393.29 1330.11 1384.26 1304.78C1356.38 1226.49 1318.89 1172.52 1258.88 1120.48C1211.58 1079.47 1148.47 1041.7 1062.11 999.32C1053.38 995.031 1044.57 990.899 1035.78 986.732C990.734 965.379 943.877 943.36 906.074 915.551C867.056 886.849 840.021 857.573 811.792 830.205C777.332 796.793 741.579 762.898 702.461 728.724C660.385 691.973 614.598 655.092 568.644 621.697C535.516 597.561 503.277 575.406 474.544 551.943C469.975 548.209 465.38 544.663 461.214 540.788C333.086 421.715 346.115 301.8 313.704 312.732" stroke="#1C64EB" stroke-width="0.864782" stroke-miterlimit="10"/>
<path d="M1516.35 1599.39C1531.44 1580.86 1446.36 1547.65 1403.51 1389.28C1395.99 1361.49 1389.87 1334.37 1381.29 1309.29C1354.66 1231.54 1320.86 1176.07 1262.39 1122.43C1217.13 1080.92 1155.67 1042.24 1069.86 999.197C1061.26 994.883 1052.6 990.721 1043.94 986.537C999.603 965.098 953.562 943.437 915.388 916.857C875.854 889.536 846.683 861.753 816.616 835.755C779.814 803.939 742.152 771.802 702.055 739.276C658.754 704.148 612.835 668.749 567.656 635.739C534.973 611.805 503.533 589.258 475.726 565.144C471.299 561.304 466.858 557.617 462.828 553.658C336.411 429.465 355.891 304.794 328.106 314.164" stroke="#1C64EB" stroke-width="0.864782" stroke-miterlimit="10"/>
<path d="M1522.23 1597.31C1534.8 1581.87 1445.03 1552.31 1400.33 1392.77C1392.64 1365.31 1386.45 1338.62 1378.3 1313.81C1352.94 1236.6 1322.78 1179.64 1265.9 1124.39C1222.65 1082.38 1162.87 1042.78 1077.6 999.069C1069.15 994.734 1060.63 990.537 1052.11 986.339C1008.48 964.812 963.307 943.44 924.71 918.163C884.708 892.146 853.361 865.939 821.445 841.306C782.309 811.101 742.723 780.722 701.653 749.83C657.125 716.335 611.074 682.403 566.676 649.786C534.441 626.057 503.801 603.119 476.92 578.354C472.63 574.405 468.356 570.58 464.454 566.529C339.863 437.174 365.671 307.79 342.518 315.596" stroke="#1C64EB" stroke-width="0.864782" stroke-miterlimit="10"/>
<path d="M1528.11 1595.23C1538.17 1582.88 1443.72 1556.96 1397.16 1396.26C1389.3 1369.13 1383.04 1342.87 1375.33 1318.33C1351.24 1241.65 1324.68 1183.23 1269.41 1126.34C1228.15 1083.86 1170.08 1043.34 1085.35 998.947C1077.04 994.592 1068.67 990.363 1060.29 986.152C1017.36 964.536 973.053 943.45 934.03 919.477C893.567 894.765 860.037 870.141 826.275 846.871C784.801 818.28 743.298 789.659 701.253 760.39C655.497 728.542 609.32 696.064 565.697 663.833C533.906 640.306 504.07 616.98 478.114 591.564C473.966 587.501 469.854 583.543 466.08 579.399C343.428 444.851 375.456 310.781 356.935 317.032" stroke="#1C64EB" stroke-width="0.864782" stroke-miterlimit="10"/>
<path d="M1533.99 1593.15C1541.53 1583.89 1442.45 1561.6 1393.99 1399.75C1385.97 1372.94 1379.66 1347.11 1372.35 1322.85C1349.66 1246.68 1326.51 1186.83 1272.92 1128.29C1233.6 1085.33 1177.26 1043.9 1093.09 998.822C1084.92 994.443 1076.69 990.186 1068.46 985.958C1026.22 964.256 982.794 943.456 943.349 920.786C902.42 897.374 866.712 874.344 831.104 852.422C787.303 825.456 743.873 798.597 700.851 770.943C653.864 740.747 607.558 709.718 564.713 677.876C533.37 654.547 504.378 630.792 479.3 604.766C475.301 600.591 471.347 596.495 467.698 592.27C347.105 452.502 385.228 313.776 371.339 318.464" stroke="#1C64EB" stroke-width="0.864782" stroke-miterlimit="10"/>
<path d="M1539.87 1591.08C1544.9 1584.9 1441.22 1566.23 1390.82 1403.24C1382.63 1376.76 1376.24 1351.37 1369.37 1327.37C1347.93 1251.74 1328.3 1190.46 1276.43 1130.24C1239.03 1086.81 1184.45 1044.47 1100.84 998.693C1092.81 994.293 1084.73 990.006 1076.63 985.757C1035.1 963.966 992.539 943.451 952.671 922.083C911.277 899.973 873.398 878.544 835.933 857.966C789.806 832.632 744.452 807.531 700.446 781.486C652.236 752.954 605.796 723.364 563.726 691.908C532.827 668.781 504.628 644.648 480.486 617.961C476.625 613.676 472.841 609.447 469.316 605.126C350.899 460.118 395.008 316.756 385.744 319.882" stroke="#1C64EB" stroke-width="0.864782" stroke-miterlimit="10"/>
<path d="M1545.75 1589C1548.26 1585.91 1440.02 1570.84 1387.65 1406.74C1379.3 1380.58 1372.81 1355.63 1366.39 1331.9C1346.19 1256.81 1330.03 1194.1 1279.95 1132.2C1244.42 1088.29 1191.57 1045.16 1108.59 998.576C1100.69 994.166 1092.76 989.836 1084.8 985.571C1043.98 963.69 1002.29 943.465 961.994 923.402C920.135 902.6 880.069 882.818 840.763 863.532C792.29 839.893 744.992 816.578 700.045 792.054C650.572 765.279 604.039 737.036 562.75 705.966C532.295 683.041 504.897 658.53 481.68 631.178C477.957 626.784 474.349 622.414 470.942 618.004C354.824 467.749 404.789 319.759 400.16 321.318" stroke="#1C64EB" stroke-width="0.864782" stroke-miterlimit="10"/>
<path d="M1551.63 1586.92C1551.63 1586.92 1438.85 1575.43 1384.48 1410.23C1330.1 1245.02 1354.13 1134.54 1116.33 998.447C878.534 862.356 610.15 804.415 482.869 644.377C355.588 484.339 414.569 322.747 414.569 322.747" stroke="#1C64EB" stroke-width="0.864782" stroke-miterlimit="10"/>
<path d="M1670.18 1634.72C1687.05 1595.27 1670.84 1545.77 1640.89 1511.63C1610.93 1477.5 1569.6 1455.84 1528.62 1437.12C1443.88 1398.4 1355.63 1368.34 1272.85 1325.14C1190.07 1281.93 1111.18 1223.33 1063.24 1143C1033.76 1093.62 1017.02 1037.84 985.475 989.661C922.22 893.055 810.608 841.543 720.231 769.265C651.853 714.579 656.302 663.739 662.737 588.499C668.984 515.46 647.258 438.555 602.904 376.684C558.549 314.813 491.965 268.547 419.515 249.248" stroke="#1C64EB" stroke-width="0.864782" stroke-miterlimit="10"/>
<path d="M1675.3 1631.89C1689.17 1592.96 1671.23 1543.78 1639.8 1510.1C1608.28 1476.4 1565.75 1454.67 1523.73 1435.36C1438.67 1396.36 1350.45 1364.95 1268.85 1320.07C1187.4 1275.51 1110.84 1215.62 1062.86 1135.26C1033.48 1086.04 1016.06 1030.88 984.266 983.181C920.556 887.585 809.777 835.988 719.803 763.96C651.852 709.567 654.486 658.701 659.47 583.94C664.512 511.679 642.952 435.419 597.949 375.135C553.133 314.886 486.761 270.367 414.745 251.479" stroke="#1C64EB" stroke-width="0.864782" stroke-miterlimit="10"/>
<path d="M1680.43 1629.07C1691.29 1590.66 1671.64 1541.78 1638.72 1508.56C1605.64 1475.29 1561.91 1453.5 1518.84 1433.61C1433.47 1394.32 1345.38 1361.38 1264.86 1315C1184.83 1268.91 1110.52 1207.91 1062.5 1127.51C1033.21 1078.47 1015.13 1023.92 983.075 976.698C918.914 882.115 808.967 830.433 719.39 758.656C651.865 704.556 652.457 653.643 656.222 579.379C659.847 507.872 638.662 432.28 593.013 373.577C547.732 314.944 481.571 272.174 409.994 253.7" stroke="#1C64EB" stroke-width="0.864782" stroke-miterlimit="10"/>
<path d="M1685.56 1626.25C1693.41 1588.35 1672.04 1539.79 1637.64 1507.02C1602.99 1474.19 1558.06 1452.33 1513.94 1431.84C1428.26 1392.27 1340.26 1357.9 1260.87 1309.92C1182.21 1262.4 1110.19 1200.2 1062.13 1119.75C1032.94 1070.88 1014.18 1016.95 981.873 970.211C917.258 876.638 808.147 824.868 718.966 753.347C651.868 699.541 650.539 648.599 652.956 574.813C655.272 504.077 634.211 429.246 588.056 372.017C542.172 315.118 476.358 273.982 405.218 255.924" stroke="#1C64EB" stroke-width="0.864782" stroke-miterlimit="10"/>
<path d="M1690.68 1623.43C1695.53 1586.04 1672.44 1537.79 1636.56 1505.48C1600.35 1473.09 1554.22 1451.16 1509.05 1430.09C1423.05 1390.23 1335.13 1354.43 1256.87 1304.86C1179.6 1255.91 1109.87 1192.49 1061.76 1112C1032.67 1063.3 1013.24 1009.99 980.679 963.732C915.609 871.169 807.33 819.313 718.553 748.043C651.881 694.53 648.639 643.559 649.704 570.255C650.725 500.298 629.877 426.152 583.116 370.461C536.73 315.218 471.169 275.796 400.463 258.148" stroke="#1C64EB" stroke-width="0.864782" stroke-miterlimit="10"/>
<path d="M1695.8 1620.61C1697.65 1583.74 1672.83 1535.81 1635.47 1503.95C1597.69 1471.99 1550.37 1450 1504.15 1428.33C1417.83 1388.18 1330 1350.97 1252.87 1299.78C1176.97 1249.42 1109.52 1184.77 1061.38 1104.24C1032.38 1055.72 1012.28 1003.02 979.468 957.246C913.948 865.696 806.501 813.748 718.121 742.735C651.875 689.516 646.72 638.523 646.433 565.694C646.16 496.516 625.528 423.052 578.158 368.909C531.273 315.326 465.957 277.61 395.686 260.38" stroke="#1C64EB" stroke-width="0.864782" stroke-miterlimit="10"/>
<path d="M1700.93 1617.79C1699.77 1581.43 1673.3 1533.73 1634.39 1502.42C1595.11 1470.81 1546.53 1448.83 1499.26 1426.57C1412.63 1386.14 1324.89 1347.52 1248.88 1294.72C1174.35 1242.94 1109.2 1177.07 1061.02 1096.51C1032.12 1048.16 1011.34 996.07 978.275 950.773C912.3 860.233 805.685 808.2 717.708 737.437C651.889 684.512 644.831 633.501 643.182 561.143C641.622 492.75 621.206 419.961 573.215 367.364C525.835 315.436 460.762 279.437 390.928 262.615" stroke="#1C64EB" stroke-width="0.864782" stroke-miterlimit="10"/>
<path d="M1706.06 1614.96C1701.89 1579.12 1673.7 1531.73 1633.3 1500.88C1592.46 1469.7 1542.68 1447.66 1494.36 1424.81C1407.42 1384.09 1319.75 1344.07 1244.88 1289.64C1171.73 1236.47 1108.86 1169.35 1060.65 1088.75C1031.84 1040.57 1010.39 989.103 977.073 944.286C910.643 854.756 804.861 802.637 717.284 732.128C651.891 679.497 642.938 628.475 639.92 556.573C637.083 488.971 616.872 416.852 568.264 365.797C520.396 315.525 455.558 281.235 386.159 264.831" stroke="#1C64EB" stroke-width="0.864782" stroke-miterlimit="10"/>
<path d="M1711.19 1612.14C1704.01 1576.82 1674.1 1529.72 1632.22 1499.34C1589.81 1468.59 1538.88 1446.39 1489.47 1423.05C1402.29 1381.87 1314.63 1340.63 1240.89 1284.57C1169.11 1230.01 1108.53 1161.65 1060.29 1081C1031.57 1032.99 1009.45 982.138 975.878 937.807C908.997 849.284 804.047 797.08 716.867 726.82C651.897 674.486 641.052 623.45 636.664 552.012C632.557 485.199 612.556 413.748 563.321 364.245C514.967 315.625 450.365 283.052 381.396 267.056" stroke="#1C64EB" stroke-width="0.864782" stroke-miterlimit="10"/>
<path d="M1716.31 1609.32C1706.13 1574.51 1674.5 1527.73 1631.13 1497.81C1587.17 1467.48 1535.04 1445.22 1484.58 1421.3C1397.09 1379.82 1309.5 1337.21 1236.89 1279.51C1166.49 1223.55 1108.2 1153.93 1059.91 1073.25C1031.3 1025.42 1008.51 975.183 974.672 931.323C907.341 843.814 803.22 791.521 716.439 721.515C651.896 669.474 639.167 618.432 633.398 547.454C628.026 481.435 608.229 410.647 558.367 362.689C509.535 315.722 445.155 284.865 376.627 269.28" stroke="#1C64EB" stroke-width="0.864782" stroke-miterlimit="10"/>
<path d="M1721.44 1606.5C1708.25 1572.21 1674.91 1525.72 1630.05 1496.27C1584.52 1466.38 1531.2 1444.04 1479.68 1419.54C1391.88 1377.77 1304.37 1333.79 1232.9 1274.44C1163.86 1217.11 1107.87 1146.23 1059.55 1065.51C1031.02 1017.85 1007.56 968.224 973.474 924.847C905.688 838.348 802.403 785.966 716.019 716.218C651.902 664.47 637.299 613.425 630.135 542.899C623.512 477.674 603.909 407.546 553.413 361.14C504.107 315.822 439.951 286.685 371.854 271.515" stroke="#1C64EB" stroke-width="0.864782" stroke-miterlimit="10"/>
<path d="M1726.56 1603.68C1710.37 1569.9 1675.31 1523.73 1628.97 1494.74C1581.87 1465.27 1527.35 1442.87 1474.79 1417.78C1386.68 1375.72 1299.24 1330.37 1228.91 1269.37C1161.23 1210.67 1107.54 1138.52 1059.18 1057.75C1030.75 1010.27 1006.61 961.258 972.275 918.364C904.035 832.875 801.582 780.408 715.602 710.91C651.911 659.456 635.442 608.408 626.879 538.338C619.008 473.911 599.603 404.439 548.473 359.585C498.693 315.916 434.758 288.495 367.099 273.739" stroke="#1C64EB" stroke-width="0.864782" stroke-miterlimit="10"/>
<path d="M1731.69 1600.85C1712.49 1567.59 1675.7 1521.73 1627.88 1493.2C1579.22 1464.16 1523.51 1441.69 1469.89 1416.02C1381.47 1373.67 1294.1 1326.96 1224.91 1264.29C1158.59 1204.23 1107.2 1130.8 1058.8 1050C1030.47 1002.68 1005.66 954.291 971.071 911.88C902.376 827.401 800.758 774.845 715.175 705.604C651.91 654.444 633.586 603.398 623.618 533.775C614.506 470.146 595.295 401.327 543.52 358.028C493.276 316.005 429.552 290.311 362.327 275.966" stroke="#1C64EB" stroke-width="0.864782" stroke-miterlimit="10"/>
<path d="M1736.81 1598.03C1714.61 1565.29 1676.1 1519.74 1626.8 1491.67C1576.57 1463.06 1519.66 1440.53 1465 1414.26C1376.26 1371.63 1288.96 1323.56 1220.92 1259.23C1155.96 1197.8 1106.88 1123.09 1058.44 1042.25C1030.21 995.114 1004.72 947.333 969.876 905.401C900.73 821.935 799.941 769.291 714.761 700.3C651.923 649.433 631.747 598.385 620.365 529.218C610.024 466.391 591 398.217 538.58 356.473C487.872 316.096 424.359 292.121 357.572 278.191" stroke="#1C64EB" stroke-width="0.864782" stroke-miterlimit="10"/>
<path d="M1741.94 1595.21C1716.73 1562.98 1676.49 1517.74 1625.72 1490.13C1573.92 1461.96 1515.82 1439.36 1460.11 1412.5C1371.05 1369.59 1283.81 1320.17 1216.92 1254.16C1153.31 1191.38 1106.54 1115.38 1058.07 1034.5C1029.93 987.532 1003.78 940.37 968.677 898.918C899.077 816.462 799.121 763.733 714.341 694.996C651.929 644.422 629.915 593.379 617.103 524.656C605.539 462.631 586.701 395.103 533.625 354.918C482.461 316.179 419.152 293.93 352.802 280.415" stroke="#1C64EB" stroke-width="0.864782" stroke-miterlimit="10"/>
<path d="M1747.07 1592.39C1718.85 1560.68 1676.89 1515.75 1624.64 1488.59C1571.27 1460.85 1511.98 1438.18 1455.22 1410.74C1365.85 1367.55 1278.66 1316.78 1212.93 1249.09C1150.66 1184.97 1106.21 1107.68 1057.7 1026.76C1029.66 979.964 1002.83 933.415 967.479 892.442C897.424 810.996 798.303 758.178 713.924 689.694C651.938 639.415 628.09 588.373 613.847 520.101C601.075 458.879 582.409 391.989 528.682 353.372C477.06 316.266 413.955 295.757 348.04 282.653" stroke="#1C64EB" stroke-width="0.864782" stroke-miterlimit="10"/>
<path d="M1752.19 1589.56C1720.98 1558.37 1677.29 1513.75 1623.55 1487.05C1568.61 1459.75 1508.13 1437.01 1450.32 1408.98C1360.64 1365.5 1273.51 1313.39 1208.93 1244.01C1148.01 1178.54 1105.88 1099.96 1057.33 1019C1029.39 972.375 1001.88 926.445 966.277 885.955C895.775 805.519 797.48 752.615 713.5 684.386C651.941 634.4 626.273 583.36 610.585 515.539C596.607 455.116 578.114 388.863 523.732 351.813C471.66 316.338 408.752 297.563 343.271 284.87" stroke="#1C64EB" stroke-width="0.864782" stroke-miterlimit="10"/>
<path d="M1757.32 1586.75C1723.09 1556.06 1677.68 1511.77 1622.47 1485.52C1565.96 1458.66 1504.28 1435.85 1445.42 1407.23C1355.43 1363.47 1268.34 1310.02 1204.94 1238.95C1145.35 1172.15 1105.55 1092.25 1056.97 1011.25C1029.12 964.804 1000.94 919.487 965.075 879.476C894.118 800.05 796.659 747.058 713.075 679.078C651.947 629.389 624.466 578.345 607.322 510.971C592.154 451.347 573.825 385.725 518.777 350.25C466.259 316.404 403.548 299.37 338.498 287.091" stroke="#1C64EB" stroke-width="0.864782" stroke-miterlimit="10"/>
<path d="M1762.44 1583.92C1725.21 1553.75 1678.08 1509.78 1621.38 1483.98C1563.31 1457.56 1500.43 1434.68 1440.53 1405.47C1350.21 1361.43 1263.16 1306.64 1200.94 1233.87C1142.68 1165.74 1105.22 1084.54 1056.59 1003.5C1028.83 957.222 999.986 912.52 963.873 872.989C892.462 794.573 795.835 741.496 712.651 673.77C651.949 624.374 622.665 573.33 604.059 506.409C587.704 447.581 569.539 382.59 513.83 348.695C460.865 316.47 398.345 301.183 333.735 289.316" stroke="#1C64EB" stroke-width="0.864782" stroke-miterlimit="10"/>
<path d="M1767.57 1581.1C1727.33 1551.45 1678.47 1507.79 1620.3 1482.45C1560.66 1456.47 1496.54 1433.64 1435.64 1403.71C1344.93 1359.57 1257.99 1303.27 1196.95 1228.81C1140.01 1159.34 1104.89 1076.83 1056.23 995.752C1028.57 949.651 999.048 905.562 962.682 866.513C890.816 789.107 795.021 735.945 712.238 668.472C651.962 619.37 620.887 568.322 600.807 501.858C583.275 443.831 565.268 379.462 508.887 347.15C455.482 316.54 393.152 303.007 328.977 291.551" stroke="#1C64EB" stroke-width="0.864782" stroke-miterlimit="10"/>
<path d="M1772.7 1578.28C1729.46 1549.14 1678.83 1505.91 1619.22 1480.91C1557.97 1455.48 1492.7 1432.46 1430.75 1401.95C1339.73 1357.53 1252.81 1299.91 1192.96 1223.74C1137.33 1152.95 1104.56 1069.12 1055.86 988.004C1028.29 942.072 998.096 898.602 961.473 860.033C889.157 783.641 794.194 730.386 711.811 663.167C651.961 614.359 619.105 563.303 597.542 497.3C578.84 440.065 560.983 376.319 503.934 345.593C450.088 316.598 387.945 304.816 324.205 293.778" stroke="#1C64EB" stroke-width="0.864782" stroke-miterlimit="10"/>
<path d="M1777.82 1575.46C1731.57 1546.84 1679.23 1503.92 1618.13 1479.37C1555.31 1454.38 1488.85 1431.3 1425.85 1400.19C1334.51 1355.48 1247.62 1296.54 1188.96 1218.67C1134.65 1146.56 1104.22 1061.41 1055.49 980.255C1028.03 934.497 997.154 891.64 960.278 853.554C887.507 778.171 793.377 724.831 711.394 657.866C651.971 609.351 617.347 558.282 594.282 492.742C574.425 436.293 556.704 373.17 498.987 344.045C444.704 316.654 382.749 306.636 319.443 296.009" stroke="#1C64EB" stroke-width="0.864782" stroke-miterlimit="10"/>
<path d="M1782.95 1572.64C1733.7 1544.53 1679.63 1501.92 1617.05 1477.84C1552.66 1453.28 1485.01 1430.13 1420.96 1398.44C1329.31 1353.44 1242.42 1293.18 1184.96 1213.6C1131.95 1140.17 1103.89 1053.7 1055.12 972.503C1027.75 926.918 996.209 884.681 959.08 847.071C885.854 772.698 792.56 719.269 710.977 652.558C651.98 604.337 615.593 553.25 591.03 488.177C570.017 432.515 552.436 370.003 494.043 342.485C439.317 316.691 377.545 308.442 314.677 298.23" stroke="#1C64EB" stroke-width="0.864782" stroke-miterlimit="10"/>
<path d="M1788.07 1569.81C1735.82 1542.22 1680.03 1499.93 1615.97 1476.3C1550.02 1452.18 1481.16 1428.96 1416.06 1396.68C1324.1 1351.4 1237.21 1289.82 1180.97 1208.53C1129.26 1133.78 1103.57 1045.99 1054.76 964.755C1027.48 919.344 995.267 877.719 957.885 840.591C884.205 767.229 791.743 713.715 710.56 647.257C651.99 599.329 613.852 548.219 587.775 483.622C565.62 428.74 548.164 366.847 489.1 340.934C433.943 316.736 372.353 310.259 309.922 300.462" stroke="#1C64EB" stroke-width="0.864782" stroke-miterlimit="10"/>
<path d="M1793.2 1566.99C1737.94 1539.92 1680.43 1497.94 1614.88 1474.77C1547.37 1451.08 1477.32 1427.79 1411.17 1394.92C1318.9 1349.35 1232 1286.47 1176.98 1203.46C1126.56 1127.39 1103.23 1038.28 1054.39 957.003C1027.21 911.762 994.322 870.753 956.683 834.104C882.556 761.752 790.919 708.152 710.14 641.945C651.996 594.311 612.115 543.169 584.512 479.053C561.223 424.944 543.888 363.666 484.146 339.37C428.552 316.756 367.149 312.065 305.145 302.678" stroke="#1C64EB" stroke-width="0.864782" stroke-miterlimit="10"/>
<path d="M1798.32 1564.17C1740.05 1537.61 1680.82 1495.95 1613.79 1473.23C1544.72 1449.98 1473.47 1426.62 1406.27 1393.16C1313.68 1347.31 1226.78 1283.11 1172.98 1198.39C1123.84 1121.01 1102.9 1030.57 1054.01 949.258C1026.93 904.193 993.366 863.797 955.474 827.631C880.892 756.289 790.091 702.601 709.708 636.65C651.991 589.31 610.378 538.134 581.242 474.505C556.822 421.165 539.601 360.502 479.192 337.829C423.16 316.797 361.939 313.892 300.376 304.916" stroke="#1C64EB" stroke-width="0.864782" stroke-miterlimit="10"/>
<path d="M1803.45 1561.35C1742.18 1535.3 1681.23 1493.96 1612.71 1471.7C1542.07 1448.88 1469.63 1425.45 1401.38 1391.4C1308.48 1345.27 1221.55 1279.76 1168.99 1193.32C1121.13 1114.62 1102.56 1022.86 1053.65 941.503C1026.65 896.608 992.424 856.828 954.279 821.145C879.243 750.813 789.274 697.04 709.287 631.339C651.996 584.292 608.658 533.068 577.987 469.937C552.441 417.359 535.328 357.311 474.244 336.266C417.775 316.81 356.742 315.698 295.613 307.134" stroke="#1C64EB" stroke-width="0.864782" stroke-miterlimit="10"/>
<path d="M1808.57 1558.52C1744.3 1533 1681.62 1491.96 1611.63 1470.16C1539.43 1447.77 1465.78 1424.28 1396.49 1389.64C1303.27 1343.22 1216.32 1276.39 1164.99 1188.24C1118.4 1108.23 1102.24 1015.14 1053.28 933.744C1026.38 889.023 991.475 849.858 953.081 814.655C877.593 745.336 788.457 691.47 708.87 626.024C652.002 579.274 606.952 527.995 574.731 465.368C548.064 413.542 531.055 354.112 469.301 334.7C412.39 316.815 351.545 317.497 290.851 309.351" stroke="#1C64EB" stroke-width="0.864782" stroke-miterlimit="10"/>
<path d="M1813.7 1555.7C1746.42 1530.69 1682.03 1489.97 1610.55 1468.62C1536.78 1446.67 1461.94 1423.11 1391.59 1387.88C1298.06 1341.18 1211.08 1273.04 1161 1183.17C1115.68 1101.84 1101.91 1007.44 1052.91 925.998C1026.11 881.451 990.533 842.902 951.879 808.175C875.937 739.866 787.636 685.919 708.446 620.722C652.004 574.266 605.242 522.925 571.465 460.809C543.687 409.732 526.771 350.916 464.347 333.15C406.994 316.831 346.338 319.32 286.082 311.582" stroke="#1C64EB" stroke-width="0.864782" stroke-miterlimit="10"/>
<path d="M1818.83 1552.89C1748.54 1528.39 1682.43 1487.98 1609.47 1467.09C1534.13 1445.58 1458.09 1421.94 1386.7 1386.13C1292.85 1339.13 1205.65 1269.77 1157 1178.11C1112.78 1095.53 1101.57 999.728 1052.54 918.254C1025.84 873.88 989.585 835.948 950.677 801.703C874.281 734.404 786.813 680.372 708.026 615.425C652.011 569.262 603.55 517.846 568.206 456.259C539.321 405.92 522.487 347.721 459.397 331.606C401.602 316.844 341.135 321.141 281.313 313.821" stroke="#1C64EB" stroke-width="0.864782" stroke-miterlimit="10"/>
<path d="M1823.95 1550.06C1750.66 1526.08 1682.83 1485.98 1608.38 1465.55C1531.48 1444.47 1454.25 1420.77 1381.8 1384.36C1287.64 1337.09 1200.48 1266.37 1153.01 1173.04C1110.11 1089.11 1101.24 992.015 1052.17 910.501C1025.56 866.297 988.64 828.981 949.479 795.219C872.629 728.93 785.996 674.809 707.606 610.119C652.017 564.25 601.858 512.751 564.948 451.7C534.955 402.092 518.215 344.432 454.45 330.049C396.218 316.767 335.94 322.953 276.552 316.044" stroke="#1C64EB" stroke-width="0.864782" stroke-miterlimit="10"/>
<path d="M1829.08 1547.24C1752.78 1523.78 1683.23 1483.99 1607.3 1464.02C1528.84 1443.37 1450.41 1419.61 1376.91 1382.61C1282.44 1335.05 1195.31 1262.98 1149.01 1167.97C1107.45 1082.68 1100.91 984.307 1051.8 902.754C1025.29 858.726 987.694 822.023 948.285 788.74C870.983 723.465 785.179 669.255 707.193 604.816C652.03 559.24 600.183 507.647 561.695 447.136C530.601 398.251 513.922 341.29 449.507 328.491C390.813 316.83 330.739 324.763 271.793 318.266" stroke="#1C64EB" stroke-width="0.864782" stroke-miterlimit="10"/>
</g>
</svg>
