<svg width="21" height="29" viewBox="0 0 21 29" fill="none" xmlns="http://www.w3.org/2000/svg">
<path d="M10.5 0.5C4.70312 0.5 0 5.25781 0 11C0 15.2109 1.36719 16.4688 9.40625 28.0078C9.95312 28.7188 10.9922 28.7188 11.5391 28.0078C19.5781 16.4688 21 15.2109 21 11C21 5.25781 16.2422 0.5 10.5 0.5ZM16.7344 9.46875L9.57031 16.5781C9.29688 16.8516 8.91406 16.8516 8.69531 16.5781L4.53906 12.4219C4.32031 12.2031 4.32031 11.8203 4.53906 11.5469L5.96094 10.1797C6.23438 9.90625 6.61719 9.90625 6.83594 10.1797L9.13281 12.4766L14.4375 7.22656C14.7109 6.95312 15.0938 6.95312 15.3125 7.22656L16.7344 8.64844C16.9531 8.86719 16.9531 9.25 16.7344 9.46875Z" fill="#BDC3C7"/>
</svg>
