<svg width="30" height="48" viewBox="0 0 30 48" fill="none" xmlns="http://www.w3.org/2000/svg">
<path d="M18 39C18 37.4062 16.5938 36 15 36C13.3125 36 12 37.4062 12 39C12 40.6875 13.3125 42 15 42C16.5938 42 18 40.6875 18 39ZM30 4.5C30 2.0625 27.9375 0 25.5 0H4.5C1.96875 0 0 2.0625 0 4.5V43.5C0 46.0312 1.96875 48 4.5 48H25.5C27.9375 48 30 46.0312 30 43.5V4.5ZM25.5 42.9375C25.5 43.3125 25.2188 43.5 24.9375 43.5H5.0625C4.6875 43.5 4.5 43.3125 4.5 42.9375V5.0625C4.5 4.78125 4.6875 4.5 5.0625 4.5H24.9375C25.2188 4.5 25.5 4.78125 25.5 5.0625V42.9375Z" fill="#F9FAFB"/>
</svg>
