<svg width="60" height="48" viewBox="0 0 60 48" fill="none" xmlns="http://www.w3.org/2000/svg">
<path d="M60 24.75V23.25C60 22.5 59.25 21.75 58.5 21.75H32.25V15H39C40.5938 15 42 13.6875 42 12V3C42 1.40625 40.5938 0 39 0H21C19.3125 0 18 1.40625 18 3V12C18 13.6875 19.3125 15 21 15H27.75V21.75H1.5C0.65625 21.75 0 22.5 0 23.25V24.75C0 25.5938 0.65625 26.25 1.5 26.25H11.25V33H6C4.3125 33 3 34.4062 3 36V45C3 46.6875 4.3125 48 6 48H21C22.5938 48 24 46.6875 24 45V36C24 34.4062 22.5938 33 21 33H15.75V26.25H44.25V33H39C37.3125 33 36 34.4062 36 36V45C36 46.6875 37.3125 48 39 48H54C55.5938 48 57 46.6875 57 45V36C57 34.4062 55.5938 33 54 33H48.75V26.25H58.5C59.25 26.25 60 25.5938 60 24.75ZM22.5 4.5H37.5V10.5H22.5V4.5ZM19.5 37.5V43.5H7.5V37.5H19.5ZM52.5 37.5V43.5H40.5V37.5H52.5Z" fill="#F9FAFB"/>
</svg>
