<svg width="29" height="29" viewBox="0 0 29 29" fill="none" xmlns="http://www.w3.org/2000/svg">
<path d="M27.9453 21.6641C28.1641 20.8438 27.7266 20.0234 26.9609 19.6953L21.0547 17.1797C20.3438 16.8516 19.5234 17.0703 19.0312 17.6719L16.625 20.625C12.8516 18.7656 9.78906 15.6484 7.92969 11.875L10.8281 9.46875C11.4297 8.97656 11.6484 8.15625 11.3203 7.44531L8.80469 1.53906C8.47656 0.773438 7.65625 0.335938 6.83594 0.554688L1.3125 1.8125C0.546875 1.97656 0 2.6875 0 3.45312C0 17.2891 11.2109 28.5 24.9922 28.5C25.8125 28.5 26.5234 27.9531 26.6875 27.1875L27.9453 21.6641Z" fill="#BDC3C7"/>
</svg>
