<svg width="33" height="33" viewBox="0 0 33 33" fill="none" xmlns="http://www.w3.org/2000/svg">
<path d="M32.3125 14.4375H18.5625V0.6875C18.5625 0.34375 18.2188 0 17.875 0H15.125C14.6953 0 14.4375 0.34375 14.4375 0.6875V14.4375H0.6875C0.257812 14.4375 0 14.7812 0 15.125V17.875C0 18.3047 0.257812 18.5625 0.6875 18.5625H14.4375V32.3125C14.4375 32.7422 14.6953 33 15.125 33H17.875C18.2188 33 18.5625 32.7422 18.5625 32.3125V18.5625H32.3125C32.6562 18.5625 33 18.3047 33 17.875V15.125C33 14.7812 32.6562 14.4375 32.3125 14.4375Z" fill="#2196F3"/>
<path d="M32.3125 14.4375H18.5625V0.6875C18.5625 0.34375 18.2188 0 17.875 0H15.125C14.6953 0 14.4375 0.34375 14.4375 0.6875V14.4375H0.6875C0.257812 14.4375 0 14.7812 0 15.125V17.875C0 18.3047 0.257812 18.5625 0.6875 18.5625H14.4375V32.3125C14.4375 32.7422 14.6953 33 15.125 33H17.875C18.2188 33 18.5625 32.7422 18.5625 32.3125V18.5625H32.3125C32.6562 18.5625 33 18.3047 33 17.875V15.125C33 14.7812 32.6562 14.4375 32.3125 14.4375Z" fill="black" fill-opacity="0.2"/>
</svg>
