<svg width="1440" height="1903" viewBox="0 0 1440 1903" fill="none" xmlns="http://www.w3.org/2000/svg">
<g opacity="0.6">
<path d="M1809.7 610.787C1810.81 578.78 1791.36 550.032 1765.55 531.816C1739.75 513.601 1708.11 504.302 1676.76 496.252C1635.32 485.606 1592.16 476.592 1548.54 482.609C1487.75 490.996 1433.23 527.478 1384.88 566.645C1299.04 636.194 1223.93 717.538 1154.29 802.328C1079.64 893.219 1007.05 991.759 902.67 1047.82C809.004 1098.13 722.321 1094.54 624.872 1081.25C533.984 1068.85 445.034 1035.69 349.703 1049.35C224.613 1067.27 115.214 1163.5 62.5981 1277.11C9.9826 1390.72 8.02359 1518.42 33.3091 1635.36" stroke="#1C64EB" stroke-width="0.864782" stroke-miterlimit="10"/>
<path d="M1812.04 595.503C1813.67 567.467 1793.76 543.34 1767.12 527.739C1740.55 512.184 1708.52 503.865 1676.97 497.547C1635.42 489.228 1592.08 481.692 1548.13 489.218C1485.67 499.909 1428.3 537.262 1377.41 576.698C1290.68 643.898 1215.17 723.333 1145.11 805.726C1070.59 893.371 999.006 989.234 896.037 1043.65C802.109 1093.28 715.065 1091.78 618.638 1081.68C528.551 1072.45 441.275 1044.13 348.303 1060.17C226.72 1081.15 120.558 1176.87 67.6142 1289.22C14.3793 1401.92 8.47368 1526.34 30.2748 1641.97" stroke="#1C64EB" stroke-width="0.864782" stroke-miterlimit="10"/>
<path d="M1814.37 580.232C1816.52 556.165 1796.25 536.692 1768.68 523.672C1741.43 510.804 1708.95 503.427 1677.17 498.852C1635.54 492.857 1591.99 486.837 1547.72 495.832C1483.57 508.87 1423.43 547.052 1369.94 586.747C1282.43 651.682 1206.43 729.113 1135.94 809.123C1061.57 893.528 990.95 986.7 889.402 1039.47C795.205 1088.42 707.836 1088.81 612.4 1082.11C523.158 1075.84 437.553 1052.55 346.902 1070.99C228.866 1094.99 125.9 1190.24 72.6297 1301.33C18.7716 1413.12 8.91866 1534.26 27.2388 1648.59" stroke="#1C64EB" stroke-width="0.864782" stroke-miterlimit="10"/>
<path d="M1816.72 564.977C1819.4 544.876 1798.87 530.078 1770.26 519.613C1742.42 509.428 1709.42 502.994 1677.4 500.16C1635.71 496.47 1591.91 492.014 1547.34 502.442C1481.47 517.858 1418.62 556.848 1362.49 596.796C1274.31 659.543 1197.74 734.889 1126.79 812.525C1052.61 893.69 982.906 984.166 882.788 1035.31C788.315 1083.57 700.604 1085.98 606.18 1082.55C517.748 1079.35 433.875 1060.95 345.51 1081.81C231.048 1108.82 131.247 1203.61 77.6444 1313.44C23.1643 1424.32 9.36738 1542.2 24.2058 1655.21" stroke="#1C64EB" stroke-width="0.864782" stroke-miterlimit="10"/>
<path d="M1819.26 549.77C1822.46 533.629 1801.77 523.495 1772.01 515.589C1743.68 508.061 1710.07 502.581 1677.79 501.5C1636.06 500.104 1591.98 497.253 1547.1 509.091C1479.51 526.923 1414 566.704 1355.18 606.893C1266.4 667.542 1189.19 740.729 1117.74 816.009C1043.77 893.945 974.95 981.723 876.26 1031.26C781.494 1078.83 693.429 1083.26 600.024 1083.12C512.385 1082.98 430.279 1069.46 344.154 1092.75C233.296 1122.72 136.607 1217.12 82.6706 1325.71C27.5706 1435.7 9.82715 1550.33 21.1883 1662.04" stroke="#1C64EB" stroke-width="0.864782" stroke-miterlimit="10"/>
<path d="M1821.79 534.567C1825.51 522.39 1804.77 516.884 1773.77 511.57C1745.04 506.643 1710.74 502.158 1678.18 502.84C1636.43 503.713 1592.05 502.516 1546.87 515.731C1477.54 536.014 1409.41 576.571 1347.86 616.984C1258.58 675.61 1180.68 746.553 1108.7 819.492C1034.98 894.209 966.981 979.269 869.735 1027.22C774.667 1074.1 686.254 1080.56 593.87 1083.69C507.019 1086.63 426.716 1077.94 342.805 1103.69C235.582 1136.59 142.21 1230.73 87.7048 1337.98C32.2088 1447.18 10.2848 1558.45 18.1668 1668.88" stroke="#1C64EB" stroke-width="0.864782" stroke-miterlimit="10"/>
<path d="M1824.32 519.364C1828.57 511.148 1807.86 510.216 1775.53 507.546C1746.47 505.147 1711.43 501.716 1678.57 504.179C1636.81 507.306 1592.12 507.802 1546.64 522.375C1475.57 545.145 1404.86 586.459 1340.55 627.079C1250.82 683.755 1172.2 752.379 1099.67 822.982C1026.22 894.481 959.012 976.805 863.213 1023.19C767.836 1069.37 679.071 1077.87 587.717 1084.26C501.645 1090.28 423.19 1086.39 341.452 1114.64C237.896 1150.42 147.609 1244.27 92.7318 1350.26C36.6473 1458.58 10.7395 1566.58 15.1452 1675.72" stroke="#1C64EB" stroke-width="0.864782" stroke-miterlimit="10"/>
<path d="M1826.86 504.162C1831.62 499.906 1811.03 503.473 1777.29 503.523C1747.97 503.566 1712.12 501.264 1678.96 505.517C1637.21 510.876 1592.19 513.112 1546.4 529.014C1473.6 554.3 1400.34 596.369 1333.24 637.168C1243.12 691.958 1163.74 758.197 1090.63 826.467C1017.48 894.761 951.023 974.327 856.683 1019.15C760.99 1064.62 671.876 1075.19 581.557 1084.83C496.261 1093.94 419.684 1094.8 340.09 1125.58C240.233 1164.19 152.994 1257.8 97.7507 1362.54C41.0757 1469.99 11.1869 1574.72 12.1144 1682.56" stroke="#1C64EB" stroke-width="0.864782" stroke-miterlimit="10"/>
<path d="M1829.39 488.959C1834.68 488.661 1814.23 496.641 1779.04 499.494C1749.5 501.893 1712.82 500.78 1679.35 506.845C1637.62 514.406 1592.26 518.429 1546.17 535.639C1471.63 563.472 1395.85 606.292 1325.93 647.24C1235.48 700.207 1155.31 764.001 1081.59 829.931C1008.79 895.03 943.029 971.813 850.162 1015.1C754.145 1059.84 664.682 1072.5 575.403 1085.38C490.874 1097.59 416.214 1103.15 338.736 1136.49C242.597 1177.87 158.379 1271.3 102.774 1374.78C45.4984 1481.37 11.6393 1582.84 9.08893 1689.39" stroke="#1C64EB" stroke-width="0.864782" stroke-miterlimit="10"/>
<path d="M1831.93 473.756C1837.74 477.418 1817.46 489.716 1780.8 495.466C1751.04 500.136 1713.53 500.281 1679.74 508.176C1638.03 517.921 1592.34 523.774 1545.93 542.273C1469.67 572.679 1391.39 616.253 1318.62 657.324C1227.88 708.526 1146.93 769.817 1072.55 833.415C1000.14 895.329 935.016 969.305 843.631 1011.06C747.283 1055.08 657.476 1069.84 569.24 1085.96C485.474 1101.26 412.757 1111.47 337.37 1147.43C244.969 1191.51 163.748 1284.82 107.782 1387.05C49.9108 1492.76 12.0778 1590.96 6.05626 1696.22" stroke="#1C64EB" stroke-width="0.864782" stroke-miterlimit="10"/>
<path d="M1834.47 458.547C1840.8 466.165 1820.67 482.696 1782.56 491.426C1752.59 498.294 1714.24 499.757 1680.14 509.495C1638.45 521.398 1592.42 529.116 1545.7 548.89C1467.71 581.895 1386.96 626.232 1311.31 667.388C1220.33 716.883 1138.57 775.618 1063.51 836.881C991.527 895.632 927.002 966.768 837.104 1007.01C740.415 1050.3 650.268 1067.17 563.074 1086.52C480.068 1104.93 409.31 1119.73 335.999 1158.36C247.348 1205.07 169.112 1298.33 112.785 1399.31C54.3088 1504.15 12.5123 1599.08 3.0097 1703.06" stroke="#1C64EB" stroke-width="0.864782" stroke-miterlimit="10"/>
<path d="M1837 443.336C1843.85 454.912 1823.87 475.594 1784.32 487.388C1754.11 496.397 1714.96 499.211 1680.53 510.811C1638.86 524.854 1592.51 534.475 1545.47 555.505C1465.77 591.133 1382.56 636.243 1304 677.455C1212.8 725.297 1130.26 781.434 1054.47 840.353C982.949 895.956 918.976 964.22 830.575 1002.98C733.537 1045.52 643.054 1064.53 556.911 1087.08C474.664 1108.62 405.882 1127.94 334.634 1169.29C249.739 1218.56 174.473 1311.84 117.793 1411.58C58.7111 1515.54 12.9514 1607.21 -0.025788 1709.9" stroke="#1C64EB" stroke-width="0.864782" stroke-miterlimit="10"/>
<path d="M1839.54 428.119C1846.91 443.651 1827.03 468.419 1786.08 483.338C1755.61 494.443 1715.66 498.642 1680.92 512.117C1639.26 528.278 1592.6 539.836 1545.23 562.109C1463.83 600.385 1378.16 646.28 1296.68 687.507C1205.3 733.741 1121.97 787.247 1045.43 843.809C974.404 896.288 910.936 961.642 824.039 998.919C726.642 1040.7 635.833 1061.87 550.738 1087.63C469.245 1112.3 402.441 1136.07 333.251 1180.2C252.104 1231.95 179.812 1325.34 122.784 1423.82C63.092 1526.91 13.3716 1615.33 -3.07989 1716.73" stroke="#1C64EB" stroke-width="0.864782" stroke-miterlimit="10"/>
<path d="M1842.08 412.887C1849.97 432.374 1830.15 461.174 1787.84 479.275C1757.07 492.44 1716.35 498.045 1681.32 513.409C1639.67 531.671 1592.7 545.193 1545 568.702C1461.9 609.646 1373.8 656.348 1289.37 697.551C1197.82 742.23 1113.72 793.069 1036.38 847.259C965.902 896.642 902.884 959.044 817.497 994.864C719.733 1035.87 628.601 1059.24 544.559 1088.19C463.82 1116 398.986 1144.16 331.863 1191.11C254.448 1245.27 185.138 1338.83 127.764 1436.08C67.4536 1538.29 13.7803 1623.45 -6.14757 1723.56" stroke="#1C64EB" stroke-width="0.864782" stroke-miterlimit="10"/>
<path d="M1844.61 397.631C1853.03 421.076 1833.21 453.865 1789.6 475.186C1758.5 490.391 1717.04 497.408 1681.7 514.673C1640.05 535.026 1592.8 550.533 1544.75 575.261C1459.98 618.892 1369.44 666.423 1282.05 707.562C1190.35 750.728 1105.5 798.883 1027.32 850.683C957.421 896.997 894.812 956.406 810.94 990.782C712.806 1031 621.359 1056.59 538.36 1088.71C458.375 1119.67 395.491 1152.15 330.456 1202C256.749 1258.49 190.441 1352.31 132.726 1448.31C71.7979 1549.65 14.1701 1631.56 -9.23016 1730.39" stroke="#1C64EB" stroke-width="0.864782" stroke-miterlimit="10"/>
<path d="M1847.15 382.347C1856.08 409.748 1836.22 446.496 1791.35 471.074C1759.9 488.302 1717.72 496.739 1682.09 515.919C1640.43 538.35 1592.9 555.864 1544.51 581.805C1458.06 628.146 1365.08 676.527 1274.71 717.562C1182.89 759.257 1097.3 804.717 1018.25 854.1C948.962 897.381 886.716 953.75 804.369 986.701C705.849 1026.12 614.098 1053.94 532.145 1089.24C452.918 1123.36 391.955 1160.1 329.026 1212.9C258.989 1271.66 195.717 1365.79 137.661 1460.55C76.1063 1561.02 14.5333 1639.69 -12.3454 1737.24" stroke="#1C64EB" stroke-width="0.864782" stroke-miterlimit="10"/>
<path d="M1849.68 367.034C1859.14 398.392 1839.2 439.078 1793.11 466.93C1761.25 486.179 1718.39 496.032 1682.47 517.134C1640.79 541.633 1593.01 561.173 1544.26 588.322C1456.16 637.386 1360.75 686.649 1267.38 727.542C1175.44 767.805 1089.14 810.566 1009.17 857.5C940.534 897.781 878.604 951.064 797.791 982.605C698.882 1021.21 606.835 1051.3 525.92 1089.76C447.454 1127.05 388.371 1167.98 327.582 1223.78C261.172 1284.75 200.976 1379.26 142.581 1472.79C80.3986 1572.39 14.8778 1647.81 -15.4737 1744.07" stroke="#1C64EB" stroke-width="0.864782" stroke-miterlimit="10"/>
<path d="M1852.21 351.694C1862.19 387.009 1842.13 431.622 1794.86 462.766C1762.59 484.033 1719.04 495.294 1682.85 518.325C1641.13 544.886 1593.11 566.467 1544 594.815C1454.25 646.618 1356.41 696.794 1260.03 737.494C1167.98 776.362 1080.99 816.429 1000.08 860.868C932.123 898.194 870.476 948.328 791.195 978.477C691.887 1016.24 599.559 1048.63 519.672 1090.24C441.969 1130.72 384.713 1175.78 326.119 1234.64C263.283 1297.76 206.206 1392.7 147.477 1485.01C84.6634 1583.73 15.1982 1655.91 -18.6282 1750.9" stroke="#1C64EB" stroke-width="0.864782" stroke-miterlimit="10"/>
<path d="M1854.74 336.332C1865.24 375.609 1845.01 424.137 1796.61 458.577C1763.89 481.861 1719.67 494.529 1683.23 519.497C1641.46 548.115 1593.22 571.754 1543.74 601.294C1452.35 655.854 1352.09 706.976 1252.67 747.438C1160.52 784.944 1072.87 822.332 990.978 864.235C923.729 898.644 862.324 945.574 784.592 974.35C684.871 1011.26 592.275 1045.97 513.413 1090.73C436.48 1134.4 380.986 1183.54 324.638 1245.5C265.315 1310.74 211.415 1406.16 152.356 1497.24C88.9028 1595.09 15.5031 1664.03 -21.805 1757.74" stroke="#1C64EB" stroke-width="0.864782" stroke-miterlimit="10"/>
<path d="M1857.28 320.949C1868.3 364.183 1847.87 416.634 1798.36 454.375C1765.17 479.685 1720.31 493.749 1683.61 520.657C1641.78 551.33 1593.34 577.028 1543.49 607.756C1450.48 665.086 1347.77 717.186 1245.32 757.363C1153.07 793.543 1064.79 828.272 981.88 867.585C915.364 899.129 854.174 942.788 777.986 970.205C677.85 1006.24 584.999 1043.31 507.151 1091.21C430.993 1138.07 377.19 1191.26 323.155 1256.35C267.284 1323.67 216.618 1419.6 157.233 1509.45C93.1378 1606.43 15.7991 1672.14 -24.9807 1764.58" stroke="#1C64EB" stroke-width="0.864782" stroke-miterlimit="10"/>
<path d="M1859.8 305.555C1871.35 352.749 1850.69 409.12 1800.11 450.159C1766.42 477.498 1720.92 492.948 1683.98 521.804C1642.08 554.529 1593.45 582.297 1543.22 614.213C1448.6 674.322 1343.46 727.438 1237.96 767.289C1145.61 802.171 1056.71 834.271 972.764 870.934C907.001 899.656 845.993 939.984 771.363 966.063C670.803 1001.2 577.709 1040.65 500.873 1091.69C425.498 1141.75 373.31 1198.95 321.657 1267.21C269.168 1336.58 221.804 1433.04 162.089 1521.68C97.3475 1617.78 16.0772 1680.25 -28.1851 1771.41" stroke="#1C64EB" stroke-width="0.864782" stroke-miterlimit="10"/>
<path d="M1862.33 290.149C1874.4 341.303 1853.48 401.6 1801.86 445.937C1767.66 475.31 1721.53 492.146 1684.35 522.943C1642.37 557.72 1593.57 587.56 1542.95 620.659C1446.73 683.561 1339.14 737.73 1230.59 777.205C1138.15 810.82 1048.65 840.331 963.652 874.273C898.655 900.224 837.817 937.152 764.743 961.91C663.754 996.124 570.432 1037.98 494.595 1092.15C420.013 1145.43 369.354 1206.61 320.156 1278.06C270.983 1349.47 226.981 1446.47 166.947 1533.9C101.555 1629.12 16.3572 1688.36 -31.3816 1778.25" stroke="#1C64EB" stroke-width="0.864782" stroke-miterlimit="10"/>
<path d="M1864.86 274.732C1877.44 329.847 1856.25 394.075 1803.6 441.704C1768.87 473.122 1722.12 491.33 1684.72 524.075C1642.66 560.9 1593.7 592.825 1542.68 627.097C1444.87 692.802 1334.84 748.069 1223.22 787.113C1130.68 819.487 1040.6 846.458 954.525 877.602C890.307 900.838 829.621 934.293 758.106 957.743C656.677 991.005 563.144 1035.31 488.301 1092.61C414.517 1149.09 365.306 1214.26 318.644 1288.9C272.719 1362.35 232.145 1459.9 171.793 1546.11C105.744 1640.45 16.6218 1696.47 -34.5923 1785.08" stroke="#1C64EB" stroke-width="0.864782" stroke-miterlimit="10"/>
<path d="M1867.38 259.308C1880.49 318.389 1859.01 386.548 1805.34 437.471C1770.07 470.938 1722.71 490.512 1685.08 525.208C1642.92 564.089 1593.82 598.094 1542.4 633.544C1443.02 702.06 1330.53 758.458 1215.85 797.029C1123.2 828.186 1032.55 852.68 945.398 880.941C881.957 901.513 821.424 931.423 751.471 953.589C649.598 985.866 555.865 1032.65 482.007 1093.08C409.031 1152.78 361.18 1221.92 317.127 1299.75C274.386 1375.26 237.302 1473.33 176.636 1558.33C109.929 1651.8 16.8847 1704.59 -37.8108 1791.93" stroke="#1C64EB" stroke-width="0.864782" stroke-miterlimit="10"/>
<path d="M1869.91 243.875C1883.54 306.917 1861.74 379.025 1807.08 433.226C1771.26 468.751 1723.28 489.684 1685.45 526.324C1643.19 567.257 1593.95 603.35 1542.13 639.968C1441.19 711.303 1326.23 768.882 1208.47 806.926C1115.72 836.892 1024.5 858.966 936.268 884.26C873.6 902.226 813.219 928.516 744.831 949.411C642.506 980.672 548.59 1029.97 475.709 1093.52C403.545 1156.45 356.984 1229.57 315.605 1310.58C275.98 1388.17 242.448 1486.75 181.472 1570.54C114.103 1663.11 17.1357 1712.68 -41.0358 1798.75" stroke="#1C64EB" stroke-width="0.864782" stroke-miterlimit="10"/>
<path d="M1872.43 228.435C1886.59 295.441 1864.45 371.503 1808.82 428.98C1772.44 466.569 1723.85 488.86 1685.82 527.446C1643.44 570.436 1594.09 608.611 1541.86 646.406C1439.36 720.568 1321.93 779.368 1201.09 816.835C1108.23 845.628 1016.44 865.36 927.142 887.588C865.236 902.995 805.015 925.603 738.195 945.245C635.415 975.456 541.327 1027.31 469.416 1093.98C398.077 1160.13 352.716 1237.25 314.093 1321.43C277.531 1401.12 247.603 1500.18 186.321 1582.77C118.283 1674.45 17.4036 1720.8 -44.2501 1805.6" stroke="#1C64EB" stroke-width="0.864782" stroke-miterlimit="10"/>
<path d="M1874.95 212.906C1889.62 283.879 1867.16 363.904 1810.55 424.652C1773.6 464.315 1724.41 487.955 1686.17 528.494C1643.67 573.543 1594.21 613.807 1541.56 652.773C1437.51 729.776 1317.6 789.84 1193.68 826.689C1100.7 854.336 1008.33 871.804 917.967 890.867C856.797 903.771 796.761 922.619 731.507 941.031C628.261 970.156 534.013 1024.6 463.055 1094.4C392.544 1163.77 348.319 1244.92 312.506 1332.26C278.952 1414.08 252.681 1513.59 191.089 1594.98C122.378 1685.77 17.586 1728.91 -47.5505 1812.44" stroke="#1C64EB" stroke-width="0.864782" stroke-miterlimit="10"/>
<path d="M1877.46 197.377C1892.66 272.319 1869.84 356.319 1812.29 420.332C1774.75 462.079 1724.95 487.059 1686.52 529.546C1643.9 576.658 1594.34 619.009 1541.27 659.142C1435.69 738.99 1313.28 800.364 1186.27 836.54C1093.17 863.059 1000.19 878.337 908.795 894.136C848.334 904.588 788.508 919.609 724.819 936.801C621.108 964.794 526.704 1021.87 456.701 1094.81C387.027 1167.4 343.868 1252.61 310.926 1343.07C280.334 1427.07 257.76 1526.99 195.866 1607.18C126.477 1697.08 17.7715 1737.01 -50.8442 1819.26" stroke="#1C64EB" stroke-width="0.864782" stroke-miterlimit="10"/>
<path d="M1879.98 181.845C1895.7 260.76 1872.53 348.734 1814.02 416.007C1775.9 459.838 1725.5 486.163 1686.87 530.598C1644.12 579.778 1594.47 624.212 1540.98 665.519C1433.87 748.216 1308.95 810.951 1178.86 846.401C1085.62 871.815 992.003 884.984 899.621 897.418C839.838 905.462 780.253 916.591 718.137 932.583C613.953 959.402 519.414 1019.16 450.351 1095.23C381.521 1171.04 339.377 1260.35 309.354 1353.89C281.687 1440.11 262.7 1540.29 200.654 1619.39C130.42 1708.28 17.9709 1745.11 -54.1302 1826.1" stroke="#1C64EB" stroke-width="0.864782" stroke-miterlimit="10"/>
<path d="M1882.49 166.315C1898.74 249.198 1875.2 341.161 1815.75 411.69C1777.04 457.618 1726.03 485.276 1687.22 531.658C1644.33 582.907 1594.61 629.426 1540.68 671.901C1432.06 757.454 1304.62 821.591 1171.45 856.265C1078.05 880.585 983.764 891.734 890.446 900.701C831.293 906.387 772.002 913.555 711.448 928.363C606.793 953.957 512.258 1016.55 443.997 1095.64C376.155 1174.8 334.833 1268.12 307.776 1364.72C282.996 1453.19 267.823 1553.72 205.435 1631.6C134.568 1719.62 18.1592 1753.22 -57.4196 1832.93" stroke="#1C64EB" stroke-width="0.864782" stroke-miterlimit="10"/>
<path d="M1885 150.786C1901.77 237.64 1877.86 333.598 1817.48 407.371C1778.16 455.397 1726.48 484.336 1687.56 532.715C1644.45 585.972 1594.82 634.725 1540.38 678.281C1430.4 766.873 1300.28 832.277 1164.03 866.13C1070.48 889.373 975.465 898.573 881.272 903.981C822.703 907.34 763.757 910.494 704.762 924.142C599.633 948.46 504.906 1013.77 437.644 1096.06C370.593 1178.38 330.258 1275.93 306.201 1375.55C284.282 1466.32 272.951 1567.15 210.217 1643.82C138.716 1730.96 18.3549 1761.33 -60.7084 1839.77" stroke="#1C64EB" stroke-width="0.864782" stroke-miterlimit="10"/>
<path d="M1887.51 135.256C1904.81 226.082 1880.52 326.041 1819.2 403.058C1779.3 453.186 1727.09 483.515 1687.91 533.781C1644.74 589.176 1594.89 639.864 1540.09 684.671C1428.46 775.948 1295.94 843.022 1156.62 876.006C1062.9 898.193 967.1 905.517 872.095 907.269C814.052 908.342 755.516 907.422 698.074 919.926C592.473 942.906 497.555 1010.99 431.292 1096.48C365.029 1181.97 325.654 1283.78 304.631 1386.38C285.548 1479.49 278.084 1580.6 215.008 1656.04C142.87 1742.32 18.5566 1769.44 -63.9956 1846.61" stroke="#1C64EB" stroke-width="0.864782" stroke-miterlimit="10"/>
<path d="M1664.43 590.625C1598.16 501.863 1497.05 439.109 1384.14 416.656C1352.02 410.266 1317.7 407.171 1285.55 417.834C1192.62 448.649 1154.23 561.264 1115.02 638.166C1067.7 730.982 1022.58 824.915 967.785 914.307C937.025 964.494 896.574 1017.77 838.595 1029.33C779.882 1041.04 727.167 1005.69 677.728 977.551C620.119 944.757 556.026 919.568 487.504 916.095C418.989 912.623 345.473 932.976 293.581 980.525C252.945 1017.76 228.477 1068.15 209.283 1118.29C158.848 1250.04 137.731 1390.44 147.86 1526.61" stroke="#1C64EB" stroke-width="0.864782" stroke-miterlimit="10"/>
<path d="M1663.83 585.112C1599.69 499.227 1500.64 441.912 1386.41 420.296C1354.51 414.262 1320.59 411.198 1288.76 421.523C1196.61 451.364 1157.32 560.136 1117.47 635.578C1074.98 716.014 1034.56 798.024 987.166 877.795C981.351 887.619 975.441 897.397 969.417 907.122C938.741 956.664 898.744 1009.23 841.816 1021.44C784.148 1033.82 732.32 1000.69 683.677 974.503C626.941 944.055 563.955 920.931 496.678 918.71C429.303 916.609 357.072 937.441 305.7 984.379C270.784 1016.27 247.572 1057.6 229.185 1099.91C226.335 1106.46 223.648 1113.04 220.967 1119.59C167.784 1249.47 142.609 1382.42 152.412 1514.19" stroke="#1C64EB" stroke-width="0.864782" stroke-miterlimit="10"/>
<path d="M1663.22 579.603C1601.23 496.597 1504.24 444.706 1388.68 423.939C1357.01 418.25 1323.48 415.231 1291.99 425.218C1200.6 454.084 1160.42 559.015 1119.92 633C1077.06 711.294 1036.57 791.847 988.766 871.015C982.959 880.704 977.061 890.352 971.057 899.951C940.465 948.848 900.916 1000.71 845.04 1013.56C788.415 1026.63 737.472 995.711 689.627 971.476C633.766 943.376 571.888 922.306 505.85 921.345C439.613 920.612 368.672 941.923 317.817 988.256C283.181 1019.8 259.817 1060.34 241.066 1101.68C238.156 1108.08 235.438 1114.53 232.65 1120.9C176.672 1248.97 147.494 1374.44 156.965 1501.78" stroke="#1C64EB" stroke-width="0.864782" stroke-miterlimit="10"/>
<path d="M1662.61 574.101C1602.77 493.97 1507.85 447.486 1390.94 427.582C1359.51 422.23 1326.37 419.26 1295.21 428.911C1204.59 456.801 1163.54 557.889 1122.38 630.418C1079.16 706.567 1038.39 785.563 990.37 864.235C984.549 873.778 978.686 883.306 972.699 892.776C942.191 941.027 903.096 992.177 848.273 1005.68C792.692 1019.43 742.69 990.628 695.585 968.443C640.66 942.573 579.843 923.507 515.033 923.971C449.945 924.441 380.279 946.398 329.95 992.121C295.594 1023.31 272.085 1063.07 252.96 1103.44C249.984 1109.7 247.24 1116.01 244.349 1122.21C185.528 1248.49 152.391 1366.44 161.54 1489.37" stroke="#1C64EB" stroke-width="0.864782" stroke-miterlimit="10"/>
<path d="M1662 568.597C1604.31 491.348 1511.46 450.252 1393.21 431.223C1362.01 426.202 1329.25 423.288 1298.43 432.602C1208.57 459.514 1166.66 556.752 1124.82 627.835C1081.27 701.835 1040.34 779.349 991.97 857.454C986.145 866.86 980.301 876.263 974.332 885.603C943.91 933.213 905.262 983.65 851.49 997.796C796.95 1012.23 747.847 985.607 701.525 965.406C647.49 941.844 587.767 924.818 524.195 926.587C460.246 928.371 391.869 950.86 342.055 995.973C307.98 1026.81 284.321 1065.78 264.83 1105.19C261.794 1111.3 259.012 1117.47 256.023 1123.5C194.308 1248.03 157.267 1358.44 166.087 1476.95" stroke="#1C64EB" stroke-width="0.864782" stroke-miterlimit="10"/>
<path d="M1661.43 563.106C1605.87 488.728 1515.12 453.012 1395.5 434.868C1364.54 430.175 1332.16 427.323 1301.68 436.296C1212.58 462.235 1169.83 555.623 1127.3 625.267C1083.42 697.126 1042.32 773.155 993.594 850.693C987.769 859.96 981.945 869.236 975.994 878.448C945.655 925.413 907.459 975.141 854.739 989.936C801.238 1005.05 753.035 980.607 707.496 962.392C654.348 941.132 595.711 926.154 533.382 929.229C470.568 932.329 403.477 955.35 354.183 999.856C320.386 1030.33 296.577 1068.53 276.718 1106.98C273.618 1112.94 270.801 1118.97 267.713 1124.84C203.046 1247.63 162.157 1350.48 170.648 1464.58" stroke="#1C64EB" stroke-width="0.864782" stroke-miterlimit="10"/>
<path d="M1660.86 557.619C1607.45 486.112 1518.78 455.756 1397.8 438.52C1367.08 434.144 1335.08 431.36 1304.93 439.998C1216.6 464.963 1173.01 554.503 1129.78 622.704C1085.59 692.419 1044.3 766.97 995.22 843.942C989.398 853.074 983.59 862.218 977.66 871.307C947.405 917.629 909.661 966.648 857.987 982.09C805.531 997.888 758.219 975.62 713.464 959.39C661.198 940.435 603.653 927.504 542.57 931.879C480.885 936.298 415.086 959.841 366.311 1003.75C332.798 1033.87 308.839 1071.29 288.609 1108.77C285.449 1114.58 282.589 1120.48 279.41 1126.17C211.739 1247.26 167.061 1342.53 175.22 1452.22" stroke="#1C64EB" stroke-width="0.864782" stroke-miterlimit="10"/>
<path d="M1660.29 552.111C1609.02 483.476 1522.46 458.453 1400.1 442.14C1369.62 438.076 1338 435.427 1308.18 443.667C1220.65 467.835 1176.2 553.347 1132.26 620.113C1087.78 687.687 1046.29 760.759 996.842 837.169C991.021 846.161 985.232 855.18 979.32 864.14C949.149 909.824 911.851 958.133 861.229 974.218C809.812 990.698 763.392 970.605 719.427 956.354C668.042 939.702 611.583 928.817 551.745 934.495C491.187 940.239 426.683 964.302 378.426 1007.6C345.191 1037.37 321.159 1074.04 300.48 1110.52C297.263 1116.19 294.354 1121.95 291.084 1127.47C220.347 1246.88 171.936 1334.55 179.77 1439.85" stroke="#1C64EB" stroke-width="0.864782" stroke-miterlimit="10"/>
<path d="M1659.72 546.565C1610.59 480.794 1526.13 461.094 1402.38 445.716C1372.14 441.958 1340.91 439.397 1311.41 447.29C1224.64 470.507 1179.38 552.154 1134.71 617.49C1089.97 682.933 1048.26 754.531 998.437 830.37C992.618 839.228 986.846 848.118 980.948 856.952C950.859 901.996 914.011 949.599 864.435 966.335C814.058 983.496 768.52 965.581 725.347 953.312C674.836 938.96 619.471 930.13 560.875 937.097C501.442 944.165 438.227 968.752 390.488 1011.45C357.532 1040.87 333.355 1076.76 312.303 1112.28C309.028 1117.8 306.064 1123.43 302.712 1128.77C228.838 1246.51 176.765 1326.58 184.271 1427.48" stroke="#1C64EB" stroke-width="0.864782" stroke-miterlimit="10"/>
<path d="M1659.15 541.019C1612.16 478.119 1529.81 463.713 1404.67 449.29C1374.67 445.834 1343.81 443.365 1314.64 450.912C1228.64 473.176 1182.59 550.958 1137.17 614.865C1092.17 678.174 1050.23 748.295 1000.04 823.574C994.222 832.296 988.467 841.058 982.586 849.764C952.584 894.164 916.178 941.067 867.653 958.446C818.315 976.293 773.66 960.549 731.279 950.263C681.637 938.213 627.36 931.434 570.018 939.694C511.704 948.094 449.789 973.194 402.561 1015.28C369.881 1044.36 345.564 1079.48 324.137 1114.02C320.797 1119.4 317.784 1124.89 314.348 1130.07C237.277 1246.14 181.6 1318.61 188.785 1415.11" stroke="#1C64EB" stroke-width="0.864782" stroke-miterlimit="10"/>
<path d="M1658.59 535.478C1613.73 475.441 1533.5 466.322 1406.96 452.872C1377.21 449.712 1346.72 447.336 1317.88 454.544C1232.64 475.853 1185.82 549.773 1139.63 612.25C1094.4 673.434 1052.21 742.077 1001.64 816.784C995.829 825.369 990.083 834.007 984.225 842.586C954.307 886.35 918.352 932.547 870.87 950.574C822.572 969.101 778.793 955.533 737.208 947.225C688.43 937.48 635.25 932.758 579.154 942.304C521.959 952.036 461.338 977.651 414.629 1019.14C382.227 1047.86 357.765 1082.2 335.961 1115.79C332.561 1121.02 329.489 1126.37 325.975 1131.38C245.64 1245.8 186.435 1310.66 193.288 1402.76" stroke="#1C64EB" stroke-width="0.864782" stroke-miterlimit="10"/>
<path d="M1658.02 529.932C1615.3 472.758 1537.2 468.904 1409.24 456.441C1379.74 453.567 1349.62 451.3 1321.12 458.163C1236.64 478.515 1189.06 548.579 1142.09 609.623C1096.64 668.682 1054.2 735.849 1003.24 809.987C997.432 818.437 991.704 826.947 985.863 835.397C956.027 878.521 920.519 924.015 874.088 942.684C826.826 961.893 783.924 950.505 743.138 944.173C695.22 936.731 643.134 934.071 588.295 944.895C532.215 955.962 472.894 982.083 426.706 1022.97C394.582 1051.35 369.976 1084.91 347.798 1117.53C344.334 1122.62 341.209 1127.84 337.618 1132.67C253.946 1245.41 191.282 1302.69 197.808 1390.39" stroke="#1C64EB" stroke-width="0.864782" stroke-miterlimit="10"/>
<path d="M1657.45 524.388C1616.88 470.08 1540.89 471.463 1411.53 460.012C1382.27 457.422 1352.52 455.259 1324.35 461.784C1240.63 481.178 1192.31 547.391 1144.54 607.002C1098.91 663.949 1056.18 729.633 1004.84 803.197C999.035 811.513 993.323 819.894 987.496 828.218C957.742 870.702 922.647 915.401 877.298 934.811C831.039 954.61 789.044 945.495 749.066 941.134C702 936.002 651.017 935.4 597.426 947.497C542.461 959.908 484.439 986.532 438.766 1026.81C406.92 1054.84 382.166 1087.63 359.615 1119.28C356.092 1124.23 352.899 1129.3 349.236 1133.97C262.162 1245.02 196.102 1294.72 202.303 1378.04" stroke="#1C64EB" stroke-width="0.864782" stroke-miterlimit="10"/>
<path d="M1656.88 518.842C1618.44 467.396 1544.59 474 1413.81 463.577C1384.81 461.264 1355.42 459.215 1327.59 465.398C1244.62 483.832 1195.59 546.203 1147 604.371C1101.2 659.21 1058.18 723.404 1006.44 796.394C1000.64 804.572 994.945 812.827 989.135 821.023C959.466 862.871 924.812 906.86 880.516 926.916C835.291 947.393 794.163 940.467 754.994 938.07C708.781 935.249 658.897 936.705 606.564 950.075C552.71 963.832 495.994 990.953 450.835 1030.64C419.265 1058.31 394.364 1090.33 371.445 1121.01C367.858 1125.81 364.598 1130.75 360.87 1135.25C270.321 1244.59 200.942 1286.75 206.815 1365.67" stroke="#1C64EB" stroke-width="0.864782" stroke-miterlimit="10"/>
<path d="M1656.31 513.295C1620.01 464.717 1548.3 476.511 1416.1 467.146C1387.35 465.111 1358.32 463.172 1330.82 469.017C1248.62 486.487 1198.88 545.023 1149.46 601.748C1103.5 654.488 1060.17 717.188 1008.04 789.603C1002.25 797.65 996.563 805.773 990.772 813.844C961.185 855.052 926.98 898.332 883.729 919.039C839.539 940.198 799.276 935.457 760.919 935.027C715.551 934.521 666.773 938.041 615.694 952.674C562.949 967.784 507.54 995.396 462.895 1034.48C431.603 1061.8 406.554 1093.05 383.262 1122.77C379.614 1127.42 376.288 1132.22 372.493 1136.55C278.399 1244.15 205.773 1278.79 211.317 1353.32" stroke="#1C64EB" stroke-width="0.864782" stroke-miterlimit="10"/>
<path d="M1655.74 507.747C1621.58 462.03 1552.01 479.002 1418.38 470.705C1389.89 468.935 1361.22 467.117 1334.05 472.626C1252.6 489.135 1202.2 543.846 1151.91 599.12C1105.83 649.772 1062.18 710.972 1009.64 782.808C1003.85 790.719 998.181 798.718 992.411 806.658C962.906 847.227 929.145 889.801 886.948 911.157C843.792 932.993 804.395 930.447 766.85 931.978C722.325 933.792 674.657 939.372 624.835 955.264C573.203 971.733 519.092 999.831 474.967 1038.3C443.953 1065.28 418.756 1095.75 395.093 1124.5C391.38 1129.01 387.979 1133.66 384.125 1137.84C286.422 1243.65 210.612 1270.82 215.833 1340.95" stroke="#1C64EB" stroke-width="0.864782" stroke-miterlimit="10"/>
<path d="M1655.18 502.199C1623.15 459.345 1555.72 481.465 1420.66 474.265C1392.41 472.758 1364.11 471.067 1337.28 476.235C1256.59 491.781 1205.54 542.684 1154.37 596.491C1108.17 645.068 1064.18 704.757 1011.24 776.009C1005.46 783.786 999.791 791.652 994.037 799.47C964.616 839.402 931.299 881.27 890.148 903.271C848.027 925.788 809.488 925.441 772.76 928.92C729.075 933.06 682.518 940.701 633.95 957.84C583.427 975.67 530.621 1004.25 487.012 1042.12C456.278 1068.74 430.928 1098.44 406.894 1126.23C403.117 1130.6 399.645 1135.1 395.73 1139.12C294.347 1243.1 215.423 1262.84 220.32 1328.59" stroke="#1C64EB" stroke-width="0.864782" stroke-miterlimit="10"/>
<path d="M1654.61 496.649C1624.72 456.655 1559.44 483.904 1422.95 477.818C1394.96 476.57 1367.01 475.004 1340.51 479.834C1260.58 494.407 1208.89 541.521 1156.82 593.852C1110.53 640.369 1066.19 698.534 1012.83 769.205C1007.06 776.849 1001.41 784.585 995.67 792.275C966.331 831.568 933.456 872.736 893.361 895.38C852.278 918.583 814.595 920.434 778.687 925.858C735.837 932.332 690.395 942.03 643.082 960.417C593.669 979.618 542.164 1008.67 499.072 1045.94C468.616 1072.21 443.116 1101.13 418.716 1127.96C414.874 1132.18 411.325 1136.54 407.357 1140.4C302.229 1242.49 220.263 1254.87 224.828 1316.23" stroke="#1C64EB" stroke-width="0.864782" stroke-miterlimit="10"/>
<path d="M1654.04 491.101C1626.29 453.964 1563.15 486.314 1425.23 481.376C1397.49 480.383 1369.91 478.947 1343.74 483.442C1264.57 497.049 1212.26 540.388 1159.27 591.228C1112.92 635.699 1068.21 692.335 1014.43 762.414C1008.66 769.926 1003.02 777.531 997.307 785.096C968.05 823.75 935.621 864.217 896.572 887.504C856.524 911.388 819.695 915.45 784.609 922.813C742.594 931.63 698.273 943.38 652.21 963.006C603.91 983.586 553.707 1013.1 511.131 1049.77C480.952 1075.69 455.298 1103.84 430.535 1129.7C426.633 1133.77 423 1137.98 418.977 1141.68C310.044 1241.82 225.091 1246.91 229.331 1303.87" stroke="#1C64EB" stroke-width="0.864782" stroke-miterlimit="10"/>
<path d="M1653.47 485.544C1627.86 451.272 1566.87 488.697 1427.51 484.919C1400.03 484.174 1372.8 482.874 1346.97 487.035C1268.55 499.665 1215.66 539.255 1161.73 588.586C1115.32 631.028 1070.22 686.123 1016.03 755.61C1010.27 762.989 1004.64 770.464 998.939 777.901C969.766 815.92 937.78 855.681 899.782 879.61C860.766 904.181 824.794 910.451 790.526 919.744C749.35 930.912 706.141 944.715 661.329 965.574C614.146 987.536 565.237 1017.51 523.178 1053.58C493.278 1079.15 467.47 1106.52 442.339 1131.42C438.372 1135.35 434.664 1139.41 430.585 1142.96C317.792 1241.08 229.908 1238.94 233.822 1291.52" stroke="#1C64EB" stroke-width="0.864782" stroke-miterlimit="10"/>
<path d="M1652.9 479.984C1629.42 448.569 1570.59 491.042 1429.79 488.459C1402.56 487.958 1375.7 486.798 1350.2 490.626C1272.53 502.284 1219.06 538.149 1164.17 585.942C1117.73 626.373 1072.24 679.909 1017.61 748.805C1011.87 756.051 1006.24 763.399 1000.57 770.706C971.474 808.086 939.936 847.15 902.983 871.723C865.002 896.975 829.892 905.469 796.436 916.685C756.098 930.209 714.01 946.063 670.444 968.144C624.378 991.491 576.765 1021.92 535.219 1057.39C505.594 1082.61 479.632 1109.2 454.14 1133.15C450.109 1136.93 446.32 1140.84 442.192 1144.23C325.483 1240.24 234.724 1230.96 238.312 1279.16" stroke="#1C64EB" stroke-width="0.864782" stroke-miterlimit="10"/>
<path d="M1652.33 474.419C1630.99 445.864 1574.3 493.361 1432.07 491.989C1405.09 491.731 1378.59 490.712 1353.42 494.206C1276.51 504.885 1222.49 537.056 1166.62 583.291C1120.16 621.734 1074.26 673.698 1019.2 741.991C1013.47 749.108 1007.85 756.323 1002.19 763.504C973.178 800.246 942.088 838.612 906.181 863.823C869.239 889.763 834.989 900.478 802.343 913.613C762.853 929.502 721.877 947.402 679.555 970.704C634.609 995.45 588.286 1026.32 547.255 1061.19C517.908 1086.06 491.792 1111.87 465.932 1134.87C461.841 1138.5 457.964 1142.25 453.786 1145.5C333.115 1239.32 239.532 1222.99 242.793 1266.8" stroke="#1C64EB" stroke-width="0.864782" stroke-miterlimit="10"/>
<path d="M1651.77 468.848C1632.56 443.149 1578.02 495.643 1434.35 495.518C1407.63 495.495 1381.48 494.622 1356.65 497.785C1280.49 507.484 1225.94 535.991 1169.07 580.644C1122.6 617.123 1076.29 667.499 1020.79 735.187C1015.06 742.171 1009.46 749.256 1003.81 756.309C974.888 792.417 944.243 830.083 909.385 855.935C873.48 882.561 840.094 895.502 808.257 910.546C769.615 928.809 729.759 948.756 688.67 973.272C644.85 999.417 599.811 1030.73 559.299 1065C530.229 1089.52 503.954 1114.55 477.737 1136.59C473.581 1140.08 469.619 1143.67 465.398 1146.77C340.724 1238.31 244.354 1215.02 247.289 1254.44" stroke="#1C64EB" stroke-width="0.864782" stroke-miterlimit="10"/>
<path d="M1651.2 463.271C1634.13 440.431 1581.73 497.888 1436.63 499.033C1410.16 499.245 1384.37 498.515 1359.87 501.35C1284.46 510.064 1229.4 534.945 1171.51 577.981C1125.05 612.518 1078.33 661.285 1022.38 728.369C1016.66 735.223 1011.07 742.176 1005.44 749.104C976.595 784.575 946.4 821.547 912.582 848.037C877.716 875.35 845.195 890.523 814.161 907.474C776.373 928.112 737.63 950.104 697.778 975.83C655.092 1003.38 611.331 1035.13 571.332 1068.8C542.539 1092.98 516.105 1117.23 489.525 1138.31C485.304 1141.66 481.261 1145.08 476.987 1148.04C348.28 1237.19 249.152 1207.05 251.762 1242.09" stroke="#1C64EB" stroke-width="0.864782" stroke-miterlimit="10"/>
<path d="M1650.63 457.687C1635.69 437.704 1585.44 500.1 1438.9 502.544C1412.68 502.98 1387.26 502.405 1363.09 504.91C1288.44 512.637 1232.88 533.929 1173.95 575.315C1127.51 607.935 1080.35 655.074 1023.96 721.545C1018.25 728.271 1012.67 735.09 1007.05 741.891C978.295 776.722 948.547 812.998 915.772 840.128C881.943 868.13 850.301 885.536 820.058 904.391C783.136 927.407 745.502 951.451 706.87 978.377C665.324 1007.34 622.831 1039.52 583.346 1072.59C554.828 1096.41 528.241 1119.88 501.296 1140.01C497.009 1143.21 492.88 1146.47 488.56 1149.29C355.787 1235.96 253.935 1199.07 256.218 1229.72" stroke="#1C64EB" stroke-width="0.864782" stroke-miterlimit="10"/>
<path d="M1650.08 452.103C1637.27 434.974 1589.17 502.281 1441.19 506.051C1415.23 506.713 1390.16 506.291 1366.33 508.464C1292.42 515.202 1236.37 532.949 1176.4 572.649C1129.98 603.381 1082.4 648.875 1025.55 714.729C1019.85 721.326 1014.27 728.009 1008.68 734.688C980.002 768.887 950.752 804.524 918.967 832.239C886.231 860.984 855.414 880.573 825.956 901.325C789.905 926.727 753.381 952.812 715.97 980.943C675.567 1011.32 634.341 1043.93 595.368 1076.4C567.126 1099.88 540.377 1122.56 513.072 1141.74C508.724 1144.79 504.507 1147.89 500.143 1150.57C363.284 1234.66 258.727 1191.11 260.682 1217.39" stroke="#1C64EB" stroke-width="0.864782" stroke-miterlimit="10"/>
<path d="M1649.67 446.533C1639 432.258 1593.04 504.457 1443.61 509.591C1417.88 510.473 1393.18 510.208 1369.68 512.054C1296.52 517.8 1239.98 532.048 1178.95 570.028C1132.54 598.902 1084.54 642.739 1027.22 707.984C1021.53 714.45 1015.96 721.006 1010.38 727.556C981.781 761.126 952.976 796.069 922.232 824.434C890.528 853.871 860.598 875.7 831.916 898.362C796.746 926.151 761.324 954.296 725.119 983.628C685.865 1015.43 645.888 1048.47 607.431 1080.35C579.467 1103.48 552.553 1125.39 524.885 1143.62C520.472 1146.53 516.171 1149.45 511.756 1152C370.785 1233.41 263.52 1183.32 265.148 1205.22" stroke="#1C64EB" stroke-width="0.864782" stroke-miterlimit="10"/>
<path d="M1649.26 440.955C1640.73 429.532 1596.89 506.598 1446.02 513.12C1420.55 514.222 1396.2 514.114 1373.03 515.634C1300.61 520.383 1243.6 531.177 1181.5 567.393C1135.12 594.439 1086.69 636.593 1028.89 701.227C1023.22 707.57 1017.64 713.991 1012.09 720.418C983.567 753.358 955.204 787.61 925.503 816.63C894.832 846.752 865.794 870.83 837.887 895.399C803.6 925.58 769.28 955.779 734.273 986.315C696.18 1019.55 657.441 1053.01 619.491 1084.3C591.801 1107.09 564.726 1128.21 536.694 1145.5C532.214 1148.26 527.832 1151.02 523.365 1153.44C378.279 1232.05 268.305 1175.52 269.613 1193.05" stroke="#1C64EB" stroke-width="0.864782" stroke-miterlimit="10"/>
<path d="M1648.86 435.374C1642.46 426.806 1600.76 508.709 1448.43 516.652C1423.21 517.965 1399.22 517.982 1376.38 519.216C1304.72 522.844 1247.22 530.357 1184.04 564.766C1137.68 590.011 1088.83 630.464 1030.56 694.479C1024.89 700.693 1019.33 706.983 1013.79 713.284C985.348 745.599 957.428 779.153 928.768 808.824C899.127 839.635 870.99 865.961 843.844 892.436C810.452 925.002 777.237 957.266 743.419 989.005C706.49 1023.67 668.985 1057.56 631.547 1088.26C604.128 1110.7 576.864 1131 548.494 1147.39C543.948 1150 539.482 1152.59 534.971 1154.88C385.773 1230.6 273.086 1167.74 274.068 1180.88" stroke="#1C64EB" stroke-width="0.864782" stroke-miterlimit="10"/>
<path d="M1648.46 429.788C1644.19 424.075 1604.62 510.784 1450.86 520.18C1425.87 521.707 1402.25 521.894 1379.73 522.794C1308.82 525.452 1250.85 529.578 1186.59 562.129C1140.24 585.605 1090.99 624.334 1032.22 687.717C1026.57 693.808 1021.01 699.962 1015.48 706.14C987.121 737.825 959.643 770.687 932.023 801.01C903.412 832.511 876.185 861.082 849.795 889.471C817.305 924.425 785.191 958.752 752.555 991.699C716.803 1027.8 680.523 1062.12 643.592 1092.22C616.447 1114.32 589.028 1133.85 560.287 1149.29C555.676 1151.75 551.131 1154.16 546.563 1156.33C393.258 1229.04 277.853 1159.95 278.506 1168.72" stroke="#1C64EB" stroke-width="0.864782" stroke-miterlimit="10"/>
<path d="M1648.07 424.195C1645.94 421.34 1608.48 512.825 1453.28 523.709C1428.54 525.445 1405.28 525.812 1383.1 526.374C1312.93 528.065 1254.49 528.854 1189.14 559.492C1142.79 581.225 1093.24 618.275 1033.9 680.958C1028.27 686.93 1022.71 692.944 1017.19 698.995C988.907 730.052 961.874 762.22 935.297 793.199C907.722 825.39 881.441 856.231 855.764 886.511C824.226 923.884 793.234 960.299 761.714 994.398C727.21 1031.98 692.083 1066.68 655.661 1096.18C628.789 1117.95 601.217 1136.7 572.099 1151.19C567.423 1153.51 562.794 1155.73 558.175 1157.77C400.784 1227.37 282.634 1152.16 282.958 1156.54" stroke="#1C64EB" stroke-width="0.864782" stroke-miterlimit="10"/>
<path d="M1647.68 418.599C1647.68 418.599 1612.33 514.832 1455.7 527.239C1299.08 539.645 1207.89 495.1 1035.56 674.196C863.231 853.292 752.359 1075.79 583.894 1153.09C415.43 1230.38 287.399 1144.37 287.399 1144.37" stroke="#1C64EB" stroke-width="0.864782" stroke-miterlimit="10"/>
<path d="M1714.3 326.468C1683.17 302.723 1636.05 305.949 1599.52 324.765C1562.99 343.582 1535.01 375.248 1509.7 407.257C1457.34 473.452 1411.86 544.691 1355.97 608.144C1300.08 671.597 1231.46 728.163 1150.35 752.523C1100.48 767.502 1047.72 769.786 998.471 786.863C899.718 821.101 830.306 908.169 747.16 971.822C684.251 1019.98 640.4 1004.66 575.472 982.109C512.443 960.221 439.989 962.181 375.916 987.504C311.844 1012.83 256.742 1061.29 224.145 1120.97" stroke="#1C64EB" stroke-width="0.864782" stroke-miterlimit="10"/>
<path d="M1712.92 321.311C1681.59 300.337 1634.38 305.157 1597.93 325.384C1561.45 345.679 1533.15 378.391 1507.09 411.19C1454.42 477.597 1407.75 548.503 1350.64 610.544C1293.84 672.521 1224.6 726.735 1143.44 751.122C1093.74 766.053 1041.38 769.074 992.5 786.479C894.539 821.345 825.231 907.658 742.392 971.011C679.834 1018.86 635.57 1005.13 570.751 983.973C508.149 963.325 436.298 965.284 373.485 991.534C310.742 1017.63 257.227 1066.29 225.086 1125.69" stroke="#1C64EB" stroke-width="0.864782" stroke-miterlimit="10"/>
<path d="M1711.53 316.148C1680.01 297.947 1632.71 304.353 1596.35 325.99C1559.91 347.766 1531.3 381.517 1504.49 415.114C1451.5 481.736 1403.51 552.182 1345.32 612.929C1287.48 673.308 1217.73 725.292 1136.53 749.703C1087.01 764.591 1035.04 768.34 986.53 786.079C889.366 821.571 820.161 907.129 737.628 970.188C675.42 1017.72 630.675 1005.79 566.032 985.821C503.79 966.593 432.609 968.37 371.049 995.546C309.632 1022.41 257.702 1071.28 226.021 1130.38" stroke="#1C64EB" stroke-width="0.864782" stroke-miterlimit="10"/>
<path d="M1710.15 310.987C1678.43 295.554 1631.04 303.554 1594.75 326.603C1558.37 349.858 1529.44 384.654 1501.88 419.042C1448.57 485.876 1399.34 555.927 1339.98 615.321C1281.18 674.161 1210.86 723.856 1129.61 748.29C1080.27 763.13 1028.7 767.614 980.554 785.687C884.182 821.806 815.079 906.607 732.858 969.372C671.001 1016.6 625.817 1006.35 561.306 987.684C499.461 969.785 428.977 971.623 368.608 999.577C308.589 1027.37 258.175 1076.29 226.953 1135.1" stroke="#1C64EB" stroke-width="0.864782" stroke-miterlimit="10"/>
<path d="M1708.76 305.823C1676.86 293.163 1629.36 302.752 1593.17 327.215C1556.83 351.949 1527.58 387.786 1499.28 422.972C1445.65 490.021 1395.19 559.679 1334.66 617.712C1274.89 675.018 1204 722.415 1122.71 746.876C1073.53 761.671 1022.36 766.885 974.587 785.291C879.007 822.038 810.008 906.084 728.094 968.548C666.587 1015.46 620.966 1006.9 556.589 989.535C495.152 972.955 425.318 974.758 366.174 1003.59C307.507 1032.2 258.657 1081.29 227.891 1139.8" stroke="#1C64EB" stroke-width="0.864782" stroke-miterlimit="10"/>
<path d="M1707.38 300.667C1675.28 290.776 1627.7 301.958 1591.58 327.834C1555.28 354.049 1525.72 390.929 1496.68 426.911C1442.72 494.176 1391.03 563.438 1329.32 620.115C1268.6 675.886 1197.12 720.993 1115.79 745.475C1066.79 760.225 1016.01 766.173 968.61 784.906C873.826 822.279 804.925 905.569 723.323 967.741C662.167 1014.34 616.115 1007.47 551.865 991.403C490.836 976.141 421.65 977.906 363.74 1007.63C306.427 1037.04 259.134 1086.3 228.83 1144.52" stroke="#1C64EB" stroke-width="0.864782" stroke-miterlimit="10"/>
<path d="M1705.99 295.503C1673.71 288.384 1625.97 301.08 1590 328.443C1553.69 356.064 1523.87 394.062 1494.08 430.835C1439.81 498.311 1386.89 567.183 1324 622.504C1262.34 676.747 1190.26 719.55 1108.89 744.06C1060.06 758.764 1009.69 765.443 962.648 784.51C868.657 822.511 799.86 905.046 718.565 966.918C657.759 1013.21 611.282 1008.01 547.155 993.255C486.541 979.307 417.996 981.032 361.315 1011.65C305.354 1041.87 259.626 1091.3 229.776 1149.23" stroke="#1C64EB" stroke-width="0.864782" stroke-miterlimit="10"/>
<path d="M1704.61 290.342C1672.13 285.992 1624.29 300.277 1588.41 329.057C1552.14 358.151 1522 397.196 1491.47 434.767C1436.88 502.458 1382.75 570.944 1318.67 624.899C1256.07 677.61 1183.39 718.121 1101.98 742.651C1053.32 757.307 1003.34 764.723 956.672 784.118C863.473 822.747 794.78 904.528 713.795 966.103C653.339 1012.08 606.445 1008.56 542.425 995.114C482.233 982.47 414.323 984.164 358.868 1015.67C304.262 1046.7 260.091 1096.3 230.703 1153.94" stroke="#1C64EB" stroke-width="0.864782" stroke-miterlimit="10"/>
<path d="M1703.22 285.179C1670.55 283.602 1622.61 299.474 1586.82 329.67C1550.59 360.243 1520.07 400.27 1488.87 438.694C1433.82 506.491 1378.62 574.698 1313.34 627.287C1249.81 678.477 1176.53 716.681 1095.07 741.234C1046.58 755.844 997 763.992 950.705 783.722C858.296 822.975 789.707 904.001 709.027 965.282C648.924 1010.96 601.611 1009.1 537.705 996.968C477.936 985.623 410.659 987.283 356.437 1019.69C303.183 1051.52 260.576 1101.29 231.64 1158.64" stroke="#1C64EB" stroke-width="0.864782" stroke-miterlimit="10"/>
<path d="M1701.84 280.02C1668.98 281.213 1620.94 298.671 1585.24 330.285C1549.05 362.336 1518.21 403.404 1486.27 442.627C1430.9 510.632 1374.5 578.465 1308.02 629.685C1243.55 679.351 1169.66 715.249 1088.16 739.827C1039.85 754.392 990.665 763.271 944.731 783.334C853.119 823.212 784.629 903.487 704.26 964.471C644.507 1009.83 596.783 1009.64 532.985 998.832C473.643 988.783 406.995 990.41 354 1023.72C302.1 1056.34 261.053 1106.3 232.574 1163.36" stroke="#1C64EB" stroke-width="0.864782" stroke-miterlimit="10"/>
<path d="M1700.46 274.859C1667.4 278.825 1619.26 297.868 1583.65 330.897C1547.5 364.425 1516.35 406.532 1483.67 446.557C1427.97 514.769 1370.38 582.232 1302.69 632.076C1237.31 680.227 1162.79 713.813 1081.25 738.417C1033.11 752.937 984.329 762.547 938.765 782.942C847.945 823.447 779.558 902.964 699.5 963.655C640.098 1008.71 591.968 1010.17 528.268 1000.69C469.357 991.929 403.333 993.532 351.569 1027.75C301.02 1061.15 261.537 1111.31 233.516 1168.07" stroke="#1C64EB" stroke-width="0.864782" stroke-miterlimit="10"/>
<path d="M1699.07 269.696C1665.82 276.43 1617.58 297.066 1582.06 331.51C1545.96 366.517 1514.49 409.667 1481.07 450.484C1425.04 518.907 1366.26 585.999 1297.36 634.47C1231.07 681.107 1155.93 712.375 1074.34 737.006C1026.37 751.478 977.986 761.821 932.794 782.548C842.766 823.681 774.483 902.443 694.732 962.834C635.681 1007.58 587.147 1010.69 523.548 1002.55C465.072 995.064 399.668 996.64 349.136 1031.76C299.938 1065.96 262.015 1116.3 234.454 1172.77" stroke="#1C64EB" stroke-width="0.864782" stroke-miterlimit="10"/>
<path d="M1697.69 264.534C1664.24 274.041 1615.91 296.269 1580.47 332.123C1544.41 368.611 1512.62 412.801 1478.46 454.415C1422.11 523.05 1362.15 589.776 1292.03 636.865C1224.82 681.999 1149.05 710.945 1067.43 735.597C1019.63 750.027 971.641 761.101 926.82 782.159C837.585 823.921 769.403 901.924 689.965 962.022C631.263 1006.45 582.331 1011.2 518.825 1004.41C460.785 998.198 395.999 999.749 346.698 1035.79C298.851 1070.76 262.496 1121.31 235.39 1177.49" stroke="#1C64EB" stroke-width="0.864782" stroke-miterlimit="10"/>
<path d="M1696.31 259.375C1662.67 271.654 1614.24 295.472 1578.89 332.739C1542.87 370.708 1510.77 415.937 1475.86 458.346C1419.2 527.192 1358.05 593.56 1286.71 639.257C1218.59 682.885 1142.19 709.505 1060.52 734.181C1012.9 748.563 965.306 760.371 920.853 781.763C832.414 824.15 764.332 901.402 685.201 961.199C626.85 1005.32 577.518 1011.7 514.109 1006.26C456.511 1001.32 392.333 1002.85 344.265 1039.81C297.769 1075.56 262.974 1126.3 236.328 1182.19" stroke="#1C64EB" stroke-width="0.864782" stroke-miterlimit="10"/>
<path d="M1694.92 254.215C1661.09 269.262 1612.56 294.676 1577.3 333.351C1541.33 372.805 1508.91 419.069 1473.26 462.276C1416.27 531.337 1353.95 597.345 1281.38 641.65C1212.37 683.785 1135.32 708.074 1053.61 732.77C1006.16 747.106 958.966 759.649 914.881 781.369C827.234 824.384 759.256 900.881 680.435 960.382C622.435 1004.19 572.712 1012.2 509.386 1008.12C452.232 1004.44 388.664 1005.95 341.827 1043.84C296.678 1080.36 263.448 1131.31 237.262 1186.9" stroke="#1C64EB" stroke-width="0.864782" stroke-miterlimit="10"/>
<path d="M1693.54 249.051C1659.52 266.872 1610.89 293.878 1575.71 333.96C1539.79 374.895 1507.05 422.198 1470.65 466.202C1413.36 535.48 1349.85 601.136 1276.05 644.042C1206.14 684.686 1128.46 706.638 1046.7 731.361C999.431 745.652 952.633 758.922 908.916 780.977C822.061 824.619 754.185 900.358 675.673 959.562C618.024 1003.06 567.907 1012.69 504.672 1009.98C447.965 1007.54 384.996 1009.04 339.402 1047.86C295.592 1085.15 263.941 1136.31 238.21 1191.61" stroke="#1C64EB" stroke-width="0.864782" stroke-miterlimit="10"/>
<path d="M1692.15 243.89C1657.94 264.479 1609.22 293.082 1574.12 334.574C1538.24 376.994 1505.19 425.336 1468.05 470.131C1410.43 539.621 1345.76 604.93 1270.72 646.434C1199.91 685.594 1121.59 705.198 1039.79 729.948C992.683 744.194 946.286 758.199 902.94 780.585C816.879 824.849 749.105 899.84 670.903 958.747C613.604 1001.93 563.098 1013.17 499.949 1011.84C443.688 1010.64 381.317 1012.14 336.963 1051.88C294.494 1089.94 264.413 1141.31 239.138 1196.32" stroke="#1C64EB" stroke-width="0.864782" stroke-miterlimit="10"/>
<path d="M1690.77 238.731C1656.36 262.095 1607.56 292.289 1572.54 335.19C1536.71 379.092 1503.34 428.475 1465.45 474.064C1407.52 543.771 1341.67 608.74 1265.4 648.829C1193.7 686.51 1114.72 703.768 1032.88 728.539C985.952 742.736 939.95 757.474 896.97 780.194C811.702 825.087 744.03 899.319 666.134 957.932C609.189 1000.81 558.289 1013.65 495.22 1013.7C439.408 1013.73 377.628 1015.22 334.519 1055.91C293.39 1094.72 264.885 1146.31 240.068 1201.04" stroke="#1C64EB" stroke-width="0.864782" stroke-miterlimit="10"/>
<path d="M1689.38 233.57C1654.78 259.703 1605.88 291.493 1570.95 335.804C1535.17 381.191 1501.48 431.614 1462.84 477.997C1404.6 547.924 1337.58 612.557 1260.06 651.225C1187.48 687.431 1107.85 702.333 1025.97 727.13C979.209 741.285 933.605 756.755 890.995 779.803C806.519 825.323 738.951 898.801 661.364 957.118C604.77 999.68 553.482 1014.11 490.498 1015.56C435.132 1016.82 373.943 1018.31 332.084 1059.93C292.288 1099.51 265.364 1151.32 241.004 1205.74" stroke="#1C64EB" stroke-width="0.864782" stroke-miterlimit="10"/>
<path d="M1688 228.407C1653.21 257.312 1604.22 290.696 1569.37 336.414C1533.64 383.287 1499.72 434.818 1460.24 481.921C1401.83 552.173 1333.5 616.368 1254.74 653.61C1181.27 688.351 1100.99 700.893 1019.06 725.715C972.48 739.821 927.27 756.024 885.031 779.404C801.348 825.552 733.883 898.275 656.606 956.296C600.362 998.547 548.685 1014.56 485.788 1017.41C430.873 1019.89 370.268 1021.38 329.659 1063.95C291.191 1104.28 265.854 1156.31 241.95 1210.45" stroke="#1C64EB" stroke-width="0.864782" stroke-miterlimit="10"/>
<path d="M1686.61 223.243C1651.63 254.917 1602.64 289.957 1567.78 337.025C1532.19 385.442 1497.86 437.95 1457.64 485.851C1398.91 556.315 1329.42 620.195 1249.41 656.007C1175.06 689.287 1094.12 699.458 1012.15 724.307C965.74 738.368 920.932 755.306 879.06 779.02C796.173 825.793 728.806 897.76 651.839 955.484C595.945 997.425 543.879 1015.01 481.067 1019.27C426.6 1022.97 366.576 1024.46 327.222 1067.98C290.082 1109.06 266.328 1161.32 242.887 1215.16" stroke="#1C64EB" stroke-width="0.864782" stroke-miterlimit="10"/>
<path d="M1685.23 218.086C1650.06 252.533 1600.97 289.163 1566.19 337.644C1530.64 387.542 1496 441.092 1455.04 489.783C1395.98 560.463 1325.34 624.03 1244.09 658.401C1168.85 690.229 1087.26 698.027 1005.25 722.893C959.007 736.906 914.593 754.578 873.092 778.623C790.998 826.025 723.735 897.237 647.077 954.664C591.534 996.294 539.075 1015.44 476.349 1021.13C422.326 1026.02 362.88 1027.54 324.793 1072C288.973 1113.82 266.815 1166.32 243.829 1219.87" stroke="#1C64EB" stroke-width="0.864782" stroke-miterlimit="10"/>
<path d="M1683.85 212.923C1648.48 250.138 1599.3 288.36 1564.61 338.255C1529.11 389.636 1494.15 444.224 1452.44 493.713C1393.06 564.605 1321.26 627.867 1238.76 660.794C1162.64 691.175 1080.39 696.593 998.334 721.482C952.268 735.453 908.256 753.853 867.12 778.229C785.818 826.258 718.657 896.713 642.309 953.843C587.116 995.162 534.262 1015.86 471.626 1022.98C418.047 1029.07 359.17 1030.6 322.355 1076.02C287.847 1118.59 267.287 1171.32 244.76 1224.58" stroke="#1C64EB" stroke-width="0.864782" stroke-miterlimit="10"/>
<path d="M1682.46 207.762C1646.9 247.749 1597.63 287.562 1563.02 338.867C1527.57 391.729 1492.29 447.36 1449.84 497.643C1390.14 568.75 1317.18 631.715 1233.43 663.186C1156.43 692.126 1073.53 695.152 991.426 720.069C945.534 733.991 901.918 753.125 861.153 777.833C780.643 826.49 713.586 896.19 637.547 953.024C582.705 994.031 529.454 1016.27 466.911 1024.84C413.774 1032.11 355.47 1033.66 319.923 1080.04C286.73 1123.35 267.771 1176.32 245.704 1229.28" stroke="#1C64EB" stroke-width="0.864782" stroke-miterlimit="10"/>
<path d="M1681.08 202.599C1645.33 245.355 1595.95 286.76 1561.43 339.479C1526.03 393.819 1490.43 450.492 1447.23 501.569C1387.22 572.885 1313.1 635.566 1228.1 665.575C1150.21 693.08 1066.66 693.717 984.514 718.658C938.793 732.535 895.574 752.399 855.177 777.441C775.461 826.72 708.506 895.672 632.775 952.205C578.283 992.902 524.629 1016.68 462.182 1026.7C409.482 1035.15 351.746 1036.73 317.479 1084.07C285.587 1128.12 268.243 1181.32 246.63 1234" stroke="#1C64EB" stroke-width="0.864782" stroke-miterlimit="10"/>
<path d="M1679.69 197.442C1643.75 242.973 1594.29 285.966 1559.84 340.098C1524.49 395.917 1488.57 453.634 1444.63 505.506C1384.3 577.036 1309.02 639.431 1222.78 667.977C1144.01 694.051 1059.79 692.287 977.607 717.255C932.062 731.087 889.239 751.685 849.212 777.059C770.289 826.965 703.435 895.159 628.016 951.399C573.875 991.785 519.818 1017.08 457.471 1028.56C405.205 1038.19 348.035 1039.81 315.055 1088.1C284.464 1132.89 268.732 1186.33 247.577 1238.71" stroke="#1C64EB" stroke-width="0.864782" stroke-miterlimit="10"/>
<path d="M1678.31 192.279C1642.17 240.578 1592.62 285.161 1558.26 340.71C1522.95 398.009 1486.72 456.766 1442.03 509.432C1381.38 581.175 1304.94 643.295 1217.45 670.367C1137.79 695.016 1052.92 690.852 970.694 715.84C925.319 729.626 882.894 750.956 843.238 776.661C765.107 827.196 698.358 894.634 623.244 950.581C569.454 990.656 514.983 1017.47 452.744 1030.42C400.909 1041.2 344.303 1042.87 312.614 1092.12C283.317 1137.65 269.206 1191.33 248.507 1243.42" stroke="#1C64EB" stroke-width="0.864782" stroke-miterlimit="10"/>
<path d="M1676.92 187.118C1640.6 238.19 1590.94 284.365 1556.67 341.318C1521.41 400.096 1484.86 459.898 1439.42 513.361C1378.45 585.318 1300.85 647.164 1212.11 672.759C1131.57 695.989 1046.05 689.412 963.776 714.427C918.575 728.166 876.547 750.232 837.26 776.265C759.925 827.425 693.274 894.108 618.47 949.758C565.032 989.526 510.145 1017.84 448.017 1032.27C396.603 1044.22 340.564 1045.93 310.169 1096.14C282.163 1142.41 269.673 1196.32 249.436 1248.12" stroke="#1C64EB" stroke-width="0.864782" stroke-miterlimit="10"/>
<path d="M1675.54 181.955C1639.02 235.795 1589.27 283.561 1555.08 341.93C1519.87 402.189 1483 463.034 1436.82 517.291C1375.53 589.461 1296.77 651.044 1206.79 675.15C1125.36 696.968 1039.19 687.976 956.87 713.018C911.842 726.714 870.214 749.505 831.291 775.875C754.748 827.663 688.204 893.589 613.706 948.945C560.619 988.401 505.309 1018.21 443.296 1034.13C392.303 1047.23 336.826 1048.99 307.738 1100.17C281.016 1147.18 270.16 1201.33 250.376 1252.83" stroke="#1C64EB" stroke-width="0.864782" stroke-miterlimit="10"/>
<path d="M1674.16 176.795C1637.45 233.408 1587.61 282.764 1553.5 342.546C1518.33 404.287 1481.15 466.17 1434.22 521.221C1372.61 593.606 1292.72 655.103 1201.46 677.548C1119.17 698.112 1032.32 686.548 949.965 711.608C905.111 725.256 863.88 748.785 825.328 775.486C749.578 827.902 683.138 893.074 608.947 948.129C556.21 987.275 500.468 1018.57 438.585 1035.99C388.004 1050.23 333.088 1052.06 305.312 1104.19C279.867 1151.95 270.646 1206.34 251.324 1257.55" stroke="#1C64EB" stroke-width="0.864782" stroke-miterlimit="10"/>
<path d="M1672.77 171.634C1635.87 231.02 1585.93 281.964 1551.91 343.159C1516.79 406.382 1479.28 469.307 1431.61 525.153C1369.69 597.75 1288.61 658.911 1196.13 679.941C1112.93 699.028 1025.45 685.11 943.053 710.197C898.369 723.799 857.536 748.059 819.355 775.091C744.398 828.135 678.06 892.549 604.181 947.311C551.794 986.146 495.614 1018.92 433.866 1037.85C383.69 1053.23 329.271 1055.1 302.876 1108.22C278.641 1156.69 271.125 1211.33 252.259 1262.26" stroke="#1C64EB" stroke-width="0.864782" stroke-miterlimit="10"/>
<path d="M1671.39 166.471C1634.29 228.625 1584.27 281.163 1550.33 343.769C1515.25 408.47 1477.43 472.437 1429.01 529.081C1366.77 601.893 1284.51 662.718 1190.81 682.332C1106.7 699.939 1018.59 683.676 936.146 708.783C891.638 722.341 851.2 747.334 813.388 774.695C739.227 828.365 672.989 892.026 599.417 946.488C547.381 985.011 490.755 1019.26 429.143 1039.7C379.369 1056.22 325.578 1058.19 300.439 1112.23C277.533 1161.48 271.601 1216.33 253.193 1266.96" stroke="#1C64EB" stroke-width="0.864782" stroke-miterlimit="10"/>
</g>
</svg>
