<svg width="48" height="46" viewBox="0 0 48 46" fill="none" xmlns="http://www.w3.org/2000/svg">
<path d="M39.75 36.5C39.75 35.2812 38.7188 34.25 37.5 34.25C36.1875 34.25 35.25 35.2812 35.25 36.5C35.25 37.8125 36.1875 38.75 37.5 38.75C38.7188 38.75 39.75 37.8125 39.75 36.5ZM31.5 34.25C30.1875 34.25 29.25 35.2812 29.25 36.5C29.25 37.8125 30.1875 38.75 31.5 38.75C32.7188 38.75 33.75 37.8125 33.75 36.5C33.75 35.2812 32.7188 34.25 31.5 34.25ZM37.5 20.75C36.1875 20.75 35.25 21.7812 35.25 23C35.25 24.3125 36.1875 25.25 37.5 25.25C38.7188 25.25 39.75 24.3125 39.75 23C39.75 21.7812 38.7188 20.75 37.5 20.75ZM31.5 20.75C30.1875 20.75 29.25 21.7812 29.25 23C29.25 24.3125 30.1875 25.25 31.5 25.25C32.7188 25.25 33.75 24.3125 33.75 23C33.75 21.7812 32.7188 20.75 31.5 20.75ZM48 14V5C48 2.5625 45.9375 0.5 43.5 0.5H4.5C1.96875 0.5 0 2.5625 0 5V14V14.0938C0 14.75 0.1875 15.6875 0.5625 16.25C0.1875 16.9062 0 17.8438 0 18.5V27.5V27.5938C0 28.25 0.1875 29.1875 0.5625 29.75C0.1875 30.4062 0 31.3438 0 32V41C0 43.5312 1.96875 45.5 4.5 45.5H43.5C45.9375 45.5 48 43.5312 48 41V32C48 31.3438 47.7188 30.4062 47.3438 29.75C47.7188 29.1875 48 28.25 48 27.5938V27.5V18.5C48 17.8438 47.7188 16.9062 47.3438 16.25C47.7188 15.6875 48 14.75 48 14.0938V14ZM4.5 14V5H43.5V14H4.5ZM43.5 18.5V27.5H4.5V18.5H43.5ZM43.5 32V41H4.5V32H43.5ZM37.5 11.75C38.7188 11.75 39.75 10.8125 39.75 9.5C39.75 8.28125 38.7188 7.25 37.5 7.25C36.1875 7.25 35.25 8.28125 35.25 9.5C35.25 10.8125 36.1875 11.75 37.5 11.75ZM31.5 11.75C32.7188 11.75 33.75 10.8125 33.75 9.5C33.75 8.28125 32.7188 7.25 31.5 7.25C30.1875 7.25 29.25 8.28125 29.25 9.5C29.25 10.8125 30.1875 11.75 31.5 11.75Z" fill="#F9FAFB"/>
</svg>
