<svg width="1440" height="1993" viewBox="0 0 1440 1993" fill="none" xmlns="http://www.w3.org/2000/svg">
<g opacity="0.2">
<path d="M1334.11 1678.19C1363.24 1665.31 1380.47 1635.28 1385.5 1604.08C1390.52 1572.88 1385.02 1540.28 1378.53 1508.49C1369.95 1466.45 1359.16 1423.58 1334.72 1386.81C1300.65 1335.55 1244.17 1302.15 1188 1275.48C1088.25 1228.14 982.631 1195.6 876.321 1169.5C762.362 1141.51 642.455 1118.7 546.675 1048.78C460.722 986.026 426.064 906.202 395.379 812.453C366.76 725.017 357.577 630.322 303.697 550.173C233.001 445.004 99.0814 387.961 -25.5815 389.724C-150.244 391.487 -265.386 445.099 -358.998 518.645" stroke="#1C64EB" stroke-width="0.864782" stroke-miterlimit="10"/>
<path d="M1348.84 1673.55C1374.64 1662.86 1387.54 1634.43 1389.86 1603.61C1392.17 1572.88 1385.63 1540.36 1377.49 1509.13C1366.78 1468.02 1354.59 1425.63 1328.65 1389.22C1291.79 1337.46 1233.3 1301.87 1175.76 1273.03C1077.72 1223.88 973.634 1190.16 869.281 1162.64C758.278 1133.38 641.199 1110.33 547.508 1040.97C462.044 977.697 425.352 898.468 392.262 807.036C361.166 721.706 348.378 630.637 293.396 553.663C221.495 453.002 89.4359 398.675 -34.2503 399.6C-158.377 400.414 -272.32 449.041 -366.287 518.867" stroke="#1C64EB" stroke-width="0.864782" stroke-miterlimit="10"/>
<path d="M1363.55 1668.9C1386.03 1660.41 1394.61 1633.67 1394.21 1603.13C1393.82 1572.95 1386.24 1540.44 1376.45 1509.77C1363.62 1469.6 1349.98 1427.67 1322.59 1391.62C1282.89 1339.37 1222.43 1301.64 1163.53 1270.57C1067.18 1219.75 964.661 1184.73 862.244 1155.79C754.201 1125.27 639.946 1101.93 548.344 1033.15C463.375 969.356 424.843 890.667 389.143 801.62C355.763 718.349 339.209 630.98 283.099 557.152C210.034 461.021 79.7941 409.384 -42.9182 409.475C-166.512 409.338 -279.255 452.979 -373.578 519.09" stroke="#1C64EB" stroke-width="0.864782" stroke-miterlimit="10"/>
<path d="M1378.25 1664.29C1397.42 1657.99 1401.69 1633.04 1398.56 1602.68C1395.51 1573.14 1386.85 1540.57 1375.4 1510.44C1360.49 1471.22 1345.34 1429.76 1316.53 1394.06C1273.95 1341.29 1211.59 1301.48 1151.3 1268.14C1056.6 1215.77 955.701 1179.34 855.204 1148.97C750.136 1117.22 638.692 1093.55 549.166 1025.37C464.69 961.035 424.21 882.922 386.017 796.222C350.247 715.023 330.069 631.351 272.79 560.646C198.602 469.057 70.1356 420.094 -51.6003 419.344C-174.658 418.256 -286.205 456.919 -380.884 519.315" stroke="#1C64EB" stroke-width="0.864782" stroke-miterlimit="10"/>
<path d="M1392.94 1659.93C1408.79 1655.82 1408.82 1632.76 1402.9 1602.47C1397.25 1573.64 1387.48 1540.93 1374.34 1511.33C1357.35 1473.06 1340.65 1432.05 1310.44 1396.69C1264.95 1343.42 1200.71 1301.55 1139.03 1265.89C1045.95 1212.08 946.702 1174.14 848.093 1142.3C746.006 1109.35 637.356 1085.3 549.888 1017.72C465.896 952.827 423.454 875.274 382.771 790.92C344.602 711.773 320.834 631.813 262.356 564.188C187.084 477.145 60.3329 430.822 -60.4416 429.235C-182.982 427.206 -293.343 460.896 -388.39 519.593" stroke="#1C64EB" stroke-width="0.864782" stroke-miterlimit="10"/>
<path d="M1407.62 1655.57C1420.15 1653.65 1416.02 1632.54 1407.23 1602.27C1399.09 1574.2 1388.12 1541.31 1373.28 1512.22C1354.25 1474.92 1335.94 1434.36 1304.37 1399.32C1255.92 1345.55 1189.84 1301.66 1126.77 1263.64C1035.28 1208.49 937.729 1168.96 840.985 1135.64C741.882 1101.51 636.026 1077.03 550.608 1010.07C467.101 944.614 422.69 867.632 379.524 785.623C338.945 708.524 311.64 632.292 251.923 567.738C175.617 485.25 50.5438 441.813 -69.2848 439.135C-191.291 436.407 -300.481 464.871 -395.892 519.865" stroke="#1C64EB" stroke-width="0.864782" stroke-miterlimit="10"/>
<path d="M1422.31 1651.21C1431.52 1651.48 1423.31 1632.39 1411.57 1602.06C1401.02 1574.8 1388.78 1541.69 1372.22 1513.11C1351.18 1476.78 1331.2 1436.67 1298.29 1401.95C1246.85 1347.7 1178.97 1301.81 1114.51 1261.4C1024.56 1205 928.771 1163.81 833.874 1128.98C737.77 1093.71 634.706 1068.77 551.324 1002.44C468.308 936.398 421.91 859.991 376.276 780.329C333.279 705.274 302.488 632.792 241.485 571.286C164.2 493.362 40.7375 452.585 -78.1312 449.028C-199.613 445.391 -307.618 468.842 -403.397 520.14" stroke="#1C64EB" stroke-width="0.864782" stroke-miterlimit="10"/>
<path d="M1437 1646.86C1442.89 1649.31 1430.7 1632.28 1415.91 1601.85C1403.06 1575.42 1389.46 1542.08 1371.16 1514C1348.12 1478.65 1326.45 1439 1292.21 1404.58C1237.76 1349.86 1168.09 1302 1102.24 1259.15C1013.82 1201.59 919.83 1158.69 826.764 1122.32C733.663 1085.94 633.391 1060.47 552.04 994.789C469.524 928.162 421.124 852.34 373.026 775.028C327.606 702.016 293.379 633.295 231.046 574.824C152.847 501.468 30.9258 463.341 -86.9819 458.912C-207.946 454.367 -314.77 472.811 -410.914 520.409" stroke="#1C64EB" stroke-width="0.864782" stroke-miterlimit="10"/>
<path d="M1451.69 1642.51C1454.26 1647.14 1438.19 1632.16 1420.26 1601.65C1405.2 1576.03 1390.17 1542.46 1370.12 1514.89C1345.11 1480.51 1321.69 1441.33 1286.15 1407.21C1228.66 1352.03 1157.22 1302.23 1090 1256.89C1003.06 1198.26 910.918 1153.59 819.678 1115.66C729.587 1078.21 632.108 1052.16 552.781 987.144C470.764 919.918 420.349 844.687 369.803 769.724C321.945 698.751 284.348 633.8 220.641 578.356C141.587 509.559 21.1453 474.083 -95.7978 468.784C-216.259 463.328 -321.896 476.774 -418.406 520.673" stroke="#1C64EB" stroke-width="0.864782" stroke-miterlimit="10"/>
<path d="M1466.38 1638.16C1465.64 1644.98 1445.77 1632.02 1424.6 1601.44C1407.42 1576.62 1390.9 1542.84 1369.07 1515.78C1342.12 1482.37 1316.92 1443.69 1280.08 1409.84C1219.53 1354.22 1146.32 1302.5 1077.75 1254.65C992.261 1194.99 902.012 1148.53 812.573 1109C725.501 1070.52 630.813 1043.84 553.5 979.5C471.989 911.663 419.542 837.038 366.556 764.422C316.256 695.484 275.343 634.308 210.205 581.888C130.366 517.637 11.3361 484.819 -104.652 478.655C-224.583 472.281 -329.037 480.728 -425.911 520.935" stroke="#1C64EB" stroke-width="0.864782" stroke-miterlimit="10"/>
<path d="M1481.08 1633.81C1477.03 1642.82 1453.43 1631.84 1428.97 1601.24C1409.72 1577.18 1391.66 1543.22 1368.04 1516.67C1339.16 1484.22 1312.14 1446.05 1274.02 1412.47C1210.4 1356.43 1135.42 1302.8 1065.51 1252.4C981.446 1191.78 893.137 1143.49 805.486 1102.34C721.432 1062.87 629.546 1035.51 554.233 971.855C473.229 903.397 418.738 829.386 363.32 759.112C310.564 692.214 266.4 634.796 199.782 585.408C119.225 525.685 1.53823 495.542 -113.488 488.513C-232.904 481.215 -336.17 484.672 -433.416 521.181" stroke="#1C64EB" stroke-width="0.864782" stroke-miterlimit="10"/>
<path d="M1495.79 1629.46C1488.41 1640.66 1461.16 1631.6 1433.33 1601.04C1412.06 1577.69 1392.43 1543.59 1367 1517.56C1336.22 1486.06 1307.36 1448.42 1267.97 1415.1C1201.25 1358.65 1124.5 1303.14 1053.28 1250.15C970.593 1188.62 884.263 1138.5 798.395 1095.68C717.36 1055.27 628.285 1027.16 554.959 964.213C474.471 895.12 417.915 821.738 360.079 753.809C304.861 688.952 257.509 635.28 189.357 588.935C108.149 533.714 -8.26347 506.264 -122.328 498.375C-241.229 490.154 -343.308 488.623 -440.922 521.44" stroke="#1C64EB" stroke-width="0.864782" stroke-miterlimit="10"/>
<path d="M1510.5 1625.11C1499.81 1638.5 1468.95 1631.3 1437.7 1600.83C1414.44 1578.16 1393.22 1543.94 1365.98 1518.45C1333.31 1487.88 1302.57 1450.8 1261.93 1417.72C1192.09 1360.89 1113.57 1303.52 1041.05 1247.89C959.726 1185.5 875.408 1133.54 791.319 1089.01C713.297 1047.7 627.047 1018.78 555.701 956.557C475.737 886.813 417.099 814.08 356.856 748.487C299.162 685.671 248.686 635.717 178.948 592.434C97.1541 541.673 -18.0542 516.953 -131.155 508.211C-249.546 499.064 -350.441 492.549 -448.425 521.675" stroke="#1C64EB" stroke-width="0.864782" stroke-miterlimit="10"/>
<path d="M1525.22 1620.77C1511.22 1636.34 1476.77 1630.94 1442.08 1600.63C1416.85 1578.59 1394.04 1544.29 1364.98 1519.35C1330.42 1489.69 1297.8 1453.19 1255.9 1420.35C1182.93 1363.15 1102.62 1303.93 1028.84 1245.63C948.833 1182.43 866.565 1128.61 784.248 1082.34C709.236 1040.18 625.826 1010.39 556.443 948.897C477.01 878.491 416.269 806.418 353.629 743.16C293.45 682.389 239.906 636.117 168.532 595.928C86.2149 549.579 -27.8493 527.627 -139.991 518.036C-257.872 507.954 -357.576 496.461 -455.927 521.892" stroke="#1C64EB" stroke-width="0.864782" stroke-miterlimit="10"/>
<path d="M1539.97 1616.42C1522.66 1634.18 1484.64 1630.52 1446.49 1600.42C1419.29 1578.97 1394.89 1544.61 1363.99 1520.22C1327.57 1491.48 1293.03 1455.58 1249.9 1422.96C1173.79 1365.41 1091.67 1304.35 1016.65 1243.36C937.936 1179.37 857.742 1123.71 777.2 1075.65C705.187 1032.68 624.635 1001.96 557.208 941.212C478.316 870.133 415.452 798.738 350.424 737.799C287.752 679.077 231.193 636.437 158.141 599.388C75.3493 557.398 -37.6258 538.262 -148.807 527.827C-266.174 516.808 -364.703 500.344 -463.42 522.085" stroke="#1C64EB" stroke-width="0.864782" stroke-miterlimit="10"/>
<path d="M1554.75 1612.07C1534.12 1632.01 1492.53 1630.03 1450.92 1600.22C1421.75 1579.31 1395.77 1544.92 1363.03 1521.11C1324.74 1493.25 1288.29 1457.97 1243.91 1425.57C1164.65 1367.69 1080.7 1304.8 1004.47 1241.07C927.018 1176.33 848.916 1118.84 770.156 1068.94C701.127 1025.21 623.455 993.504 557.97 933.514C479.626 861.74 414.626 791.043 347.212 732.424C282.041 675.756 222.512 636.694 147.736 602.825C64.5178 565.128 -47.4164 548.869 -157.64 537.591C-274.501 525.63 -371.842 504.197 -470.936 522.247" stroke="#1C64EB" stroke-width="0.864782" stroke-miterlimit="10"/>
<path d="M1569.55 1607.72C1545.6 1629.84 1500.46 1629.5 1455.38 1600C1424.23 1579.61 1396.68 1545.22 1362.09 1521.98C1321.94 1494.99 1283.57 1460.37 1237.96 1428.17C1155.53 1369.98 1069.73 1305.28 992.317 1238.78C916.092 1173.31 840.097 1114.01 763.131 1062.23C697.072 1017.78 622.301 985.02 558.749 925.802C480.969 853.321 413.806 783.341 344.014 727.03C276.339 672.422 213.872 636.875 137.344 606.237C53.7326 572.77 -57.196 559.45 -166.465 547.331C-282.814 534.423 -378.975 508.023 -478.437 522.384" stroke="#1C64EB" stroke-width="0.864782" stroke-miterlimit="10"/>
<path d="M1584.38 1603.36C1557.12 1627.67 1508.4 1628.92 1459.86 1599.78C1426.72 1579.89 1397.61 1545.49 1361.17 1522.84C1319.16 1496.72 1278.86 1462.77 1232.01 1430.76C1146.41 1372.26 1058.74 1305.77 980.182 1236.47C905.159 1170.29 831.276 1109.2 756.131 1055.48C693.016 1010.37 621.189 976.499 559.553 918.057C482.345 844.855 413.003 775.615 340.841 721.596C270.649 669.055 205.284 636.945 126.977 609.613C43.0008 580.302 -66.9533 569.983 -175.267 557.03C-291.118 543.177 -386.097 511.811 -485.934 522.485" stroke="#1C64EB" stroke-width="0.864782" stroke-miterlimit="10"/>
<path d="M1599.23 1598.99C1568.64 1625.5 1516.35 1628.29 1464.36 1599.56C1429.22 1580.14 1398.56 1545.75 1360.28 1523.7C1316.4 1498.43 1274.16 1465.16 1226.09 1433.34C1137.31 1374.56 1047.72 1306.28 968.054 1234.15C894.207 1167.29 822.431 1104.43 749.131 1048.73C688.937 1002.99 620.087 967.947 560.357 910.305C483.735 836.357 412.196 767.882 337.659 716.153C264.949 665.687 196.695 636.938 116.594 612.976C32.2611 587.748 -76.7315 580.501 -184.088 566.716C-299.434 551.907 -393.234 515.587 -493.449 522.567" stroke="#1C64EB" stroke-width="0.864782" stroke-miterlimit="10"/>
<path d="M1614.09 1594.63C1580.2 1623.32 1524.31 1627.63 1468.88 1599.34C1431.71 1580.37 1399.52 1546 1359.39 1524.56C1313.65 1500.13 1269.48 1467.58 1220.18 1435.92C1128.21 1376.88 1036.68 1306.83 955.948 1231.83C883.246 1164.3 813.575 1099.72 742.15 1041.98C684.843 995.65 619.014 959.383 561.177 902.543C485.158 827.839 411.402 760.151 334.498 710.695C259.265 662.313 188.13 636.841 106.231 616.324C21.5458 595.11 -86.4889 591.001 -192.893 576.39C-307.733 560.621 -400.359 519.345 -500.947 522.639" stroke="#1C64EB" stroke-width="0.864782" stroke-miterlimit="10"/>
<path d="M1628.97 1590.26C1591.76 1621.14 1532.25 1626.94 1473.41 1599.11C1434.21 1580.57 1400.5 1546.23 1358.52 1525.41C1310.91 1501.81 1264.8 1469.98 1214.27 1438.5C1119.11 1379.2 1025.61 1307.39 943.837 1229.49C872.256 1161.31 804.669 1095.03 735.165 1035.2C680.714 988.331 617.949 950.781 561.991 894.765C486.592 819.285 410.595 752.41 331.327 705.224C253.569 658.935 179.551 636.657 95.8614 619.658C10.815 602.386 -96.2511 601.483 -201.707 586.045C-316.046 569.312 -407.489 523.084 -508.457 522.683" stroke="#1C64EB" stroke-width="0.864782" stroke-miterlimit="10"/>
<path d="M1643.85 1585.89C1603.32 1618.95 1540.2 1626.23 1477.94 1598.88C1436.7 1580.76 1401.47 1546.45 1357.65 1526.26C1308.17 1503.47 1260.13 1472.39 1208.38 1441.07C1110.02 1381.54 1014.51 1307.97 931.736 1227.16C861.249 1158.34 795.719 1090.39 728.192 1028.43C676.558 981.045 616.912 942.172 562.817 886.984C488.059 810.713 409.805 744.673 328.169 699.745C247.883 655.562 170.965 636.39 85.498 622.985C0.0699014 609.59 -106.01 611.954 -210.515 595.7C-324.349 577.997 -414.615 526.823 -515.96 522.732" stroke="#1C64EB" stroke-width="0.864782" stroke-miterlimit="10"/>
<path d="M1658.75 1581.51C1614.9 1616.76 1548.14 1625.49 1482.49 1598.64C1439.18 1580.93 1402.45 1546.65 1356.79 1527.11C1305.44 1505.13 1255.47 1474.8 1202.49 1443.63C1100.93 1383.89 1003.37 1308.58 919.642 1224.81C850.224 1155.36 786.715 1085.78 721.224 1021.64C672.362 973.775 615.893 933.532 563.65 879.181C489.552 802.097 409.014 736.925 325.015 694.247C242.203 652.173 162.356 636.031 75.1402 626.297C-10.696 616.716 -115.761 622.407 -219.316 605.337C-332.646 586.657 -421.74 530.542 -523.458 522.761" stroke="#1C64EB" stroke-width="0.864782" stroke-miterlimit="10"/>
<path d="M1673.65 1577.13C1626.48 1614.57 1556.07 1624.74 1487.03 1598.41C1441.65 1581.09 1403.44 1546.85 1355.93 1527.95C1302.7 1506.77 1250.8 1477.22 1196.6 1446.2C1091.83 1386.24 992.184 1309.21 907.541 1222.46C839.168 1152.39 777.632 1081.22 714.248 1014.85C668.111 966.529 614.883 924.885 564.473 871.384C491.064 793.468 408.221 729.188 321.852 688.752C236.512 648.8 153.704 635.606 64.769 629.61C-21.5152 623.791 -125.524 632.858 -228.133 614.98C-340.959 595.322 -428.876 534.265 -530.976 522.791" stroke="#1C64EB" stroke-width="0.864782" stroke-miterlimit="10"/>
<path d="M1688.56 1572.74C1638.08 1612.38 1563.99 1623.98 1491.58 1598.16C1444.13 1581.25 1404.42 1547.04 1355.09 1528.79C1299.97 1508.41 1246.15 1479.64 1190.72 1448.76C1082.75 1388.61 980.971 1309.86 895.458 1220.11C828.105 1149.42 768.488 1076.69 707.29 1008.05C663.824 959.293 613.904 916.214 565.316 863.571C492.62 784.803 407.447 721.444 318.706 683.244C230.841 645.417 145.031 635.114 54.4162 632.909C-32.3595 630.799 -135.27 643.289 -236.93 624.605C-349.248 603.962 -435.995 537.967 -538.468 522.801" stroke="#1C64EB" stroke-width="0.864782" stroke-miterlimit="10"/>
<path d="M1703.47 1568.36C1649.67 1610.18 1571.9 1623.2 1496.14 1597.92C1446.59 1581.39 1405.4 1547.22 1354.24 1529.63C1297.23 1510.04 1241.5 1482.06 1184.84 1451.32C1073.66 1390.99 969.707 1310.54 883.366 1217.75C817.015 1146.45 759.245 1072.19 700.326 1001.25C659.485 952.074 612.933 907.54 566.152 855.767C494.198 776.128 406.665 713.719 315.553 677.744C225.166 642.056 136.3 634.568 44.0559 636.223C-43.2606 637.785 -145.022 653.734 -245.737 634.251C-357.549 612.616 -443.121 541.691 -545.977 522.83" stroke="#1C64EB" stroke-width="0.864782" stroke-miterlimit="10"/>
<path d="M1718.47 1563.95C1661.35 1607.97 1579.89 1622.4 1500.77 1597.66C1449.12 1581.51 1406.46 1547.38 1353.46 1530.45C1294.56 1511.64 1236.91 1484.46 1179.02 1453.85C1064.62 1393.35 958.457 1311.2 871.322 1215.35C805.946 1143.44 749.949 1067.66 693.402 994.389C655.123 944.787 612.019 898.786 567.024 847.887C495.84 767.352 405.921 705.915 312.424 672.153C219.513 638.608 127.54 633.888 33.7057 639.442C-54.2062 644.645 -154.77 664.087 -254.542 643.8C-365.848 621.168 -450.253 545.314 -553.489 522.756" stroke="#1C64EB" stroke-width="0.864782" stroke-miterlimit="10"/>
<path d="M1733.47 1559.54C1673.02 1605.75 1587.85 1621.59 1505.4 1597.4C1451.63 1581.63 1407.51 1547.52 1352.68 1531.26C1291.88 1513.23 1232.32 1486.88 1173.2 1456.38C1055.59 1395.73 947.162 1311.88 859.285 1212.95C794.865 1140.43 740.562 1063.15 686.487 987.525C650.714 937.497 611.127 890.022 567.91 840.002C497.537 758.55 405.194 698.107 309.31 666.563C213.883 635.166 118.744 633.168 23.37 642.666C-65.1931 651.483 -164.502 674.437 -263.331 653.355C-374.128 629.719 -457.371 548.936 -560.984 522.682" stroke="#1C64EB" stroke-width="0.864782" stroke-miterlimit="10"/>
<path d="M1748.47 1555.13C1684.69 1603.54 1595.82 1620.77 1510.03 1597.14C1454.14 1581.74 1408.55 1547.67 1351.9 1532.08C1289.2 1514.82 1227.73 1489.29 1167.38 1458.92C1046.55 1398.12 935.812 1312.58 847.239 1210.55C783.747 1137.42 731.056 1058.65 679.562 980.665C646.24 930.2 610.243 881.251 568.788 832.127C499.259 749.732 404.463 690.323 306.191 660.981C208.248 631.74 109.893 632.43 13.0345 645.899C-76.2305 658.315 -174.204 684.62 -272.122 662.924C-382.38 638.085 -464.486 552.574 -568.485 522.622" stroke="#1C64EB" stroke-width="0.864782" stroke-miterlimit="10"/>
<path d="M1763.46 1550.71C1696.37 1601.32 1603.77 1619.95 1514.66 1596.88C1456.63 1581.85 1409.59 1547.81 1351.11 1532.89C1286.5 1516.41 1223.13 1491.71 1161.55 1461.45C1037.51 1400.51 924.414 1313.31 835.189 1208.15C772.613 1134.4 721.435 1054.14 672.635 973.803C641.7 922.88 609.378 872.475 569.664 824.244C501.027 740.886 403.695 682.707 303.067 655.397C202.572 628.49 100.98 631.664 2.68732 649.133C-87.3301 665.131 -183.948 695.03 -280.921 672.493C-390.675 646.702 -471.613 556.207 -575.99 522.561" stroke="#1C64EB" stroke-width="0.864782" stroke-miterlimit="10"/>
<path d="M1778.46 1546.29C1708.04 1599.09 1611.7 1619.12 1519.28 1596.61C1459.12 1581.95 1410.63 1547.85 1350.33 1533.7C1283.82 1517.88 1218.49 1494.23 1155.72 1463.98C1028.37 1403.13 912.974 1314.05 823.139 1205.75C761.459 1131.39 711.708 1049.61 665.712 966.939C637.115 915.531 608.536 863.694 570.544 816.363C502.843 732.019 402.994 674.838 299.949 649.812C196.969 624.988 92.0252 630.884 -7.65493 652.369C-98.4785 671.946 -193.69 705.446 -289.721 682.066C-398.968 655.32 -478.738 559.85 -583.496 522.502" stroke="#1C64EB" stroke-width="0.864782" stroke-miterlimit="10"/>
<path d="M1793.46 1541.87C1719.72 1596.87 1619.63 1618.29 1523.91 1596.34C1461.6 1582.06 1411.64 1548.08 1349.54 1534.52C1281.09 1519.57 1213.94 1496.55 1149.89 1466.51C1019.42 1405.33 901.481 1314.81 811.083 1203.35C750.275 1128.37 701.861 1045.07 658.783 960.076C632.461 908.148 607.708 854.91 571.418 808.483C504.709 723.126 402.292 666.974 296.823 644.232C191.354 621.49 83.0189 630.1 -18.0023 655.616C-109.679 678.767 -203.434 715.872 -298.519 691.651C-407.266 663.95 -485.859 563.499 -591 522.446" stroke="#1C64EB" stroke-width="0.864782" stroke-miterlimit="10"/>
<path d="M1289.11 1538.47C1339.57 1440.11 1351.55 1321.59 1322.31 1209.88C1313.99 1178.1 1301.76 1145.77 1278.17 1121.35C1210 1050.79 1092.45 1064.96 1006.5 1062.9C902.775 1060.42 799.004 1060.41 695.074 1049.7C636.725 1043.68 571.374 1030.26 535.696 982.911C499.568 934.962 508.163 872.025 511.743 815.171C515.916 748.921 510.45 680.113 483.617 616.724C456.787 553.341 406.453 495.775 341.231 469.533C290.158 448.981 234.374 448.74 181.121 453.152C41.1942 464.741 -93.6653 506.561 -211.093 574.77" stroke="#1C64EB" stroke-width="0.864782" stroke-miterlimit="10"/>
<path d="M1293.79 1535.44C1342.62 1440.28 1350.63 1325.97 1320.06 1213.45C1311.53 1182.03 1299.44 1150.06 1276.3 1125.8C1209.33 1055.53 1094.83 1067.22 1009.9 1063.95C919.358 1060.47 828.309 1059.54 736.217 1051.33C724.885 1050.34 713.552 1049.25 702.217 1048.02C644.48 1041.81 579.961 1028.49 544.164 982.375C507.883 935.67 514.885 874.5 517.068 819.215C519.525 754.776 512.697 687.869 485.288 626.153C457.729 564.4 407.527 508.208 343.077 482.174C299.282 464.474 252.152 461.439 206.259 463.183C199.155 463.449 192.091 463.877 185.062 464.295C45.5905 472.601 -84.3809 507.526 -198.007 573.523" stroke="#1C64EB" stroke-width="0.864782" stroke-miterlimit="10"/>
<path d="M1298.47 1532.42C1345.67 1440.45 1349.72 1330.36 1317.82 1217.01C1309.07 1185.95 1297.12 1154.37 1274.42 1130.26C1208.66 1060.26 1097.2 1069.49 1013.29 1065.01C924.501 1060.27 834.722 1058.64 742.985 1049.81C731.777 1048.77 720.566 1047.62 709.352 1046.37C652.227 1039.95 588.535 1026.73 552.62 981.85C516.18 936.389 521.592 876.981 522.376 823.27C523.114 760.645 514.933 695.634 486.939 635.589C458.653 575.463 408.584 520.65 344.9 494.824C301.542 477.228 255.048 473.716 209.858 474.714C202.86 474.861 195.904 475.202 188.98 475.45C49.908 480.447 -75.1185 508.512 -184.945 572.291" stroke="#1C64EB" stroke-width="0.864782" stroke-miterlimit="10"/>
<path d="M1303.14 1529.39C1348.71 1440.62 1348.84 1334.76 1315.57 1220.58C1306.63 1189.88 1294.8 1158.66 1272.55 1134.72C1207.99 1065 1099.59 1071.77 1016.69 1066.07C929.66 1060.07 841.146 1057.52 749.757 1048.28C738.672 1047.17 727.583 1046 716.492 1044.71C659.979 1038.09 597.119 1024.97 561.083 981.33C524.491 937.113 528.419 879.478 527.691 827.329C526.845 766.521 517.335 703.344 488.602 645.031C459.743 586.47 409.652 533.095 346.741 507.483C303.819 489.99 257.963 486.007 213.471 486.251C206.574 486.276 199.73 486.534 192.916 486.614C54.1956 488.272 -65.8411 509.505 -171.864 571.076" stroke="#1C64EB" stroke-width="0.864782" stroke-miterlimit="10"/>
<path d="M1307.82 1526.37C1351.75 1440.78 1347.96 1339.15 1313.32 1224.14C1304.19 1193.79 1292.48 1162.96 1270.68 1139.17C1207.33 1069.72 1101.99 1074.06 1020.09 1067.12C934.825 1059.89 847.564 1056.55 756.526 1046.76C745.562 1045.58 734.594 1044.38 723.626 1043.04C667.722 1036.22 605.693 1023.21 569.538 980.798C532.789 937.821 535.162 881.949 533.002 831.371C530.481 772.373 519.624 711.073 490.264 654.451C460.726 597.495 410.722 545.519 348.58 520.113C306.094 502.723 260.872 498.267 217.085 497.762C210.294 497.669 203.555 497.834 196.847 497.753C58.4269 496.041 -56.5721 510.481 -158.793 569.839" stroke="#1C64EB" stroke-width="0.864782" stroke-miterlimit="10"/>
<path d="M1312.49 1523.39C1354.79 1440.99 1347.1 1343.57 1311.08 1227.73C1301.75 1197.75 1290.16 1167.28 1268.81 1143.66C1206.66 1074.48 1104.39 1076.39 1023.47 1068.2C939.984 1059.76 853.974 1055.62 763.282 1045.26C752.443 1044.02 741.595 1042.79 730.75 1041.41C675.457 1034.39 614.258 1021.48 577.981 980.306C541.076 938.567 541.893 884.455 538.3 835.449C534.106 778.254 521.892 718.829 491.906 663.901C461.686 608.544 411.767 557.966 350.393 532.771C308.345 515.48 263.756 510.551 220.666 509.298C213.977 509.084 207.342 509.159 200.747 508.913C62.5782 503.792 -47.3376 511.48 -145.76 568.627" stroke="#1C64EB" stroke-width="0.864782" stroke-miterlimit="10"/>
<path d="M1317.16 1520.41C1357.83 1441.2 1346.26 1348.01 1308.82 1231.33C1299.32 1201.71 1287.83 1171.62 1266.92 1148.15C1205.98 1079.25 1106.79 1078.73 1026.85 1069.29C945.145 1059.64 860.372 1054.7 770.028 1043.78C759.311 1042.48 748.588 1041.2 737.861 1039.79C683.178 1032.57 622.809 1019.76 586.409 979.817C549.348 939.322 548.609 886.963 543.582 839.53C537.713 784.135 524.144 726.589 493.538 673.353C462.631 619.593 412.808 570.413 352.195 545.429C310.587 528.244 266.63 522.843 224.24 520.838C217.657 520.505 211.126 520.482 204.644 520.081C66.6833 511.513 -38.1065 512.496 -132.735 567.43" stroke="#1C64EB" stroke-width="0.864782" stroke-miterlimit="10"/>
<path d="M1321.85 1517.44C1360.89 1441.41 1345.46 1352.43 1306.6 1234.92C1296.92 1205.66 1285.48 1175.97 1265.07 1152.63C1205.2 1084.11 1109.23 1081.08 1030.26 1070.37C950.344 1059.53 866.803 1053.77 776.799 1042.28C766.206 1040.92 755.604 1039.61 745 1038.16C690.923 1030.74 631.383 1018.03 594.867 979.315C557.648 940.056 555.353 889.448 548.9 843.59C541.355 789.994 526.429 734.319 495.202 682.777C463.601 630.612 413.877 582.832 354.034 558.054C312.86 540.97 269.537 535.181 227.846 532.337C221.364 531.893 214.935 531.765 208.566 531.208C70.7694 519.147 -28.8566 513.469 -119.692 566.2" stroke="#1C64EB" stroke-width="0.864782" stroke-miterlimit="10"/>
<path d="M1326.58 1514.47C1363.99 1441.61 1344.73 1356.85 1304.42 1238.5C1294.57 1209.58 1283.22 1180.28 1263.26 1157.08C1204.57 1088.84 1111.71 1083.4 1033.7 1071.42C955.567 1059.42 873.25 1052.83 783.592 1040.75C773.12 1039.34 762.64 1037.99 752.154 1036.49C698.686 1028.87 639.972 1016.26 603.329 978.776C565.956 940.754 562.096 891.889 554.216 847.608C544.993 795.799 528.708 742.006 496.869 692.147C464.574 641.575 414.944 595.188 355.865 570.619C315.125 553.637 272.433 547.381 231.444 543.782C225.064 543.224 218.734 542.988 212.484 542.281C74.8071 526.668 -19.6201 514.393 -106.663 564.92" stroke="#1C64EB" stroke-width="0.864782" stroke-miterlimit="10"/>
<path d="M1331.32 1511.5C1367.09 1441.81 1344.01 1361.26 1302.24 1242.07C1292.23 1213.5 1280.96 1184.58 1261.46 1161.54C1203.95 1093.58 1114.2 1085.75 1037.14 1072.47C960.804 1059.32 879.707 1051.88 790.385 1039.23C780.035 1037.76 769.677 1036.37 759.314 1034.83C706.457 1027.01 648.562 1014.5 611.803 978.245C574.268 941.461 568.852 894.337 559.543 851.632C548.64 801.61 530.994 749.691 498.546 701.526C465.547 652.546 416.025 607.557 357.709 583.19C317.405 566.305 275.34 559.59 235.053 555.233C228.775 554.554 222.547 554.214 216.411 553.357C78.8262 534.14 -10.3736 515.32 -93.6232 563.648" stroke="#1C64EB" stroke-width="0.864782" stroke-miterlimit="10"/>
<path d="M1336.05 1508.53C1370.2 1442.02 1343.31 1365.67 1300.06 1245.65C1289.89 1217.43 1278.69 1188.89 1259.64 1166C1203.32 1098.32 1116.69 1088.12 1040.57 1073.53C966.035 1059.25 886.15 1050.95 797.172 1037.71C786.947 1036.19 776.704 1034.75 766.464 1033.18C714.213 1025.16 657.145 1012.75 620.261 977.721C582.572 942.173 575.591 896.785 564.858 855.658C552.271 807.419 533.263 757.384 500.207 710.904C466.504 663.514 417.086 619.92 359.535 595.762C319.664 578.978 278.231 571.797 238.64 566.684C232.467 565.886 226.333 565.435 220.313 564.436C82.7856 541.556 -1.15105 516.258 -80.6134 562.38" stroke="#1C64EB" stroke-width="0.864782" stroke-miterlimit="10"/>
<path d="M1340.78 1505.55C1373.31 1442.22 1342.63 1370.07 1297.88 1249.22C1287.56 1221.35 1276.43 1193.19 1257.84 1170.45C1202.7 1103.05 1119.19 1090.5 1044.01 1074.58C971.283 1059.19 892.605 1050.02 803.966 1036.18C793.863 1034.61 783.742 1033.13 773.624 1031.52C721.98 1023.3 665.736 1010.99 628.735 977.19C590.887 942.875 582.339 899.227 570.187 859.681C555.914 813.217 535.538 765.067 501.886 720.28C467.475 674.477 418.171 632.279 361.383 608.333C321.945 591.651 281.144 584.003 242.252 578.136C236.181 577.217 230.145 576.659 224.247 575.517C86.7558 548.904 8.09894 517.197 -67.5727 561.116" stroke="#1C64EB" stroke-width="0.864782" stroke-miterlimit="10"/>
<path d="M1345.52 1502.58C1376.41 1442.43 1341.98 1374.47 1295.7 1252.79C1285.24 1225.27 1274.18 1197.49 1256.03 1174.9C1202.09 1107.77 1121.69 1092.89 1047.45 1075.64C976.526 1059.16 899.051 1049.09 810.755 1034.66C800.773 1033.03 790.774 1031.51 780.775 1029.87C729.738 1021.44 674.385 1009.16 637.193 976.66C599.255 943.508 589.067 901.666 575.504 863.705C559.535 819.016 537.799 772.756 503.553 729.65C468.426 685.44 419.238 644.634 363.216 620.893C324.212 604.312 284.038 596.195 245.847 589.574C239.878 588.541 233.94 587.859 228.159 586.58C90.6901 556.17 17.3283 518.119 -54.5555 559.839" stroke="#1C64EB" stroke-width="0.864782" stroke-miterlimit="10"/>
<path d="M1350.25 1499.61C1379.52 1442.62 1341.34 1378.86 1293.53 1256.35C1282.93 1229.19 1271.92 1201.78 1254.23 1179.35C1201.48 1112.5 1124.21 1095.31 1050.9 1076.69C981.785 1059.14 905.513 1048.17 817.557 1033.14C807.7 1031.46 797.82 1029.89 787.943 1028.21C737.511 1019.58 682.985 1007.39 645.674 976.127C607.58 944.205 595.812 904.097 580.844 867.72C563.179 824.805 540.079 780.432 505.244 739.015C469.396 696.395 420.333 656.985 365.072 633.45C326.503 616.967 286.955 608.386 249.467 601.013C243.6 599.859 237.756 599.058 232.094 597.648C94.6352 563.366 26.5779 519.052 -41.5162 558.57" stroke="#1C64EB" stroke-width="0.864782" stroke-miterlimit="10"/>
<path d="M1354.99 1496.64C1382.63 1442.82 1340.73 1383.25 1291.36 1259.92C1280.62 1233.1 1269.67 1206.08 1252.42 1183.8C1200.86 1117.22 1126.72 1097.74 1054.34 1077.74C987.032 1059.15 911.963 1047.25 824.346 1031.62C814.608 1029.88 804.852 1028.28 795.095 1026.55C745.271 1017.73 691.574 1005.64 654.136 975.598C615.883 944.908 602.537 906.531 586.162 871.741C566.794 830.594 542.33 788.117 506.91 748.383C470.336 707.352 421.403 669.338 366.903 646.009C328.767 629.627 289.846 620.577 253.058 612.452C247.296 611.179 241.548 610.258 236.006 608.715C98.5573 570.483 35.8101 519.984 -28.5012 557.301" stroke="#1C64EB" stroke-width="0.864782" stroke-miterlimit="10"/>
<path d="M1359.73 1493.66C1385.74 1443.02 1340.15 1387.63 1289.19 1263.49C1278.32 1237.01 1267.43 1210.36 1250.62 1188.25C1200.26 1121.94 1129.25 1100.19 1057.78 1078.8C992.289 1059.18 918.417 1046.34 831.141 1030.1C821.529 1028.31 811.887 1026.66 802.256 1024.9C753.039 1015.87 700.166 1003.88 662.607 975.074C624.199 945.612 609.265 908.969 591.49 875.766C570.412 836.387 544.589 795.808 508.591 757.755C471.285 718.321 422.484 681.692 368.754 658.57C331.052 642.289 292.758 632.771 256.675 623.892C251.015 622.498 245.362 621.448 239.941 619.78C102.506 577.525 45.0577 520.919 -15.4612 556.038" stroke="#1C64EB" stroke-width="0.864782" stroke-miterlimit="10"/>
<path d="M1364.47 1490.69C1388.85 1443.22 1339.58 1391.99 1287.02 1267.05C1276.03 1240.91 1265.18 1214.65 1248.83 1192.69C1199.65 1126.65 1131.76 1102.67 1061.22 1079.84C997.542 1059.23 924.873 1045.43 837.938 1028.57C828.449 1026.73 818.93 1025.03 809.415 1023.23C760.802 1014.01 708.755 1002.11 671.075 974.53C632.508 946.3 615.98 911.386 596.817 879.766C574.024 842.157 546.84 803.475 510.273 767.098C472.233 729.257 423.573 694.015 370.601 671.103C333.338 654.922 295.667 644.933 260.282 635.304C254.722 633.79 249.17 632.612 243.862 630.822C106.457 584.457 54.2931 521.829 -2.44016 554.752" stroke="#1C64EB" stroke-width="0.864782" stroke-miterlimit="10"/>
<path d="M1369.21 1487.72C1391.97 1443.42 1339.05 1396.36 1284.86 1270.61C1273.75 1244.82 1262.94 1218.94 1247.04 1197.13C1199.06 1131.35 1134.29 1105.16 1064.68 1080.88C1002.8 1059.31 931.338 1044.53 844.74 1027.04C835.374 1025.15 825.976 1023.41 816.583 1021.57C768.577 1012.14 717.348 1000.34 679.553 973.995C640.825 947 622.703 913.816 602.157 883.781C577.638 847.939 549.098 811.157 511.962 776.455C473.178 740.212 424.662 706.353 372.454 683.649C335.623 667.569 298.583 657.109 263.898 646.733C258.44 645.098 252.985 643.787 247.8 641.879C110.444 591.324 63.5452 522.763 10.5953 553.483" stroke="#1C64EB" stroke-width="0.864782" stroke-miterlimit="10"/>
<path d="M1373.96 1484.75C1395.09 1443.62 1338.53 1400.7 1282.7 1274.17C1271.47 1248.73 1260.7 1223.22 1245.24 1201.58C1198.46 1136.07 1136.8 1107.69 1068.12 1081.94C1008.04 1059.41 937.786 1043.64 851.533 1025.52C842.286 1023.58 833.012 1021.79 823.739 1019.92C776.34 1010.29 725.933 998.586 688.017 973.466C649.131 947.702 629.402 916.247 607.479 887.796C581.226 853.726 551.339 818.848 513.638 785.814C474.105 751.176 425.742 718.694 374.3 696.194C337.902 680.215 301.487 669.281 267.507 658.161C262.154 656.408 256.796 654.958 251.726 652.933C114.451 598.106 72.7834 523.691 23.6179 552.215" stroke="#1C64EB" stroke-width="0.864782" stroke-miterlimit="10"/>
<path d="M1378.71 1481.78C1398.21 1443.82 1338.05 1405.04 1280.54 1277.73C1269.2 1252.62 1258.47 1227.5 1243.46 1206.01C1197.88 1140.77 1139.32 1110.23 1071.58 1082.98C1013.29 1059.53 944.246 1042.75 858.337 1024C849.212 1022.01 840.059 1020.17 830.908 1018.25C784.113 1008.43 734.53 996.822 696.498 972.928C657.447 948.396 636.115 918.673 612.82 891.798C584.828 859.507 553.588 826.524 515.329 795.155C475.046 762.125 426.833 731.013 376.155 708.722C340.189 692.844 304.406 681.434 271.12 669.569C265.868 667.695 260.614 666.111 255.653 663.971C118.5 604.791 82.0198 524.607 36.6405 550.933" stroke="#1C64EB" stroke-width="0.864782" stroke-miterlimit="10"/>
<path d="M1383.46 1478.8C1401.34 1444.01 1337.59 1409.37 1278.39 1281.28C1266.94 1256.5 1256.24 1231.78 1241.67 1210.44C1197.3 1145.46 1141.82 1112.8 1075.03 1084.02C1018.53 1059.67 950.712 1041.86 865.141 1022.47C856.14 1020.42 847.103 1018.54 838.078 1016.59C791.889 1006.56 743.125 995.055 704.972 972.385C665.762 949.083 642.815 921.105 618.152 895.798C588.416 865.285 555.828 834.205 517.018 804.491C475.982 773.072 427.926 743.329 378.007 721.243C342.477 705.462 307.318 693.579 274.734 680.974C269.583 678.979 264.432 677.254 259.588 675.004C122.607 611.386 91.2646 525.518 49.6684 549.649" stroke="#1C64EB" stroke-width="0.864782" stroke-miterlimit="10"/>
<path d="M1388.22 1475.83C1404.47 1444.2 1337.16 1413.68 1276.25 1284.83C1264.69 1260.39 1254.03 1236.05 1239.9 1214.87C1196.73 1150.15 1144.32 1115.39 1078.5 1085.05C1023.77 1059.82 957.175 1040.97 871.953 1020.93C863.072 1018.84 854.158 1016.91 845.251 1014.91C799.669 1004.68 751.724 993.282 713.456 971.834C674.083 949.77 649.522 923.53 623.495 899.788C592.01 871.067 558.076 841.879 518.714 813.819C476.914 784.019 429.022 755.634 379.869 733.752C344.771 718.072 310.243 705.713 278.353 692.363C273.307 690.251 268.257 688.379 263.524 686.019C126.771 617.886 100.511 526.418 62.6998 548.352" stroke="#1C64EB" stroke-width="0.864782" stroke-miterlimit="10"/>
<path d="M1392.99 1472.86C1407.61 1444.4 1336.77 1417.98 1274.11 1288.38C1262.45 1264.28 1251.81 1240.32 1238.13 1219.3C1196.17 1154.84 1146.8 1118.01 1081.96 1086.09C1028.99 1060.01 963.634 1040.09 878.759 1019.4C870.001 1017.26 861.207 1015.28 852.422 1013.24C807.444 1002.82 760.319 991.517 721.934 971.295C682.4 950.463 656.221 925.97 628.838 903.786C595.597 876.862 560.317 849.572 520.408 823.152C477.845 794.976 430.121 767.941 381.728 746.27C347.062 730.691 313.164 717.851 281.973 703.765C277.028 701.532 272.084 699.516 267.462 697.053C131.005 624.325 109.755 527.335 75.7278 547.073" stroke="#1C64EB" stroke-width="0.864782" stroke-miterlimit="10"/>
<path d="M1397.76 1469.89C1410.76 1444.59 1336.4 1422.26 1271.98 1291.93C1260.23 1268.15 1249.61 1244.59 1236.37 1223.73C1195.62 1159.52 1149.28 1120.66 1085.43 1087.12C1034.2 1060.2 970.106 1039.22 885.577 1017.86C876.939 1015.67 868.268 1013.65 859.603 1011.57C815.23 1000.95 768.921 989.75 730.42 970.743C690.721 951.148 662.923 928.405 634.181 907.773C599.186 882.65 562.56 857.252 522.106 832.474C478.779 805.932 431.222 780.24 383.588 758.773C349.354 743.294 316.084 729.974 285.588 715.148C280.745 712.795 275.911 710.634 271.395 708.063C135.306 630.669 118.993 528.225 88.7477 545.77" stroke="#1C64EB" stroke-width="0.864782" stroke-miterlimit="10"/>
<path d="M1402.54 1466.91C1413.91 1444.78 1336.07 1426.53 1269.85 1295.47C1258.01 1272.02 1247.41 1248.85 1234.61 1228.15C1195.08 1164.19 1151.73 1123.33 1088.91 1088.14C1039.4 1060.41 976.577 1038.34 892.397 1016.31C883.879 1014.08 875.331 1012 866.787 1009.89C823.024 999.061 777.533 987.969 738.913 970.181C699.051 951.822 669.635 930.839 639.533 911.747C602.785 888.438 564.807 864.932 523.81 841.775C479.715 816.874 432.325 792.514 385.455 771.251C351.655 755.869 319.016 742.073 289.217 726.506C284.477 724.028 279.751 721.719 275.34 719.046C139.694 636.917 128.242 529.093 101.779 544.443" stroke="#1C64EB" stroke-width="0.864782" stroke-miterlimit="10"/>
<path d="M1407.32 1463.97C1417.07 1444.99 1335.76 1430.81 1267.73 1299.04C1255.8 1275.91 1245.22 1253.13 1232.86 1232.58C1194.54 1168.88 1154.15 1126.04 1092.39 1089.18C1044.58 1060.65 983.041 1037.48 899.214 1014.78C890.817 1012.5 882.393 1010.37 873.965 1008.22C830.804 997.193 786.102 986.272 747.39 969.633C707.339 952.581 676.328 933.29 644.869 915.729C606.365 894.24 567.042 872.62 525.499 851.087C480.637 827.832 433.416 804.801 387.303 783.742C353.934 768.459 321.926 754.178 292.819 737.875C288.184 735.279 283.568 732.82 279.26 730.048C144.146 643.117 137.468 529.974 114.782 543.13" stroke="#1C64EB" stroke-width="0.864782" stroke-miterlimit="10"/>
<path d="M1412.1 1461.23C1420.22 1445.42 1335.47 1435.28 1265.59 1302.78C1253.56 1279.97 1243.01 1257.58 1231.08 1237.19C1193.97 1173.72 1156.51 1128.92 1095.82 1090.35C1049.69 1061.03 989.45 1036.75 905.967 1013.36C897.692 1011.03 889.382 1008.85 881.079 1006.66C838.517 995.428 794.633 984.606 755.795 969.184C715.577 953.36 682.948 935.838 650.118 919.803C609.863 900.14 569.177 880.404 527.086 860.477C481.45 838.872 434.389 817.152 389.037 796.297C356.099 781.114 324.718 766.344 296.299 749.302C291.765 746.584 287.268 743.974 283.055 741.099C148.551 649.287 146.546 530.858 127.64 541.822" stroke="#1C64EB" stroke-width="0.864782" stroke-miterlimit="10"/>
<path d="M1416.89 1458.5C1423.39 1445.85 1335.21 1439.73 1263.45 1306.52C1251.34 1284.02 1240.79 1262.02 1229.31 1241.78C1193.42 1178.55 1158.84 1131.82 1099.27 1091.52C1054.78 1061.42 995.87 1036.03 912.729 1011.93C904.571 1009.57 896.385 1007.33 888.2 1005.1C846.237 993.666 803.168 982.94 764.2 968.74C723.822 954.143 689.569 938.397 655.371 923.885C613.36 906.052 571.318 888.199 528.674 869.871C482.267 849.929 435.369 829.506 390.769 808.85C358.258 793.763 327.508 778.507 299.777 760.725C295.346 757.883 290.966 755.126 286.848 752.146C153.046 655.403 155.625 531.73 140.502 540.507" stroke="#1C64EB" stroke-width="0.864782" stroke-miterlimit="10"/>
<path d="M1421.68 1455.77C1426.55 1446.28 1334.98 1444.18 1261.32 1310.26C1249.12 1288.08 1238.62 1266.45 1227.54 1246.39C1192.98 1183.33 1161.13 1134.74 1102.71 1092.68C1059.84 1061.82 1002.27 1035.31 919.482 1010.51C911.443 1008.1 903.378 1005.8 895.314 1003.54C853.948 991.901 811.699 981.27 772.605 968.288C732.061 954.916 696.19 940.956 660.619 927.954C616.865 911.96 573.457 895.995 530.258 879.258C483.077 860.984 436.338 841.857 392.493 821.402C360.411 806.407 330.32 790.621 303.244 772.143C298.921 769.175 294.654 766.268 290.63 763.194C157.632 661.474 164.691 532.599 153.349 539.184" stroke="#1C64EB" stroke-width="0.864782" stroke-miterlimit="10"/>
<path d="M1426.47 1453.04C1429.72 1446.71 1334.78 1448.61 1259.18 1314C1246.9 1292.13 1236.41 1270.91 1225.77 1250.99C1192.41 1188.19 1163.38 1137.7 1106.16 1093.85C1064.88 1062.22 1008.68 1034.6 926.245 1009.07C918.323 1006.62 910.382 1004.27 902.434 1001.96C861.667 990.123 820.233 979.588 781.01 967.825C740.301 955.678 702.819 943.509 665.865 932.016C620.368 917.868 575.597 903.788 531.833 888.638C483.888 872.043 437.301 854.203 394.208 833.946C362.553 819.047 333.086 802.785 306.705 783.556C302.482 780.466 298.338 777.411 294.406 774.23C162.308 667.49 173.757 533.449 166.191 537.84" stroke="#1C64EB" stroke-width="0.864782" stroke-miterlimit="10"/>
<path d="M1431.27 1450.31C1432.9 1447.15 1334.61 1453.03 1257.06 1317.76C1244.69 1296.19 1234.2 1275.37 1224 1255.61C1191.83 1193.05 1165.59 1140.67 1109.61 1095.02C1069.89 1062.63 1015.06 1034 933.008 1007.65C925.202 1005.16 917.386 1002.75 909.558 1000.4C869.39 988.354 828.774 977.918 789.421 967.377C748.548 956.462 709.449 946.128 671.115 936.096C623.87 923.853 577.722 911.687 533.415 898.041C484.687 883.213 438.27 866.571 395.935 846.512C364.707 831.709 335.869 814.969 310.173 794.987C306.051 791.775 302.035 788.565 298.189 785.284C167.099 673.493 182.825 534.312 179.044 536.504" stroke="#1C64EB" stroke-width="0.864782" stroke-miterlimit="10"/>
<path d="M1436.08 1447.58C1436.08 1447.58 1334.46 1457.42 1254.92 1321.51C1175.38 1185.59 1175.42 1084.01 939.768 1006.21C704.114 928.407 456.45 924.861 313.633 806.403C170.815 687.946 191.888 535.156 191.888 535.156" stroke="#1C64EB" stroke-width="0.864782" stroke-miterlimit="10"/>
<path d="M1548.45 1466.16C1556.3 1427.8 1532.92 1386.76 1500.1 1362.04C1467.28 1337.32 1426.6 1325.89 1386.77 1317C1304.4 1298.61 1220.47 1288.61 1139.03 1265.86C1057.6 1243.1 976.83 1205.89 919.638 1143.42C884.474 1105.02 859.486 1058.49 822.702 1021.56C748.948 947.504 640.366 922.83 546.902 875.612C476.19 839.885 470.932 793.732 463.02 725.458C455.339 659.18 422.085 594.778 371.431 548.079C320.778 501.38 253.186 472.816 185.265 469.4" stroke="#1C64EB" stroke-width="0.864782" stroke-miterlimit="10"/>
<path d="M1552.49 1462.67C1557.77 1425.34 1532.91 1384.91 1498.85 1360.88C1464.72 1336.84 1422.96 1325.58 1382.09 1316.36C1299.39 1297.78 1215.25 1286.57 1134.56 1262.1C1054.05 1237.88 975.132 1199.08 917.896 1136.59C882.851 1098.32 857.372 1052.47 820.453 1016.02C746.478 942.946 638.62 918.038 545.561 870.966C475.28 835.42 468.405 789.589 459.29 722.017C450.678 656.662 417.687 592.803 366.746 547.642C315.976 502.475 248.889 475.428 181.428 472.295" stroke="#1C64EB" stroke-width="0.864782" stroke-miterlimit="10"/>
<path d="M1556.54 1459.18C1559.23 1422.88 1532.91 1383.06 1497.62 1359.72C1462.17 1336.36 1419.34 1325.26 1377.43 1315.73C1294.4 1296.95 1210.1 1284.35 1130.09 1258.34C1050.58 1232.49 973.447 1192.27 916.172 1129.75C881.24 1091.62 855.278 1046.45 818.218 1010.47C744.025 938.384 636.892 913.242 544.231 866.317C474.383 830.952 465.683 785.467 455.573 718.57C445.839 654.156 413.303 590.822 362.073 547.192C311.183 503.555 244.601 478.025 177.605 475.179" stroke="#1C64EB" stroke-width="0.864782" stroke-miterlimit="10"/>
<path d="M1560.59 1455.69C1560.7 1420.42 1532.9 1381.21 1496.37 1358.55C1459.61 1335.89 1415.7 1324.95 1372.76 1315.09C1289.4 1296.12 1204.91 1282.23 1125.62 1254.58C1047.07 1227.19 971.755 1185.46 914.439 1122.91C879.626 1084.91 853.176 1040.42 815.975 1004.91C741.561 933.818 635.155 908.439 542.893 861.667C473.477 826.482 463.065 781.337 451.843 715.122C441.084 651.645 408.795 588.965 357.383 546.744C306.271 504.768 240.293 480.629 173.761 478.069" stroke="#1C64EB" stroke-width="0.864782" stroke-miterlimit="10"/>
<path d="M1564.64 1452.2C1562.17 1417.96 1532.9 1379.35 1495.13 1357.39C1457.06 1335.41 1412.07 1324.64 1368.09 1314.45C1284.39 1295.29 1199.73 1280.12 1121.15 1250.82C1043.57 1221.9 970.069 1178.65 912.71 1116.07C878.012 1078.21 851.077 1034.39 813.738 999.368C739.103 929.257 633.422 903.644 541.564 857.019C472.581 822.014 460.461 777.207 448.125 711.679C436.356 649.142 404.381 587.032 352.708 546.298C301.45 505.892 236.007 483.232 169.936 480.955" stroke="#1C64EB" stroke-width="0.864782" stroke-miterlimit="10"/>
<path d="M1568.68 1448.71C1563.64 1415.5 1532.89 1377.51 1493.88 1356.23C1454.5 1334.93 1408.44 1324.33 1363.41 1313.82C1279.38 1294.46 1194.54 1278.01 1116.67 1247.06C1040.05 1216.62 968.362 1171.84 910.966 1109.23C876.385 1071.51 848.961 1028.37 811.487 993.818C736.634 924.697 631.677 898.842 540.218 852.371C471.667 817.547 457.842 773.085 444.39 708.237C431.611 646.64 399.952 585.096 348.018 545.858C296.616 507.026 231.702 485.84 166.092 483.853" stroke="#1C64EB" stroke-width="0.864782" stroke-miterlimit="10"/>
<path d="M1572.73 1445.22C1565.11 1413.05 1532.92 1375.57 1492.65 1355.07C1451.99 1334.37 1404.81 1324.03 1358.74 1313.18C1274.39 1293.63 1189.36 1275.9 1112.21 1243.31C1036.55 1211.35 966.681 1165.04 909.243 1102.41C874.777 1064.82 846.868 1022.35 809.252 988.277C734.179 920.142 629.946 894.053 538.891 847.728C470.773 813.084 455.253 768.968 440.675 704.799C426.893 644.147 395.549 583.164 343.343 545.421C291.801 508.158 227.413 488.456 162.267 486.75" stroke="#1C64EB" stroke-width="0.864782" stroke-miterlimit="10"/>
<path d="M1576.77 1441.73C1566.58 1410.58 1532.92 1373.71 1491.4 1353.9C1449.44 1333.88 1401.18 1323.71 1354.07 1312.54C1269.38 1292.8 1184.17 1273.81 1107.73 1239.55C1033.05 1206.07 964.981 1158.23 907.506 1095.57C873.159 1058.11 844.758 1016.33 807.008 982.724C731.713 915.576 628.205 889.253 537.552 843.078C469.866 808.614 452.659 764.849 436.945 701.348C422.172 641.642 391.132 581.218 338.657 544.967C286.981 509.272 223.112 491.048 158.428 489.632" stroke="#1C64EB" stroke-width="0.864782" stroke-miterlimit="10"/>
<path d="M1580.82 1438.24C1568.04 1408.13 1532.91 1371.85 1490.16 1352.74C1446.88 1333.4 1397.57 1323.31 1349.4 1311.9C1264.42 1291.79 1179 1271.72 1103.27 1235.79C1029.55 1200.81 963.294 1151.42 905.778 1088.73C871.547 1051.41 842.661 1010.3 804.771 977.178C729.257 911.013 626.473 884.455 536.219 838.427C468.962 804.148 450.071 760.73 433.223 697.903C417.464 639.143 386.73 579.274 333.979 544.525C282.171 510.395 218.823 493.656 154.595 492.521" stroke="#1C64EB" stroke-width="0.864782" stroke-miterlimit="10"/>
<path d="M1584.87 1434.75C1569.51 1405.67 1532.91 1369.99 1488.92 1351.58C1444.33 1332.92 1393.94 1322.99 1344.73 1311.27C1259.42 1290.96 1173.82 1269.65 1098.79 1232.03C1026.05 1195.56 961.598 1144.61 904.043 1081.89C869.928 1044.71 840.557 1004.28 802.524 971.629C726.793 906.453 624.73 879.659 534.877 833.781C468.053 799.682 447.485 756.617 429.493 694.461C412.752 636.65 382.321 577.333 329.292 544.08C277.359 511.514 214.518 496.263 150.757 495.41" stroke="#1C64EB" stroke-width="0.864782" stroke-miterlimit="10"/>
<path d="M1588.91 1431.26C1570.97 1403.21 1532.9 1368.13 1487.68 1350.42C1441.77 1332.43 1390.31 1322.68 1340.06 1310.64C1254.42 1290.12 1168.63 1267.57 1094.33 1228.28C1022.54 1190.32 959.91 1137.81 902.312 1075.06C868.312 1038.02 838.456 998.257 800.286 966.086C724.334 901.896 622.998 874.864 533.544 829.14C467.152 795.221 444.918 752.51 425.767 691.023C408.058 634.157 377.918 575.391 324.607 543.642C272.55 512.636 210.221 498.874 146.919 498.309" stroke="#1C64EB" stroke-width="0.864782" stroke-miterlimit="10"/>
<path d="M1592.96 1427.77C1572.45 1400.75 1532.9 1366.27 1486.44 1349.25C1439.22 1331.95 1386.68 1322.36 1335.39 1310C1249.42 1289.28 1163.45 1265.5 1089.85 1224.52C1019.04 1185.08 958.22 1131 900.578 1068.22C866.697 1031.31 836.352 992.229 798.044 960.537C721.871 897.333 621.26 870.067 532.211 824.489C466.251 790.751 442.356 748.392 422.044 687.578C403.37 631.66 373.526 573.441 319.931 543.196C267.752 513.749 205.931 501.475 143.093 501.196" stroke="#1C64EB" stroke-width="0.864782" stroke-miterlimit="10"/>
<path d="M1597.01 1424.28C1573.91 1398.29 1532.89 1364.42 1485.19 1348.09C1436.66 1331.47 1383.05 1322.05 1330.72 1309.36C1244.42 1288.45 1158.26 1263.44 1085.38 1220.76C1015.52 1179.84 956.521 1124.18 898.842 1061.38C865.074 1024.61 834.244 986.202 795.799 954.988C719.405 892.771 619.521 865.266 530.87 819.842C465.343 786.285 439.799 744.28 418.318 684.132C398.685 629.162 369.131 571.488 315.245 542.751C262.952 514.859 201.631 504.084 139.254 504.089" stroke="#1C64EB" stroke-width="0.864782" stroke-miterlimit="10"/>
<path d="M1601.06 1420.79C1575.38 1395.84 1532.88 1362.57 1483.95 1346.93C1434.1 1330.99 1379.42 1321.74 1326.05 1308.73C1239.42 1287.62 1153.07 1261.39 1080.91 1217C1012.02 1174.62 954.835 1117.38 897.117 1054.55C863.468 1017.91 832.148 980.18 793.562 949.441C716.951 888.213 617.787 860.472 529.541 815.194C464.446 781.817 437.255 740.163 414.6 680.689C394.019 626.668 364.748 569.533 310.57 542.305C258.163 515.968 197.341 506.685 135.428 506.976" stroke="#1C64EB" stroke-width="0.864782" stroke-miterlimit="10"/>
<path d="M1605.1 1417.3C1576.85 1393.37 1532.87 1360.71 1482.71 1345.77C1431.54 1330.52 1375.79 1321.42 1321.38 1308.09C1234.42 1286.79 1147.88 1259.35 1076.44 1213.24C1008.5 1169.4 953.139 1110.57 895.383 1047.71C861.85 1011.21 830.043 974.155 791.321 943.892C714.489 883.65 616.05 855.675 528.206 810.547C463.544 777.35 434.719 736.05 410.872 677.245C389.349 624.17 360.361 567.576 305.883 541.861C253.367 517.072 193.039 509.288 131.59 509.865" stroke="#1C64EB" stroke-width="0.864782" stroke-miterlimit="10"/>
<path d="M1609.15 1413.81C1578.32 1390.92 1532.86 1358.86 1481.47 1344.6C1428.99 1330.03 1372.16 1321.11 1316.71 1307.46C1229.42 1285.96 1142.69 1257.3 1071.97 1209.49C1004.98 1164.19 951.45 1103.77 893.651 1040.88C860.235 1004.52 827.945 968.136 789.082 938.348C712.028 879.094 614.317 850.88 526.874 805.902C462.644 772.886 432.189 731.937 407.151 673.805C384.7 621.676 355.98 565.617 301.207 541.424C248.58 518.176 188.749 511.905 127.761 512.766" stroke="#1C64EB" stroke-width="0.864782" stroke-miterlimit="10"/>
<path d="M1613.19 1410.32C1579.78 1388.46 1532.85 1357.01 1480.23 1343.43C1426.43 1329.56 1368.53 1320.8 1312.04 1306.81C1224.42 1285.13 1137.49 1255.26 1067.5 1205.72C1001.46 1158.97 949.759 1096.95 891.917 1034.04C858.615 997.805 825.838 962.105 786.838 932.796C709.569 874.527 612.576 846.08 525.535 801.252C461.738 768.416 429.664 727.815 403.424 670.36C380.045 619.173 351.594 563.649 296.523 540.976C243.791 519.268 184.449 514.504 123.922 515.649" stroke="#1C64EB" stroke-width="0.864782" stroke-miterlimit="10"/>
<path d="M1617.24 1406.83C1581.25 1386 1532.84 1355.17 1478.98 1342.28C1423.87 1329.09 1364.89 1320.49 1307.37 1306.18C1219.41 1284.31 1132.28 1253.24 1063.03 1201.97C997.931 1153.77 948.064 1090.15 890.185 1027.2C857.003 991.109 823.736 956.084 784.595 927.251C707.105 869.968 610.839 841.283 524.196 796.602C460.835 763.95 427.148 723.69 399.694 666.91C375.402 616.661 347.212 561.668 291.834 540.526C239 520.354 180.149 517.103 120.08 518.536" stroke="#1C64EB" stroke-width="0.864782" stroke-miterlimit="10"/>
<path d="M1621.29 1403.34C1582.71 1383.54 1532.83 1353.31 1477.74 1341.11C1421.31 1328.61 1361.26 1320.18 1302.69 1305.55C1214.4 1283.49 1127.07 1251.22 1058.55 1198.21C994.398 1148.57 946.37 1083.34 888.448 1020.36C855.379 984.406 821.626 950.058 782.35 921.699C704.639 865.402 609.098 836.483 522.857 791.952C459.928 759.481 424.638 719.563 395.966 663.465C370.762 614.152 342.832 559.689 287.153 540.081C234.215 521.439 175.85 519.709 116.248 521.424" stroke="#1C64EB" stroke-width="0.864782" stroke-miterlimit="10"/>
<path d="M1625.33 1399.85C1584.18 1381.08 1532.82 1351.47 1476.5 1339.95C1418.76 1328.14 1357.61 1319.99 1298.03 1304.91C1209.37 1282.83 1121.86 1249.2 1054.09 1194.45C990.871 1143.38 944.685 1076.53 886.723 1013.53C853.773 977.709 819.532 944.035 780.118 916.154C702.186 860.844 607.37 831.691 521.53 787.31C459.033 755.019 422.15 715.438 392.25 660.028C366.145 611.652 338.469 557.715 282.478 539.644C229.442 522.525 171.564 522.322 112.422 524.321" stroke="#1C64EB" stroke-width="0.864782" stroke-miterlimit="10"/>
<path d="M1629.38 1396.36C1585.65 1378.62 1532.8 1349.72 1475.26 1338.79C1416.19 1327.77 1353.98 1319.68 1293.36 1304.28C1204.37 1282 1116.64 1247.19 1049.62 1190.69C987.328 1138.19 942.993 1069.72 884.988 1006.7C852.152 971.007 817.424 938.013 777.868 910.609C699.719 856.288 605.626 826.894 520.188 782.663C458.124 750.553 419.655 711.304 388.52 656.587C361.518 609.139 334.088 555.729 277.79 539.2C224.655 523.603 167.262 524.925 108.582 527.213" stroke="#1C64EB" stroke-width="0.864782" stroke-miterlimit="10"/>
<path d="M1633.43 1392.87C1587.12 1376.17 1532.79 1347.88 1474.02 1337.63C1413.63 1327.3 1350.34 1319.37 1288.69 1303.64C1199.37 1281.17 1111.41 1245.18 1045.14 1186.94C983.78 1133.01 941.297 1062.91 883.259 999.861C850.543 964.308 815.325 931.988 775.632 905.063C697.262 851.728 603.893 822.1 518.857 778.019C457.225 746.089 417.183 707.164 384.796 653.145C356.909 606.618 329.713 553.737 273.111 538.761C219.878 524.677 162.971 527.535 104.752 530.108" stroke="#1C64EB" stroke-width="0.864782" stroke-miterlimit="10"/>
<path d="M1637.48 1389.38C1588.59 1373.71 1532.79 1346.02 1472.78 1336.46C1411.07 1326.82 1346.72 1319.06 1284.02 1303C1194.37 1280.34 1106.18 1243.17 1040.67 1183.18C980.228 1127.82 939.604 1056.11 881.525 993.023C848.922 957.607 813.223 925.967 773.391 899.513C694.8 847.165 602.159 817.299 517.524 773.368C456.325 741.618 414.71 703.014 381.077 649.696C352.305 604.089 325.343 551.726 268.432 538.312C215.094 525.735 158.671 530.135 100.916 532.994" stroke="#1C64EB" stroke-width="0.864782" stroke-miterlimit="10"/>
<path d="M1641.52 1385.89C1590.06 1371.25 1532.78 1344.17 1471.54 1335.3C1408.52 1326.34 1343.09 1318.75 1279.35 1302.37C1189.36 1279.51 1100.95 1241.17 1036.21 1179.42C976.675 1122.65 937.919 1049.3 879.797 986.188C847.313 950.908 811.124 919.941 771.155 893.966C692.343 842.604 600.426 812.504 516.193 768.723C455.426 737.154 412.252 698.861 377.357 646.256C347.712 601.562 320.973 549.726 263.756 537.869C210.325 526.798 154.383 532.742 97.0929 535.887" stroke="#1C64EB" stroke-width="0.864782" stroke-miterlimit="10"/>
<path d="M1645.57 1382.4C1591.53 1368.79 1532.78 1342.32 1470.29 1334.14C1405.97 1325.87 1339.46 1318.44 1274.68 1301.73C1184.37 1278.68 1095.7 1239.17 1031.74 1175.66C973.113 1117.46 936.225 1042.49 878.064 979.35C845.695 944.203 809.021 913.913 768.911 888.414C689.884 838.038 598.685 807.704 514.857 764.069C454.522 732.681 409.792 694.692 373.628 642.805C343.113 599.015 316.594 547.705 259.067 537.418C205.534 527.841 150.083 535.341 93.2469 538.771" stroke="#1C64EB" stroke-width="0.864782" stroke-miterlimit="10"/>
<path d="M1649.61 1378.91C1592.98 1366.33 1532.77 1340.47 1469.05 1332.97C1403.41 1325.39 1335.82 1318.13 1270 1301.1C1179.36 1277.85 1090.45 1237.17 1027.26 1171.91C969.541 1112.29 934.53 1035.69 876.325 972.519C844.073 937.512 806.91 907.896 766.662 882.875C687.414 833.486 596.943 802.914 513.513 759.433C453.611 728.225 407.334 690.535 369.896 639.374C338.514 596.485 312.208 545.701 254.382 536.987C200.746 528.903 145.78 537.96 89.4112 541.673" stroke="#1C64EB" stroke-width="0.864782" stroke-miterlimit="10"/>
<path d="M1653.66 1375.42C1594.46 1363.87 1532.77 1338.61 1467.81 1331.81C1400.86 1324.91 1332.19 1317.82 1265.34 1300.46C1174.36 1277.02 1085.2 1235.18 1022.79 1168.15C965.972 1107.12 932.837 1028.87 874.595 965.678C842.458 930.804 804.81 901.865 764.425 877.323C684.956 828.919 595.209 798.114 512.177 754.78C452.707 723.752 404.887 686.348 366.174 635.923C333.93 593.927 307.831 543.67 249.701 536.535C195.961 529.939 141.488 540.558 85.5788 544.555" stroke="#1C64EB" stroke-width="0.864782" stroke-miterlimit="10"/>
<path d="M1657.71 1371.93C1595.92 1361.41 1532.76 1336.76 1466.57 1330.65C1398.31 1324.43 1328.56 1317.51 1260.66 1299.82C1169.36 1276.18 1079.94 1233.17 1018.32 1164.38C962.391 1101.94 931.146 1022.06 872.86 958.833C840.842 924.096 802.703 895.835 762.183 871.767C682.496 824.353 593.473 793.306 510.843 750.122C451.803 719.279 402.451 682.151 362.45 632.47C329.346 591.358 303.451 541.632 245.02 536.08C191.173 530.968 137.192 543.15 81.7455 547.437" stroke="#1C64EB" stroke-width="0.864782" stroke-miterlimit="10"/>
<path d="M1661.76 1368.44C1597.39 1358.95 1532.76 1334.91 1465.33 1329.48C1395.75 1323.95 1324.93 1317.2 1255.99 1299.18C1164.36 1275.36 1074.67 1231.18 1013.85 1160.62C958.809 1096.77 929.457 1015.25 871.128 952.001C839.223 917.401 800.605 889.815 759.94 866.221C680.032 819.793 591.737 788.515 509.505 745.479C450.897 714.816 400.011 677.958 358.72 629.029C324.763 588.795 299.063 539.599 240.335 535.642C186.378 532.009 132.892 545.765 77.9088 550.332" stroke="#1C64EB" stroke-width="0.864782" stroke-miterlimit="10"/>
<path d="M1665.8 1364.96C1598.86 1356.5 1532.75 1333.06 1464.08 1328.32C1393.2 1323.49 1321.3 1316.89 1251.32 1298.55C1159.36 1274.53 1069.25 1229.3 1009.38 1156.87C955.091 1091.7 927.759 1008.45 869.397 945.17C837.611 910.705 798.501 883.798 757.699 860.682C677.57 815.241 589.999 783.728 508.172 740.838C449.996 710.356 397.586 673.754 354.997 625.594C320.19 586.228 294.674 537.566 235.653 535.207C181.585 533.046 128.596 548.378 74.074 553.234" stroke="#1C64EB" stroke-width="0.864782" stroke-miterlimit="10"/>
<path d="M1669.85 1361.46C1600.33 1354.04 1532.74 1331.2 1462.84 1327.16C1390.64 1323 1317.67 1316.58 1246.65 1297.91C1154.36 1273.7 1064.03 1227.25 1004.9 1153.11C951.555 1086.47 926.07 1001.64 867.664 938.331C835.994 904 796.399 877.769 755.459 855.131C675.109 810.677 588.266 778.926 506.837 736.19C449.094 705.888 395.159 669.535 351.274 622.151C315.614 583.647 290.28 535.448 230.973 534.761C176.784 534.001 124.304 550.981 70.2431 556.121" stroke="#1C64EB" stroke-width="0.864782" stroke-miterlimit="10"/>
<path d="M1673.9 1357.97C1601.8 1351.58 1532.74 1329.36 1461.6 1326C1388.09 1322.53 1314.04 1316.27 1241.99 1297.28C1149.36 1272.87 1058.82 1225.22 1000.44 1149.35C948.023 1081.25 924.377 994.833 865.935 931.496C834.381 897.304 794.297 871.748 753.222 849.585C672.655 806.119 586.532 774.132 505.508 731.542C448.197 701.42 392.744 665.306 347.555 618.702C311.047 581.053 285.893 533.465 226.294 534.312C171.989 535.085 120.008 553.583 66.4137 559.006" stroke="#1C64EB" stroke-width="0.864782" stroke-miterlimit="10"/>
</g>
</svg>
