<svg width="48" height="43" viewBox="0 0 48 43" fill="none" xmlns="http://www.w3.org/2000/svg">
<path d="M45.75 0.90625H2.25C0.9375 0.90625 0 2.03125 0 3.4375V10.375C0 11.7812 0.9375 12.9062 2.25 12.9062H45.75C46.9688 12.9062 48 11.7812 48 10.375V3.4375C48 2.03125 46.9688 0.90625 45.75 0.90625ZM28.5 8.40625H4.5V5.40625H28.5V8.40625ZM43.5 8.40625H33V5.40625H43.5V8.40625ZM45.75 30.9062H2.25C0.9375 30.9062 0 32.0312 0 33.4375V40.375C0 41.7812 0.9375 42.9062 2.25 42.9062H45.75C46.9688 42.9062 48 41.7812 48 40.375V33.4375C48 32.0312 46.9688 30.9062 45.75 30.9062ZM22.5 38.4062H4.5V35.4062H22.5V38.4062ZM43.5 38.4062H27V35.4062H43.5V38.4062ZM45.75 15.9062H2.25C0.9375 15.9062 0 17.0312 0 18.4375V25.375C0 26.7812 0.9375 27.9062 2.25 27.9062H45.75C46.9688 27.9062 48 26.7812 48 25.375V18.4375C48 17.0312 46.9688 15.9062 45.75 15.9062ZM10.5 23.4062H4.5V20.4062H10.5V23.4062ZM43.5 23.4062H15V20.4062H43.5V23.4062Z" fill="#F9FAFB"/>
</svg>
