<svg width="50" height="36" viewBox="0 0 50 36" fill="none" xmlns="http://www.w3.org/2000/svg">
<path d="M3.20312 1.04688C2.8125 0.65625 2.26562 0.65625 1.875 1.04688L0.3125 2.53125C0 2.92188 0 3.54688 0.3125 3.85938L14.4531 18L0.3125 32.2188C0 32.5312 0 33.1562 0.3125 33.5469L1.875 35.0312C2.26562 35.4219 2.8125 35.4219 3.20312 35.0312L19.6094 18.7031C19.9219 18.3125 19.9219 17.7656 19.6094 17.375L3.20312 1.04688ZM50 34.5625V32.375C50 31.9062 49.5312 31.4375 49.0625 31.4375H23.4375C22.8906 31.4375 22.5 31.9062 22.5 32.375V34.5625C22.5 35.1094 22.8906 35.5 23.4375 35.5H49.0625C49.5312 35.5 50 35.1094 50 34.5625Z" fill="#F9FAFB"/>
</svg>
