<svg width="48" height="42" viewBox="0 0 48 42" fill="none" xmlns="http://www.w3.org/2000/svg">
<path d="M43.5 0H4.5C1.96875 0 0 2.0625 0 4.5V37.5C0 40.0312 1.96875 42 4.5 42H43.5C45.9375 42 48 40.0312 48 37.5V4.5C48 2.0625 45.9375 0 43.5 0ZM36 7.5C36 5.90625 37.3125 4.5 39 4.5C40.5938 4.5 42 5.90625 42 7.5C42 9.1875 40.5938 10.5 39 10.5C37.3125 10.5 36 9.1875 36 7.5ZM27 7.5C27 5.90625 28.3125 4.5 30 4.5C31.5938 4.5 33 5.90625 33 7.5C33 9.1875 31.5938 10.5 30 10.5C28.3125 10.5 27 9.1875 27 7.5ZM18 7.5C18 5.90625 19.3125 4.5 21 4.5C22.5938 4.5 24 5.90625 24 7.5C24 9.1875 22.5938 10.5 21 10.5C19.3125 10.5 18 9.1875 18 7.5ZM43.5 36.9375C43.5 37.3125 43.2188 37.5 42.9375 37.5H5.0625C4.6875 37.5 4.5 37.3125 4.5 36.9375V15H43.5V36.9375Z" fill="#F9FAFB"/>
</svg>
